<svg width="150" height="288" viewBox="0 0 150 288" fill="none" xmlns="http://www.w3.org/2000/svg">
<rect x="42" y="126" width="6" height="6" fill="#3B64CD"/>
<rect x="108" y="108" width="6" height="6" fill="#13387E"/>
<rect x="78" y="264" width="6" height="6" fill="#13387E"/>
<rect x="72" y="270" width="6" height="6" fill="#3B64CD"/>
<rect x="84" y="114" width="6" height="6" fill="#FC9696"/>
<rect x="36" y="18" width="6" height="6" fill="white"/>
<rect x="30" y="24" width="6" height="6" fill="white"/>
<rect x="24" y="30" width="6" height="6" fill="white"/>
<rect x="30" y="30" width="6" height="6" fill="white"/>
<rect x="24" y="36" width="6" height="6" fill="white"/>
<rect x="24" y="42" width="6" height="6" fill="white"/>
<rect x="24" y="54" width="6" height="6" fill="white"/>
<rect x="42" y="48" width="6" height="6" fill="#B95959"/>
<rect x="66" y="42" width="6" height="6" fill="#B95959"/>
<rect x="60" y="48" width="6" height="6" fill="#B95959"/>
<rect x="66" y="48" width="6" height="6" fill="#B95959"/>
<rect x="48" y="72" width="6" height="6" fill="#9EA1AD"/>
<rect x="48" y="78" width="6" height="6" fill="#9EA1AD"/>
<rect x="48" y="84" width="6" height="6" fill="#9EA1AD"/>
<rect x="60" y="36" width="6" height="6" fill="#C7B09E"/>
<rect x="54" y="24" width="6" height="6" fill="#C7B09E"/>
<rect x="60" y="24" width="6" height="6" fill="#C7B09E"/>
<rect x="66" y="24" width="6" height="6" fill="#C7B09E"/>
<rect x="48" y="30" width="6" height="6" fill="#C7B09E"/>
<rect x="54" y="30" width="6" height="6" fill="#C7B09E"/>
<rect x="60" y="30" width="6" height="6" fill="#C7B09E"/>
<rect x="66" y="30" width="6" height="6" fill="#C7B09E"/>
<rect x="42" y="42" width="6" height="6" fill="#C7B09E"/>
<rect x="42" y="54" width="6" height="6" fill="#C7B09E"/>
<rect x="42" y="60" width="6" height="6" fill="#C7B09E"/>
<rect x="42" y="66" width="6" height="6" fill="#C7B09E"/>
<rect x="48" y="36" width="6" height="6" fill="#C7B09E"/>
<rect x="54" y="36" width="6" height="6" fill="#C7B09E"/>
<rect x="66" y="36" width="6" height="6" fill="#C7B09E"/>
<rect x="48" y="42" width="6" height="6" fill="#C7B09E"/>
<rect x="54" y="42" width="6" height="6" fill="#C7B09E"/>
<rect x="60" y="42" width="6" height="6" fill="#C7B09E"/>
<rect x="48" y="48" width="6" height="6" fill="#C7B09E"/>
<rect x="54" y="48" width="6" height="6" fill="#C7B09E"/>
<rect x="48" y="54" width="6" height="6" fill="#C7B09E"/>
<rect x="54" y="54" width="6" height="6" fill="#C7B09E"/>
<rect x="60" y="54" width="6" height="6" fill="#C7B09E"/>
<rect x="66" y="54" width="6" height="6" fill="#C7B09E"/>
<rect x="48" y="60" width="6" height="6" fill="#C7B09E"/>
<rect x="54" y="60" width="6" height="6" fill="#C7B09E"/>
<rect x="48" y="66" width="6" height="6" fill="#C7B09E"/>
<rect x="54" y="66" width="6" height="6" fill="#C7B09E"/>
<rect x="42" y="72" width="6" height="6" fill="#C7B09E"/>
<rect x="42" y="78" width="6" height="6" fill="#C7B09E"/>
<rect x="42" y="84" width="6" height="6" fill="#C7B09E"/>
<rect x="54" y="72" width="6" height="6" fill="#C7B09E"/>
<rect x="54" y="78" width="6" height="6" fill="#C7B09E"/>
<rect x="54" y="84" width="6" height="6" fill="#C7B09E"/>
<rect x="72" y="24" width="6" height="6" fill="#C7B09E"/>
<rect x="78" y="24" width="6" height="6" fill="#C7B09E"/>
<rect x="72" y="30" width="6" height="6" fill="#C7B09E"/>
<rect x="78" y="30" width="6" height="6" fill="#C7B09E"/>
<rect x="72" y="36" width="6" height="6" fill="#C7B09E"/>
<rect x="78" y="36" width="6" height="6" fill="#C7B09E"/>
<rect x="72" y="42" width="6" height="6" fill="#C7B09E"/>
<rect x="72" y="48" width="6" height="6" fill="#C7B09E"/>
<rect x="60" y="60" width="6" height="6" fill="#B49C97"/>
<rect x="66" y="60" width="6" height="6" fill="#B49C97"/>
<rect x="60" y="66" width="6" height="6" fill="#B49C97"/>
<rect x="66" y="66" width="6" height="6" fill="#B49C97"/>
<rect x="60" y="72" width="6" height="6" fill="#B49C97"/>
<rect x="78" y="42" width="6" height="6" fill="#B49C97"/>
<rect x="78" y="48" width="6" height="6" fill="#B49C97"/>
<rect x="72" y="54" width="6" height="6" fill="#B49C97"/>
<rect x="72" y="60" width="6" height="6" fill="#B49C97"/>
<rect x="42" y="30" width="6" height="6" fill="#4F5379"/>
<rect x="54" y="18" width="6" height="6" fill="#4F5379"/>
<rect x="60" y="18" width="6" height="6" fill="#4F5379"/>
<rect x="66" y="18" width="6" height="6" fill="#4F5379"/>
<rect x="48" y="24" width="6" height="6" fill="#4F5379"/>
<rect x="42" y="36" width="6" height="6" fill="#4F5379"/>
<rect x="36" y="42" width="6" height="6" fill="#4F5379"/>
<rect x="36" y="48" width="6" height="6" fill="#4F5379"/>
<rect x="36" y="54" width="6" height="6" fill="#4F5379"/>
<rect x="36" y="60" width="6" height="6" fill="#4F5379"/>
<rect x="36" y="66" width="6" height="6" fill="#4F5379"/>
<rect x="36" y="72" width="6" height="6" fill="#4F5379"/>
<rect x="36" y="78" width="6" height="6" fill="#4F5379"/>
<rect x="36" y="84" width="6" height="6" fill="#4F5379"/>
<rect x="42" y="90" width="6" height="6" fill="#4F5379"/>
<rect x="66" y="72" width="6" height="6" fill="#4F5379"/>
<rect x="60" y="78" width="6" height="6" fill="#4F5379"/>
<rect x="60" y="84" width="6" height="6" fill="#4F5379"/>
<rect x="48" y="90" width="6" height="6" fill="#4F5379"/>
<rect x="54" y="90" width="6" height="6" fill="#4F5379"/>
<rect x="72" y="18" width="6" height="6" fill="#4F5379"/>
<rect x="78" y="18" width="6" height="6" fill="#4F5379"/>
<rect x="84" y="24" width="6" height="6" fill="#4F5379"/>
<rect x="84" y="30" width="6" height="6" fill="#4F5379"/>
<rect x="84" y="36" width="6" height="6" fill="#4F5379"/>
<rect x="84" y="42" width="6" height="6" fill="#4F5379"/>
<rect x="84" y="48" width="6" height="6" fill="#4F5379"/>
<rect x="78" y="54" width="6" height="6" fill="#4F5379"/>
<rect x="78" y="60" width="6" height="6" fill="#4F5379"/>
<rect x="72" y="66" width="6" height="6" fill="#4F5379"/>
<rect x="18" y="36" width="6" height="6" fill="#A9D1FF"/>
<rect x="18" y="42" width="6" height="6" fill="#A9D1FF"/>
<rect x="18" y="48" width="6" height="6" fill="#A9D1FF"/>
<rect x="18" y="54" width="6" height="6" fill="#A9D1FF"/>
<rect x="18" y="60" width="6" height="6" fill="#A9D1FF"/>
<rect x="18" y="66" width="6" height="6" fill="#A9D1FF"/>
<rect x="36" y="12" width="6" height="6" fill="#A9D1FF"/>
<rect x="42" y="12" width="6" height="6" fill="#A9D1FF"/>
<rect x="30" y="18" width="6" height="6" fill="#A9D1FF"/>
<rect x="42" y="18" width="6" height="6" fill="#A9D1FF"/>
<rect x="24" y="24" width="6" height="6" fill="#A9D1FF"/>
<rect x="36" y="24" width="6" height="6" fill="#A9D1FF"/>
<rect x="42" y="24" width="6" height="6" fill="#A9D1FF"/>
<rect x="36" y="30" width="6" height="6" fill="#A9D1FF"/>
<rect x="48" y="6" width="6" height="6" fill="#A9D1FF"/>
<rect x="54" y="6" width="6" height="6" fill="#A9D1FF"/>
<rect x="60" y="6" width="6" height="6" fill="#A9D1FF"/>
<rect x="66" y="6" width="6" height="6" fill="#A9D1FF"/>
<rect x="48" y="12" width="6" height="6" fill="#A9D1FF"/>
<rect x="54" y="12" width="6" height="6" fill="#A9D1FF"/>
<rect x="60" y="12" width="6" height="6" fill="#A9D1FF"/>
<rect x="66" y="12" width="6" height="6" fill="#A9D1FF"/>
<rect x="48" y="18" width="6" height="6" fill="#A9D1FF"/>
<rect x="30" y="36" width="6" height="6" fill="#A9D1FF"/>
<rect x="36" y="36" width="6" height="6" fill="#A9D1FF"/>
<rect x="30" y="42" width="6" height="6" fill="#A9D1FF"/>
<rect x="24" y="48" width="6" height="6" fill="#A9D1FF"/>
<rect x="30" y="48" width="6" height="6" fill="#A9D1FF"/>
<rect x="30" y="54" width="6" height="6" fill="#A9D1FF"/>
<rect x="24" y="60" width="6" height="6" fill="#A9D1FF"/>
<rect x="30" y="60" width="6" height="6" fill="#A9D1FF"/>
<rect x="24" y="66" width="6" height="6" fill="#A9D1FF"/>
<rect x="30" y="66" width="6" height="6" fill="#A9D1FF"/>
<rect x="24" y="72" width="6" height="6" fill="#A9D1FF"/>
<rect x="30" y="72" width="6" height="6" fill="#A9D1FF"/>
<rect x="24" y="78" width="6" height="6" fill="#A9D1FF"/>
<rect x="72" y="6" width="6" height="6" fill="#A9D1FF"/>
<rect x="72" y="12" width="6" height="6" fill="#A9D1FF"/>
<rect x="78" y="12" width="6" height="6" fill="#A9D1FF"/>
<rect x="84" y="12" width="6" height="6" fill="#A9D1FF"/>
<rect x="84" y="18" width="6" height="6" fill="#A9D1FF"/>
<rect x="90" y="18" width="6" height="6" fill="#A9D1FF"/>
<rect x="90" y="24" width="6" height="6" fill="#A9D1FF"/>
<rect x="90" y="30" width="6" height="6" fill="#A9D1FF"/>
<rect x="96" y="24" width="6" height="6" fill="#A9D1FF"/>
<rect x="96" y="30" width="6" height="6" fill="#A9D1FF"/>
<rect x="90" y="36" width="6" height="6" fill="#A9D1FF"/>
<rect x="90" y="42" width="6" height="6" fill="#A9D1FF"/>
<rect x="90" y="48" width="6" height="6" fill="#A9D1FF"/>
<rect x="84" y="54" width="6" height="6" fill="#A9D1FF"/>
<rect x="90" y="54" width="6" height="6" fill="#A9D1FF"/>
<rect x="90" y="60" width="6" height="6" fill="#A9D1FF"/>
<rect x="96" y="36" width="6" height="6" fill="#A9D1FF"/>
<rect x="102" y="36" width="6" height="6" fill="#A9D1FF"/>
<rect x="96" y="42" width="6" height="6" fill="#A9D1FF"/>
<rect x="102" y="42" width="6" height="6" fill="#A9D1FF"/>
<rect x="96" y="48" width="6" height="6" fill="#A9D1FF"/>
<rect x="102" y="48" width="6" height="6" fill="#A9D1FF"/>
<rect x="96" y="54" width="6" height="6" fill="#A9D1FF"/>
<rect x="102" y="54" width="6" height="6" fill="#A9D1FF"/>
<rect x="96" y="60" width="6" height="6" fill="#A9D1FF"/>
<rect x="102" y="60" width="6" height="6" fill="#A9D1FF"/>
<rect x="102" y="66" width="6" height="6" fill="#A9D1FF"/>
<rect x="78" y="66" width="6" height="6" fill="#5E6392"/>
<rect x="84" y="66" width="6" height="6" fill="#5E6392"/>
<rect x="84" y="72" width="6" height="6" fill="#5E6392"/>
<rect x="90" y="72" width="6" height="6" fill="#5E6392"/>
<rect x="90" y="78" width="6" height="6" fill="#5E6392"/>
<rect x="36" y="90" width="6" height="6" fill="#97A8B4"/>
<rect x="42" y="96" width="6" height="6" fill="#97A8B4"/>
<rect x="66" y="78" width="6" height="6" fill="#97A8B4"/>
<rect x="66" y="84" width="6" height="6" fill="#97A8B4"/>
<rect x="60" y="90" width="6" height="6" fill="#97A8B4"/>
<rect x="66" y="90" width="6" height="6" fill="#97A8B4"/>
<rect x="48" y="96" width="6" height="6" fill="#97A8B4"/>
<rect x="54" y="96" width="6" height="6" fill="#97A8B4"/>
<rect x="60" y="96" width="6" height="6" fill="#97A8B4"/>
<rect x="66" y="96" width="6" height="6" fill="#97A8B4"/>
<rect x="72" y="72" width="6" height="6" fill="#97A8B4"/>
<rect x="72" y="78" width="6" height="6" fill="#97A8B4"/>
<rect x="78" y="78" width="6" height="6" fill="#97A8B4"/>
<rect x="72" y="84" width="6" height="6" fill="#97A8B4"/>
<rect x="78" y="84" width="6" height="6" fill="#97A8B4"/>
<rect x="84" y="84" width="6" height="6" fill="#97A8B4"/>
<rect x="72" y="90" width="6" height="6" fill="#97A8B4"/>
<rect x="78" y="90" width="6" height="6" fill="#97A8B4"/>
<rect x="30" y="78" width="6" height="6" fill="#5A5481"/>
<rect x="30" y="84" width="6" height="6" fill="#5A5481"/>
<rect x="84" y="60" width="6" height="6" fill="#5A5481"/>
<rect x="90" y="66" width="6" height="6" fill="#5A5481"/>
<rect x="96" y="66" width="6" height="6" fill="#5A5481"/>
<rect x="78" y="72" width="6" height="6" fill="#5A5481"/>
<rect x="84" y="78" width="6" height="6" fill="#5A5481"/>
<rect x="96" y="72" width="6" height="6" fill="#5A5481"/>
<rect x="18" y="24" width="6" height="6" fill="#474747"/>
<rect x="18" y="30" width="6" height="6" fill="#474747"/>
<rect x="18" y="72" width="6" height="6" fill="#474747"/>
<rect x="18" y="78" width="6" height="6" fill="#474747"/>
<rect x="36" y="6" width="6" height="6" fill="#474747"/>
<rect x="42" y="6" width="6" height="6" fill="#474747"/>
<rect x="30" y="12" width="6" height="6" fill="#474747"/>
<rect x="24" y="18" width="6" height="6" fill="#474747"/>
<rect x="48" width="6" height="6" fill="#474747"/>
<rect x="54" width="6" height="6" fill="#474747"/>
<rect x="60" width="6" height="6" fill="#474747"/>
<rect x="66" width="6" height="6" fill="#474747"/>
<rect x="24" y="84" width="6" height="6" fill="#474747"/>
<rect x="30" y="90" width="6" height="6" fill="#474747"/>
<rect x="36" y="96" width="6" height="6" fill="#474747"/>
<rect x="42" y="102" width="6" height="6" fill="#474747"/>
<rect x="48" y="102" width="6" height="6" fill="#474747"/>
<rect x="54" y="102" width="6" height="6" fill="#474747"/>
<rect x="60" y="102" width="6" height="6" fill="#474747"/>
<rect x="66" y="102" width="6" height="6" fill="#474747"/>
<rect x="72" width="6" height="6" fill="#474747"/>
<rect x="78" y="6" width="6" height="6" fill="#474747"/>
<rect x="84" y="6" width="6" height="6" fill="#474747"/>
<rect x="90" y="12" width="6" height="6" fill="#474747"/>
<rect x="96" y="18" width="6" height="6" fill="#474747"/>
<rect x="102" y="24" width="6" height="6" fill="#474747"/>
<rect x="102" y="30" width="6" height="6" fill="#474747"/>
<rect x="108" y="36" width="6" height="6" fill="#474747"/>
<rect x="108" y="42" width="6" height="6" fill="#474747"/>
<rect x="108" y="48" width="6" height="6" fill="#474747"/>
<rect x="108" y="54" width="6" height="6" fill="#474747"/>
<rect x="108" y="60" width="6" height="6" fill="#474747"/>
<rect x="108" y="66" width="6" height="6" fill="#474747"/>
<rect x="90" y="84" width="6" height="6" fill="#474747"/>
<rect x="84" y="90" width="6" height="6" fill="#474747"/>
<rect x="72" y="96" width="6" height="6" fill="#474747"/>
<rect x="78" y="96" width="6" height="6" fill="#474747"/>
<rect x="102" y="72" width="6" height="6" fill="#474747"/>
<rect x="96" y="78" width="6" height="6" fill="#474747"/>
<rect x="12" y="36" width="6" height="6" fill="#474747"/>
<rect x="12" y="42" width="6" height="6" fill="#474747"/>
<rect x="12" y="48" width="6" height="6" fill="#474747"/>
<rect x="12" y="54" width="6" height="6" fill="#474747"/>
<rect x="12" y="60" width="6" height="6" fill="#474747"/>
<rect x="12" y="66" width="6" height="6" fill="#474747"/>
<rect x="48" y="186" width="6" height="6" fill="#555C62"/>
<rect x="78" y="186" width="6" height="6" fill="#555C62"/>
<rect x="84" y="186" width="6" height="6" fill="#555C62"/>
<rect x="42" y="144" width="6" height="6" fill="#555C62"/>
<rect x="48" y="144" width="6" height="6" fill="#555C62"/>
<rect x="54" y="144" width="6" height="6" fill="#555C62"/>
<rect x="60" y="144" width="6" height="6" fill="#555C62"/>
<rect x="66" y="144" width="6" height="6" fill="#555C62"/>
<rect x="48" y="150" width="6" height="6" fill="#555C62"/>
<rect x="60" y="150" width="6" height="6" fill="#555C62"/>
<rect x="78" y="138" width="6" height="6" fill="#555C62"/>
<rect x="84" y="138" width="6" height="6" fill="#555C62"/>
<rect x="90" y="138" width="6" height="6" fill="#555C62"/>
<rect x="72" y="144" width="6" height="6" fill="#555C62"/>
<rect x="78" y="144" width="6" height="6" fill="#555C62"/>
<rect x="84" y="144" width="6" height="6" fill="#555C62"/>
<rect x="72" y="150" width="6" height="6" fill="#555C62"/>
<rect x="78" y="150" width="6" height="6" fill="#555C62"/>
<rect x="90" y="180" width="6" height="6" fill="#C4C4C4" fill-opacity="0.05"/>
<rect x="48" y="180" width="6" height="6" fill="#2C3537"/>
<rect x="54" y="180" width="6" height="6" fill="#2C3537"/>
<rect x="54" y="186" width="6" height="6" fill="#2C3537"/>
<rect x="48" y="192" width="6" height="6" fill="#2C3537"/>
<rect x="54" y="192" width="6" height="6" fill="#2C3537"/>
<rect x="78" y="180" width="6" height="6" fill="#2C3537"/>
<rect x="84" y="180" width="6" height="6" fill="#2C3537"/>
<rect x="90" y="180" width="6" height="6" fill="#2C3537"/>
<rect x="90" y="186" width="6" height="6" fill="#2C3537"/>
<rect x="78" y="192" width="6" height="6" fill="#2C3537"/>
<rect x="84" y="192" width="6" height="6" fill="#2C3537"/>
<rect x="90" y="192" width="6" height="6" fill="#2C3537"/>
<rect x="84" y="174" width="6" height="6" fill="#2C3537"/>
<rect x="90" y="174" width="6" height="6" fill="#2C3537"/>
<rect x="54" y="222" width="6" height="6" fill="#FC8FEB"/>
<rect x="84" y="234" width="6" height="6" fill="#FC8FEB"/>
<rect x="90" y="234" width="6" height="6" fill="#FC8FEB"/>
<rect x="42" y="138" width="6" height="6" fill="#2C3537"/>
<rect x="48" y="138" width="6" height="6" fill="#2C3537"/>
<rect x="54" y="138" width="6" height="6" fill="#2C3537"/>
<rect x="60" y="138" width="6" height="6" fill="#2C3537"/>
<rect x="66" y="138" width="6" height="6" fill="#2C3537"/>
<rect x="54" y="150" width="6" height="6" fill="#96A6FC"/>
<rect x="66" y="150" width="6" height="6" fill="#96A6FC"/>
<rect x="114" y="96" width="6" height="6" fill="#5BEC89"/>
<rect x="30" y="96" width="6" height="6" fill="#13387E"/>
<rect x="30" y="102" width="6" height="6" fill="#13387E"/>
<rect x="36" y="102" width="6" height="6" fill="#13387E"/>
<rect x="36" y="108" width="6" height="6" fill="#13387E"/>
<rect x="42" y="108" width="6" height="6" fill="#13387E"/>
<rect x="48" y="108" width="6" height="6" fill="#13387E"/>
<rect x="54" y="108" width="6" height="6" fill="#13387E"/>
<rect x="60" y="108" width="6" height="6" fill="#13387E"/>
<rect x="66" y="108" width="6" height="6" fill="#13387E"/>
<rect x="90" y="90" width="6" height="6" fill="#13387E"/>
<rect x="84" y="96" width="6" height="6" fill="#13387E"/>
<rect x="90" y="96" width="6" height="6" fill="#13387E"/>
<rect x="72" y="102" width="6" height="6" fill="#13387E"/>
<rect x="78" y="102" width="6" height="6" fill="#13387E"/>
<rect x="84" y="102" width="6" height="6" fill="#13387E"/>
<rect x="102" y="78" width="6" height="6" fill="#13387E"/>
<rect x="96" y="84" width="6" height="6" fill="#13387E"/>
<rect x="102" y="84" width="6" height="6" fill="#13387E"/>
<rect x="96" y="90" width="6" height="6" fill="#13387E"/>
<rect x="72" y="108" width="6" height="6" fill="#13387E"/>
<rect x="36" y="120" width="6" height="6" fill="#E9E65E"/>
<rect x="48" y="120" width="6" height="6" fill="#E9E65E"/>
<rect x="54" y="120" width="6" height="6" fill="#E9E65E"/>
<rect x="72" y="120" width="6" height="6" fill="#E9E65E"/>
<rect x="72" y="138" width="6" height="6" fill="#2C3537"/>
<rect x="60" y="198" width="6" height="6" fill="#3B64CD"/>
<rect x="48" y="204" width="6" height="6" fill="#3B64CD"/>
<rect x="42" y="240" width="6" height="6" fill="#3B64CD"/>
<rect x="36" y="246" width="6" height="6" fill="#3B64CD"/>
<rect x="42" y="246" width="6" height="6" fill="#3B64CD"/>
<rect x="54" y="216" width="6" height="6" fill="#3B64CD"/>
<rect x="60" y="216" width="6" height="6" fill="#3B64CD"/>
<rect x="60" y="222" width="6" height="6" fill="#3B64CD"/>
<rect x="54" y="228" width="6" height="6" fill="#3B64CD"/>
<rect x="60" y="228" width="6" height="6" fill="#3B64CD"/>
<rect x="60" y="234" width="6" height="6" fill="#3B64CD"/>
<rect x="48" y="246" width="6" height="6" fill="#3B64CD"/>
<rect x="36" y="252" width="6" height="6" fill="#3B64CD"/>
<rect x="42" y="252" width="6" height="6" fill="#3B64CD"/>
<rect x="48" y="252" width="6" height="6" fill="#3B64CD"/>
<rect x="54" y="252" width="6" height="6" fill="#3B64CD"/>
<rect x="84" y="204" width="6" height="6" fill="#3B64CD"/>
<rect x="90" y="204" width="6" height="6" fill="#3B64CD"/>
<rect x="84" y="210" width="6" height="6" fill="#3B64CD"/>
<rect x="84" y="222" width="6" height="6" fill="#3B64CD"/>
<rect x="90" y="222" width="6" height="6" fill="#3B64CD"/>
<rect x="84" y="228" width="6" height="6" fill="#3B64CD"/>
<rect x="90" y="228" width="6" height="6" fill="#3B64CD"/>
<rect x="84" y="240" width="6" height="6" fill="#3B64CD"/>
<rect x="90" y="240" width="6" height="6" fill="#3B64CD"/>
<rect x="84" y="246" width="6" height="6" fill="#3B64CD"/>
<rect x="90" y="246" width="6" height="6" fill="#3B64CD"/>
<rect x="96" y="228" width="6" height="6" fill="#3B64CD"/>
<rect x="96" y="234" width="6" height="6" fill="#3B64CD"/>
<rect x="96" y="240" width="6" height="6" fill="#3B64CD"/>
<rect x="96" y="246" width="6" height="6" fill="#3B64CD"/>
<rect x="78" y="270" width="6" height="6" fill="#3B64CD"/>
<rect x="84" y="270" width="6" height="6" fill="#3B64CD"/>
<rect x="90" y="270" width="6" height="6" fill="#3B64CD"/>
<rect x="72" y="276" width="6" height="6" fill="#3B64CD"/>
<rect x="78" y="276" width="6" height="6" fill="#3B64CD"/>
<rect x="84" y="276" width="6" height="6" fill="#3B64CD"/>
<rect x="90" y="276" width="6" height="6" fill="#3B64CD"/>
<rect x="96" y="270" width="6" height="6" fill="#3B64CD"/>
<rect x="48" y="168" width="6" height="6" fill="#3B64CD"/>
<rect x="54" y="168" width="6" height="6" fill="#3B64CD"/>
<rect x="60" y="168" width="6" height="6" fill="#3B64CD"/>
<rect x="66" y="168" width="6" height="6" fill="#3B64CD"/>
<rect x="72" y="168" width="6" height="6" fill="#3B64CD"/>
<rect x="54" y="204" width="6" height="6" fill="#13387E"/>
<rect x="60" y="204" width="6" height="6" fill="#13387E"/>
<rect x="66" y="210" width="6" height="6" fill="#13387E"/>
<rect x="66" y="216" width="6" height="6" fill="#13387E"/>
<rect x="66" y="222" width="6" height="6" fill="#13387E"/>
<rect x="66" y="228" width="6" height="6" fill="#13387E"/>
<rect x="48" y="234" width="6" height="6" fill="#13387E"/>
<rect x="66" y="234" width="6" height="6" fill="#13387E"/>
<rect x="48" y="240" width="6" height="6" fill="#13387E"/>
<rect x="54" y="240" width="6" height="6" fill="#13387E"/>
<rect x="54" y="246" width="6" height="6" fill="#13387E"/>
<rect x="60" y="246" width="6" height="6" fill="#13387E"/>
<rect x="66" y="246" width="6" height="6" fill="#13387E"/>
<rect x="60" y="252" width="6" height="6" fill="#13387E"/>
<rect x="66" y="252" width="6" height="6" fill="#13387E"/>
<rect x="90" y="210" width="6" height="6" fill="#13387E"/>
<rect x="96" y="204" width="6" height="6" fill="#13387E"/>
<rect x="96" y="210" width="6" height="6" fill="#13387E"/>
<rect x="72" y="234" width="6" height="6" fill="#13387E"/>
<rect x="72" y="240" width="6" height="6" fill="#13387E"/>
<rect x="96" y="222" width="6" height="6" fill="#13387E"/>
<rect x="102" y="222" width="6" height="6" fill="#13387E"/>
<rect x="102" y="228" width="6" height="6" fill="#13387E"/>
<rect x="102" y="234" width="6" height="6" fill="#13387E"/>
<rect x="108" y="234" width="6" height="6" fill="#13387E"/>
<rect x="102" y="240" width="6" height="6" fill="#13387E"/>
<rect x="108" y="240" width="6" height="6" fill="#13387E"/>
<rect x="102" y="246" width="6" height="6" fill="#13387E"/>
<rect x="108" y="246" width="6" height="6" fill="#13387E"/>
<rect x="72" y="252" width="6" height="6" fill="#13387E"/>
<rect x="84" y="258" width="6" height="6" fill="#13387E"/>
<rect x="90" y="258" width="6" height="6" fill="#13387E"/>
<rect x="84" y="264" width="6" height="6" fill="#13387E"/>
<rect x="90" y="264" width="6" height="6" fill="#13387E"/>
<rect x="96" y="258" width="6" height="6" fill="#13387E"/>
<rect x="102" y="258" width="6" height="6" fill="#13387E"/>
<rect x="108" y="258" width="6" height="6" fill="#13387E"/>
<rect x="96" y="264" width="6" height="6" fill="#13387E"/>
<rect x="102" y="264" width="6" height="6" fill="#13387E"/>
<rect x="108" y="264" width="6" height="6" fill="#13387E"/>
<rect x="102" y="270" width="6" height="6" fill="#13387E"/>
<rect x="108" y="270" width="6" height="6" fill="#13387E"/>
<rect x="96" y="276" width="6" height="6" fill="#13387E"/>
<rect x="60" y="174" width="6" height="6" fill="#13387E"/>
<rect x="66" y="174" width="6" height="6" fill="#13387E"/>
<rect x="84" y="162" width="6" height="6" fill="#13387E"/>
<rect x="90" y="162" width="6" height="6" fill="#13387E"/>
<rect x="78" y="168" width="6" height="6" fill="#13387E"/>
<rect x="96" y="156" width="6" height="6" fill="#13387E"/>
<rect x="96" y="162" width="6" height="6" fill="#13387E"/>
<rect x="96" y="168" width="6" height="6" fill="#13387E"/>
<rect x="42" y="180" width="6" height="6" fill="#474747"/>
<rect x="42" y="186" width="6" height="6" fill="#474747"/>
<rect x="42" y="192" width="6" height="6" fill="#474747"/>
<rect x="42" y="198" width="6" height="6" fill="#474747"/>
<rect x="42" y="204" width="6" height="6" fill="#474747"/>
<rect x="60" y="180" width="6" height="6" fill="#474747"/>
<rect x="66" y="180" width="6" height="6" fill="#474747"/>
<rect x="60" y="186" width="6" height="6" fill="#474747"/>
<rect x="60" y="192" width="6" height="6" fill="#474747"/>
<rect x="48" y="198" width="6" height="6" fill="#474747"/>
<rect x="54" y="198" width="6" height="6" fill="#474747"/>
<rect x="66" y="198" width="6" height="6" fill="#474747"/>
<rect x="66" y="204" width="6" height="6" fill="#474747"/>
<rect x="48" y="210" width="6" height="6" fill="#474747"/>
<rect x="54" y="210" width="6" height="6" fill="#474747"/>
<rect x="60" y="210" width="6" height="6" fill="#474747"/>
<rect x="42" y="234" width="6" height="6" fill="#474747"/>
<rect x="36" y="240" width="6" height="6" fill="#474747"/>
<rect x="30" y="246" width="6" height="6" fill="#474747"/>
<rect x="48" y="216" width="6" height="6" fill="#474747"/>
<rect x="48" y="222" width="6" height="6" fill="#474747"/>
<rect x="48" y="228" width="6" height="6" fill="#474747"/>
<rect x="54" y="234" width="6" height="6" fill="#474747"/>
<rect x="60" y="240" width="6" height="6" fill="#474747"/>
<rect x="66" y="240" width="6" height="6" fill="#474747"/>
<rect x="30" y="252" width="6" height="6" fill="#474747"/>
<rect x="36" y="258" width="6" height="6" fill="#474747"/>
<rect x="42" y="258" width="6" height="6" fill="#474747"/>
<rect x="48" y="258" width="6" height="6" fill="#474747"/>
<rect x="54" y="258" width="6" height="6" fill="#474747"/>
<rect x="60" y="258" width="6" height="6" fill="#474747"/>
<rect x="66" y="258" width="6" height="6" fill="#474747"/>
<rect x="66" y="270" width="6" height="6" fill="#474747"/>
<rect x="66" y="276" width="6" height="6" fill="#474747"/>
<rect x="66" y="282" width="6" height="6" fill="#474747"/>
<rect x="72" y="180" width="6" height="6" fill="#474747"/>
<rect x="72" y="186" width="6" height="6" fill="#474747"/>
<rect x="72" y="192" width="6" height="6" fill="#474747"/>
<rect x="78" y="198" width="6" height="6" fill="#474747"/>
<rect x="84" y="198" width="6" height="6" fill="#474747"/>
<rect x="90" y="198" width="6" height="6" fill="#474747"/>
<rect x="78" y="204" width="6" height="6" fill="#474747"/>
<rect x="72" y="210" width="6" height="6" fill="#474747"/>
<rect x="78" y="210" width="6" height="6" fill="#474747"/>
<rect x="96" y="180" width="6" height="6" fill="#474747"/>
<rect x="96" y="186" width="6" height="6" fill="#474747"/>
<rect x="96" y="192" width="6" height="6" fill="#474747"/>
<rect x="96" y="198" width="6" height="6" fill="#474747"/>
<rect x="102" y="204" width="6" height="6" fill="#474747"/>
<rect x="102" y="210" width="6" height="6" fill="#474747"/>
<rect x="72" y="216" width="6" height="6" fill="#474747"/>
<rect x="78" y="216" width="6" height="6" fill="#474747"/>
<rect x="84" y="216" width="6" height="6" fill="#474747"/>
<rect x="90" y="216" width="6" height="6" fill="#474747"/>
<rect x="72" y="222" width="6" height="6" fill="#474747"/>
<rect x="78" y="222" width="6" height="6" fill="#474747"/>
<rect x="72" y="228" width="6" height="6" fill="#474747"/>
<rect x="78" y="228" width="6" height="6" fill="#474747"/>
<rect x="78" y="234" width="6" height="6" fill="#474747"/>
<rect x="78" y="240" width="6" height="6" fill="#474747"/>
<rect x="72" y="246" width="6" height="6" fill="#474747"/>
<rect x="78" y="246" width="6" height="6" fill="#474747"/>
<rect x="96" y="216" width="6" height="6" fill="#474747"/>
<rect x="102" y="216" width="6" height="6" fill="#474747"/>
<rect x="108" y="222" width="6" height="6" fill="#474747"/>
<rect x="108" y="228" width="6" height="6" fill="#474747"/>
<rect x="114" y="234" width="6" height="6" fill="#474747"/>
<rect x="114" y="240" width="6" height="6" fill="#474747"/>
<rect x="114" y="246" width="6" height="6" fill="#474747"/>
<rect x="78" y="252" width="6" height="6" fill="#474747"/>
<rect x="84" y="252" width="6" height="6" fill="#474747"/>
<rect x="90" y="252" width="6" height="6" fill="#474747"/>
<rect x="72" y="258" width="6" height="6" fill="#474747"/>
<rect x="78" y="258" width="6" height="6" fill="#474747"/>
<rect x="72" y="264" width="6" height="6" fill="#474747"/>
<rect x="72" y="282" width="6" height="6" fill="#474747"/>
<rect x="78" y="282" width="6" height="6" fill="#474747"/>
<rect x="84" y="282" width="6" height="6" fill="#474747"/>
<rect x="90" y="282" width="6" height="6" fill="#474747"/>
<rect x="96" y="252" width="6" height="6" fill="#474747"/>
<rect x="102" y="252" width="6" height="6" fill="#474747"/>
<rect x="108" y="252" width="6" height="6" fill="#474747"/>
<rect x="114" y="258" width="6" height="6" fill="#474747"/>
<rect x="114" y="264" width="6" height="6" fill="#474747"/>
<rect x="114" y="270" width="6" height="6" fill="#474747"/>
<rect x="102" y="276" width="6" height="6" fill="#474747"/>
<rect x="108" y="276" width="6" height="6" fill="#474747"/>
<rect x="96" y="282" width="6" height="6" fill="#474747"/>
<rect x="42" y="168" width="6" height="6" fill="#474747"/>
<rect x="42" y="174" width="6" height="6" fill="#474747"/>
<rect x="48" y="174" width="6" height="6" fill="#474747"/>
<rect x="54" y="174" width="6" height="6" fill="#474747"/>
<rect x="84" y="168" width="6" height="6" fill="#474747"/>
<rect x="90" y="168" width="6" height="6" fill="#474747"/>
<rect x="72" y="174" width="6" height="6" fill="#474747"/>
<rect x="78" y="174" width="6" height="6" fill="#474747"/>
<rect x="102" y="156" width="6" height="6" fill="#474747"/>
<rect x="102" y="162" width="6" height="6" fill="#474747"/>
<rect x="102" y="168" width="6" height="6" fill="#474747"/>
<rect x="96" y="174" width="6" height="6" fill="#474747"/>
<rect x="30" y="108" width="6" height="6" fill="#3B64CD"/>
<rect x="30" y="114" width="6" height="6" fill="#3B64CD"/>
<rect x="36" y="114" width="6" height="6" fill="#3B64CD"/>
<rect x="42" y="114" width="6" height="6" fill="#3B64CD"/>
<rect x="30" y="120" width="6" height="6" fill="#3B64CD"/>
<rect x="42" y="120" width="6" height="6" fill="#3B64CD"/>
<rect x="30" y="126" width="6" height="6" fill="#3B64CD"/>
<rect x="36" y="126" width="6" height="6" fill="#3B64CD"/>
<rect x="48" y="114" width="6" height="6" fill="#3B64CD"/>
<rect x="54" y="114" width="6" height="6" fill="#3B64CD"/>
<rect x="60" y="114" width="6" height="6" fill="#3B64CD"/>
<rect x="66" y="114" width="6" height="6" fill="#3B64CD"/>
<rect x="60" y="120" width="6" height="6" fill="#3B64CD"/>
<rect x="66" y="120" width="6" height="6" fill="#3B64CD"/>
<rect x="48" y="126" width="6" height="6" fill="#3B64CD"/>
<rect x="54" y="126" width="6" height="6" fill="#3B64CD"/>
<rect x="60" y="126" width="6" height="6" fill="#3B64CD"/>
<rect x="66" y="126" width="6" height="6" fill="#3B64CD"/>
<rect x="90" y="102" width="6" height="6" fill="#3B64CD"/>
<rect x="108" y="90" width="6" height="6" fill="#3B64CD"/>
<rect x="114" y="90" width="6" height="6" fill="#3B64CD"/>
<rect x="96" y="96" width="6" height="6" fill="#3B64CD"/>
<rect x="108" y="96" width="6" height="6" fill="#3B64CD"/>
<rect x="114" y="102" width="6" height="6" fill="#3B64CD"/>
<rect x="78" y="108" width="6" height="6" fill="#3B64CD"/>
<rect x="84" y="108" width="6" height="6" fill="#3B64CD"/>
<rect x="90" y="108" width="6" height="6" fill="#3B64CD"/>
<rect x="72" y="114" width="6" height="6" fill="#3B64CD"/>
<rect x="78" y="114" width="6" height="6" fill="#3B64CD"/>
<rect x="78" y="120" width="6" height="6" fill="#3B64CD"/>
<rect x="84" y="120" width="6" height="6" fill="#3B64CD"/>
<rect x="72" y="126" width="6" height="6" fill="#3B64CD"/>
<rect x="78" y="126" width="6" height="6" fill="#3B64CD"/>
<rect x="120" y="90" width="6" height="6" fill="#3B64CD"/>
<rect x="120" y="96" width="6" height="6" fill="#3B64CD"/>
<rect x="126" y="96" width="6" height="6" fill="#3B64CD"/>
<rect x="120" y="102" width="6" height="6" fill="#3B64CD"/>
<rect x="102" y="102" width="6" height="6" fill="#13387E"/>
<rect x="108" y="102" width="6" height="6" fill="#13387E"/>
<rect x="102" y="108" width="6" height="6" fill="#13387E"/>
<rect x="114" y="108" width="6" height="6" fill="#13387E"/>
<rect x="126" y="102" width="6" height="6" fill="#13387E"/>
<rect x="120" y="108" width="6" height="6" fill="#13387E"/>
<rect x="126" y="108" width="6" height="6" fill="#13387E"/>
<rect x="42" y="150" width="6" height="6" fill="#2C3537"/>
<rect x="48" y="156" width="6" height="6" fill="#2C3537"/>
<rect x="54" y="156" width="6" height="6" fill="#2C3537"/>
<rect x="60" y="156" width="6" height="6" fill="#2C3537"/>
<rect x="66" y="156" width="6" height="6" fill="#2C3537"/>
<rect x="90" y="126" width="6" height="6" fill="#2C3537"/>
<rect x="84" y="132" width="6" height="6" fill="#2C3537"/>
<rect x="90" y="132" width="6" height="6" fill="#2C3537"/>
<rect x="96" y="114" width="6" height="6" fill="#2C3537"/>
<rect x="96" y="120" width="6" height="6" fill="#2C3537"/>
<rect x="102" y="120" width="6" height="6" fill="#2C3537"/>
<rect x="114" y="120" width="6" height="6" fill="#2C3537"/>
<rect x="96" y="126" width="6" height="6" fill="#2C3537"/>
<rect x="102" y="126" width="6" height="6" fill="#2C3537"/>
<rect x="96" y="132" width="6" height="6" fill="#2C3537"/>
<rect x="102" y="132" width="6" height="6" fill="#2C3537"/>
<rect x="96" y="138" width="6" height="6" fill="#2C3537"/>
<rect x="102" y="138" width="6" height="6" fill="#2C3537"/>
<rect x="90" y="144" width="6" height="6" fill="#2C3537"/>
<rect x="84" y="150" width="6" height="6" fill="#2C3537"/>
<rect x="90" y="150" width="6" height="6" fill="#2C3537"/>
<rect x="72" y="156" width="6" height="6" fill="#2C3537"/>
<rect x="78" y="156" width="6" height="6" fill="#2C3537"/>
<rect x="96" y="144" width="6" height="6" fill="#2C3537"/>
<rect x="120" y="120" width="6" height="6" fill="#2C3537"/>
<rect x="120" y="126" width="6" height="6" fill="#555C62"/>
<rect x="114" y="126" width="6" height="6" fill="#474747"/>
<rect x="126" y="120" width="6" height="6" fill="#2C3537"/>
<rect x="126" y="126" width="6" height="6" fill="#2C3537"/>
<rect x="132" y="126" width="6" height="6" fill="#2C3537"/>
<rect x="126" y="132" width="6" height="6" fill="#2C3537"/>
<rect x="114" y="186" width="6" height="6" fill="#3B64CD"/>
<rect x="120" y="186" width="6" height="6" fill="#3B64CD"/>
<rect x="132" y="138" width="6" height="6" fill="#3B64CD"/>
<rect x="138" y="138" width="6" height="6" fill="#3B64CD"/>
<rect x="138" y="144" width="6" height="6" fill="#3B64CD"/>
<rect x="120" y="156" width="6" height="6" fill="#3B64CD"/>
<rect x="126" y="156" width="6" height="6" fill="#3B64CD"/>
<rect x="120" y="162" width="6" height="6" fill="#3B64CD"/>
<rect x="126" y="162" width="6" height="6" fill="#3B64CD"/>
<rect x="120" y="168" width="6" height="6" fill="#3B64CD"/>
<rect x="114" y="192" width="6" height="6" fill="#13387E"/>
<rect x="126" y="180" width="6" height="6" fill="#13387E"/>
<rect x="120" y="192" width="6" height="6" fill="#13387E"/>
<rect x="132" y="144" width="6" height="6" fill="#13387E"/>
<rect x="138" y="150" width="6" height="6" fill="#13387E"/>
<rect x="132" y="156" width="6" height="6" fill="#13387E"/>
<rect x="132" y="162" width="6" height="6" fill="#13387E"/>
<rect x="126" y="168" width="6" height="6" fill="#13387E"/>
<rect x="126" y="174" width="6" height="6" fill="#13387E"/>
<rect x="108" y="186" width="6" height="6" fill="#474747"/>
<rect x="108" y="192" width="6" height="6" fill="#474747"/>
<rect x="114" y="198" width="6" height="6" fill="#474747"/>
<rect x="120" y="180" width="6" height="6" fill="#474747"/>
<rect x="132" y="180" width="6" height="6" fill="#474747"/>
<rect x="126" y="186" width="6" height="6" fill="#474747"/>
<rect x="126" y="192" width="6" height="6" fill="#474747"/>
<rect x="120" y="198" width="6" height="6" fill="#474747"/>
<rect x="126" y="198" width="6" height="6" fill="#474747"/>
<rect x="114" y="150" width="6" height="6" fill="#474747"/>
<rect x="126" y="150" width="6" height="6" fill="#474747"/>
<rect x="132" y="150" width="6" height="6" fill="#474747"/>
<rect x="138" y="156" width="6" height="6" fill="#474747"/>
<rect x="138" y="162" width="6" height="6" fill="#474747"/>
<rect x="132" y="168" width="6" height="6" fill="#474747"/>
<rect x="120" y="174" width="6" height="6" fill="#474747"/>
<rect x="132" y="174" width="6" height="6" fill="#474747"/>
<rect x="30" y="132" width="6" height="6" fill="#474747"/>
<rect x="36" y="132" width="6" height="6" fill="#474747"/>
<rect x="42" y="132" width="6" height="6" fill="#474747"/>
<rect x="36" y="138" width="6" height="6" fill="#474747"/>
<rect x="48" y="132" width="6" height="6" fill="#474747"/>
<rect x="54" y="132" width="6" height="6" fill="#474747"/>
<rect x="60" y="132" width="6" height="6" fill="#474747"/>
<rect x="66" y="132" width="6" height="6" fill="#474747"/>
<rect x="36" y="144" width="6" height="6" fill="#474747"/>
<rect x="36" y="150" width="6" height="6" fill="#474747"/>
<rect x="42" y="156" width="6" height="6" fill="#474747"/>
<rect x="48" y="162" width="6" height="6" fill="#474747"/>
<rect x="54" y="162" width="6" height="6" fill="#474747"/>
<rect x="60" y="162" width="6" height="6" fill="#474747"/>
<rect x="66" y="162" width="6" height="6" fill="#474747"/>
<rect x="108" y="78" width="6" height="6" fill="#474747"/>
<rect x="108" y="84" width="6" height="6" fill="#474747"/>
<rect x="114" y="84" width="6" height="6" fill="#474747"/>
<rect x="102" y="90" width="6" height="6" fill="#474747"/>
<rect x="102" y="96" width="6" height="6" fill="#474747"/>
<rect x="96" y="102" width="6" height="6" fill="#474747"/>
<rect x="90" y="114" width="6" height="6" fill="#474747"/>
<rect x="90" y="120" width="6" height="6" fill="#474747"/>
<rect x="84" y="126" width="6" height="6" fill="#474747"/>
<rect x="72" y="132" width="6" height="6" fill="#474747"/>
<rect x="78" y="132" width="6" height="6" fill="#474747"/>
<rect x="96" y="108" width="6" height="6" fill="#474747"/>
<rect x="102" y="114" width="6" height="6" fill="#474747"/>
<rect x="108" y="114" width="6" height="6" fill="#474747"/>
<rect x="114" y="114" width="6" height="6" fill="#474747"/>
<rect x="108" y="120" width="6" height="6" fill="#474747"/>
<rect x="108" y="126" width="6" height="6" fill="#474747"/>
<rect x="108" y="132" width="6" height="6" fill="#474747"/>
<rect x="108" y="138" width="6" height="6" fill="#474747"/>
<rect x="84" y="156" width="6" height="6" fill="#474747"/>
<rect x="90" y="156" width="6" height="6" fill="#474747"/>
<rect x="72" y="162" width="6" height="6" fill="#474747"/>
<rect x="78" y="162" width="6" height="6" fill="#474747"/>
<rect x="102" y="144" width="6" height="6" fill="#474747"/>
<rect x="96" y="150" width="6" height="6" fill="#474747"/>
<rect x="114" y="156" width="6" height="6" fill="#474747"/>
<rect x="114" y="162" width="6" height="6" fill="#474747"/>
<rect x="114" y="168" width="6" height="6" fill="#474747"/>
<rect x="114" y="174" width="6" height="6" fill="#474747"/>
<rect x="120" y="84" width="6" height="6" fill="#474747"/>
<rect x="126" y="90" width="6" height="6" fill="#474747"/>
<rect x="132" y="96" width="6" height="6" fill="#474747"/>
<rect x="132" y="102" width="6" height="6" fill="#474747"/>
<rect x="132" y="108" width="6" height="6" fill="#474747"/>
<rect x="120" y="114" width="6" height="6" fill="#474747"/>
<rect x="126" y="114" width="6" height="6" fill="#474747"/>
<rect x="132" y="120" width="6" height="6" fill="#474747"/>
<rect x="138" y="126" width="6" height="6" fill="#474747"/>
<rect x="120" y="132" width="6" height="6" fill="#474747"/>
<rect x="132" y="132" width="6" height="6" fill="#474747"/>
<rect x="138" y="132" width="6" height="6" fill="#474747"/>
<rect x="120" y="138" width="6" height="6" fill="#474747"/>
<rect x="126" y="138" width="6" height="6" fill="#474747"/>
<rect x="144" y="132" width="6" height="6" fill="#474747"/>
<rect x="144" y="138" width="6" height="6" fill="#474747"/>
<rect x="120" y="144" width="6" height="6" fill="#474747"/>
<rect x="126" y="144" width="6" height="6" fill="#13387E"/>
<rect x="120" y="150" width="6" height="6" fill="#474747"/>
<rect x="144" y="144" width="6" height="6" fill="#474747"/>
<rect x="144" y="150" width="6" height="6" fill="#474747"/>
<rect x="18" y="102" width="6" height="6" fill="#5EE88A"/>
<rect x="18" y="126" width="6" height="6" fill="#363544"/>
<rect x="18" y="132" width="6" height="6" fill="#555C62"/>
<rect x="24" y="90" width="6" height="6" fill="#3B64CD"/>
<rect x="24" y="132" width="6" height="6" fill="#363544"/>
<rect x="18" y="180" width="6" height="6" fill="#474747"/>
<rect x="18" y="198" width="6" height="6" fill="#474747"/>
<rect x="24" y="186" width="6" height="6" fill="#474747"/>
<rect x="24" y="192" width="6" height="6" fill="#474747"/>
<rect x="18" y="90" width="6" height="6" fill="#474747"/>
<rect x="18" y="120" width="6" height="6" fill="#474747"/>
<rect x="18" y="138" width="6" height="6" fill="#474747"/>
<rect x="18" y="150" width="6" height="6" fill="#474747"/>
<rect x="18" y="156" width="6" height="6" fill="#474747"/>
<rect x="18" y="162" width="6" height="6" fill="#474747"/>
<rect x="18" y="174" width="6" height="6" fill="#474747"/>
<rect x="24" y="96" width="6" height="6" fill="#474747"/>
<rect x="24" y="102" width="6" height="6" fill="#474747"/>
<rect x="24" y="108" width="6" height="6" fill="#474747"/>
<rect x="24" y="114" width="6" height="6" fill="#474747"/>
<rect x="24" y="120" width="6" height="6" fill="#474747"/>
<rect x="24" y="126" width="6" height="6" fill="#474747"/>
<rect x="24" y="138" width="6" height="6" fill="#474747"/>
<rect x="24" y="144" width="6" height="6" fill="#474747"/>
<rect x="24" y="150" width="6" height="6" fill="#474747"/>
<rect y="180" width="6" height="6" fill="#474747"/>
<rect x="6" y="180" width="6" height="6" fill="#474747"/>
<rect x="6" y="186" width="6" height="6" fill="#474747"/>
<rect x="6" y="192" width="6" height="6" fill="#474747"/>
<rect x="6" y="198" width="6" height="6" fill="#474747"/>
<rect x="12" y="198" width="6" height="6" fill="#474747"/>
<rect x="12" y="96" width="6" height="6" fill="#474747"/>
<rect x="6" y="102" width="6" height="6" fill="#474747"/>
<rect x="6" y="108" width="6" height="6" fill="#474747"/>
<rect x="6" y="114" width="6" height="6" fill="#474747"/>
<rect x="12" y="120" width="6" height="6" fill="#474747"/>
<rect x="12" y="126" width="6" height="6" fill="#474747"/>
<rect x="6" y="132" width="6" height="6" fill="#474747"/>
<rect x="12" y="132" width="6" height="6" fill="#474747"/>
<rect y="138" width="6" height="6" fill="#474747"/>
<rect y="144" width="6" height="6" fill="#474747"/>
<rect y="150" width="6" height="6" fill="#474747"/>
<rect x="6" y="150" width="6" height="6" fill="#474747"/>
<rect x="12" y="150" width="6" height="6" fill="#474747"/>
<rect y="156" width="6" height="6" fill="#474747"/>
<rect y="162" width="6" height="6" fill="#474747"/>
<rect y="168" width="6" height="6" fill="#474747"/>
<rect x="12" y="168" width="6" height="6" fill="#474747"/>
<rect y="174" width="6" height="6" fill="#474747"/>
<rect x="12" y="174" width="6" height="6" fill="#474747"/>
<rect x="18" y="96" width="6" height="6" fill="#3B64CD"/>
<rect x="12" y="180" width="6" height="6" fill="#3B64CD"/>
<rect x="12" y="186" width="6" height="6" fill="#3B64CD"/>
<rect x="12" y="192" width="6" height="6" fill="#3B64CD"/>
<rect x="12" y="102" width="6" height="6" fill="#3B64CD"/>
<rect x="12" y="108" width="6" height="6" fill="#3B64CD"/>
<rect x="6" y="138" width="6" height="6" fill="#3B64CD"/>
<rect x="12" y="138" width="6" height="6" fill="#3B64CD"/>
<rect x="6" y="144" width="6" height="6" fill="#3B64CD"/>
<rect x="6" y="162" width="6" height="6" fill="#3B64CD"/>
<rect x="6" y="168" width="6" height="6" fill="#3B64CD"/>
<rect x="6" y="174" width="6" height="6" fill="#3B64CD"/>
<rect x="18" y="186" width="6" height="6" fill="#13387E"/>
<rect x="18" y="192" width="6" height="6" fill="#13387E"/>
<rect x="18" y="108" width="6" height="6" fill="#13387E"/>
<rect x="18" y="114" width="6" height="6" fill="#13387E"/>
<rect x="18" y="144" width="6" height="6" fill="#13387E"/>
<rect x="12" y="114" width="6" height="6" fill="#13387E"/>
<rect x="12" y="144" width="6" height="6" fill="#13387E"/>
<rect x="6" y="156" width="6" height="6" fill="#13387E"/>
<rect x="12" y="156" width="6" height="6" fill="#13387E"/>
<rect x="12" y="162" width="6" height="6" fill="#13387E"/>
</svg>
