<svg width="192" height="96" viewBox="0 0 192 96" fill="none" xmlns="http://www.w3.org/2000/svg">
<rect x="24" y="36" width="6" height="6" transform="rotate(-90 24 36)" fill="#505050"/>
<rect x="42" y="36" width="6" height="6" transform="rotate(-90 42 36)" fill="#505050"/>
<rect x="30" y="24" width="6" height="6" transform="rotate(-90 30 24)" fill="#505050"/>
<rect x="30" y="42" width="6" height="6" transform="rotate(-90 30 42)" fill="#777777"/>
<rect x="18" y="30" width="6" height="6" transform="rotate(-90 18 30)" fill="#777777"/>
<rect x="24" y="18" width="6" height="6" transform="rotate(-90 24 18)" fill="#777777"/>
<rect x="36" y="30" width="6" height="6" transform="rotate(-90 36 30)" fill="#777777"/>
<rect x="18" y="48" width="6" height="6" transform="rotate(-90 18 48)" fill="#2B2B2B"/>
<rect x="18" y="42" width="6" height="6" transform="rotate(-90 18 42)" fill="#2B2B2B"/>
<rect x="18" y="36" width="6" height="6" transform="rotate(-90 18 36)" fill="#2B2B2B"/>
<rect x="24" y="54" width="6" height="6" transform="rotate(-90 24 54)" fill="#2B2B2B"/>
<rect x="24" y="48" width="6" height="6" transform="rotate(-90 24 48)" fill="#2B2B2B"/>
<rect x="24" y="42" width="6" height="6" transform="rotate(-90 24 42)" fill="#2B2B2B"/>
<rect x="30" y="54" width="6" height="6" transform="rotate(-90 30 54)" fill="#2B2B2B"/>
<rect x="30" y="48" width="6" height="6" transform="rotate(-90 30 48)" fill="#2B2B2B"/>
<rect x="30" y="36" width="6" height="6" transform="rotate(-90 30 36)" fill="#2B2B2B"/>
<rect x="36" y="48" width="6" height="6" transform="rotate(-90 36 48)" fill="#2B2B2B"/>
<rect x="36" y="42" width="6" height="6" transform="rotate(-90 36 42)" fill="#2B2B2B"/>
<rect x="36" y="36" width="6" height="6" transform="rotate(-90 36 36)" fill="#2B2B2B"/>
<rect x="42" y="42" width="6" height="6" transform="rotate(-90 42 42)" fill="#2B2B2B"/>
<rect x="48" y="36" width="6" height="6" transform="rotate(-90 48 36)" fill="#2B2B2B"/>
<rect x="18" y="24" width="6" height="6" transform="rotate(-90 18 24)" fill="#2B2B2B"/>
<rect x="18" y="18" width="6" height="6" transform="rotate(-90 18 18)" fill="#2B2B2B"/>
<rect x="24" y="30" width="6" height="6" transform="rotate(-90 24 30)" fill="#2B2B2B"/>
<rect x="24" y="24" width="6" height="6" transform="rotate(-90 24 24)" fill="#2B2B2B"/>
<rect x="30" y="30" width="6" height="6" transform="rotate(-90 30 30)" fill="#2B2B2B"/>
<rect x="30" y="18" width="6" height="6" transform="rotate(-90 30 18)" fill="#2B2B2B"/>
<rect x="36" y="24" width="6" height="6" transform="rotate(-90 36 24)" fill="#2B2B2B"/>
<rect x="36" y="18" width="6" height="6" transform="rotate(-90 36 18)" fill="#2B2B2B"/>
<rect x="42" y="30" width="6" height="6" transform="rotate(-90 42 30)" fill="#2B2B2B"/>
<rect x="42" y="24" width="6" height="6" transform="rotate(-90 42 24)" fill="#2B2B2B"/>
<rect x="42" y="18" width="6" height="6" transform="rotate(-90 42 18)" fill="#2B2B2B"/>
<rect x="48" y="30" width="6" height="6" transform="rotate(-90 48 30)" fill="#2B2B2B"/>
<rect x="48" y="24" width="6" height="6" transform="rotate(-90 48 24)" fill="#2B2B2B"/>
<rect x="6" y="48" width="6" height="6" transform="rotate(-90 6 48)" fill="white"/>
<rect x="6" y="42" width="6" height="6" transform="rotate(-90 6 42)" fill="white"/>
<rect x="6" y="36" width="6" height="6" transform="rotate(-90 6 36)" fill="white"/>
<rect x="12" y="54" width="6" height="6" transform="rotate(-90 12 54)" fill="white"/>
<rect x="12" y="48" width="6" height="6" transform="rotate(-90 12 48)" fill="white"/>
<rect x="12" y="42" width="6" height="6" transform="rotate(-90 12 42)" fill="white"/>
<rect x="12" y="36" width="6" height="6" transform="rotate(-90 12 36)" fill="white"/>
<rect x="18" y="54" width="6" height="6" transform="rotate(-90 18 54)" fill="white"/>
<rect x="36" y="54" width="6" height="6" transform="rotate(-90 36 54)" fill="white"/>
<rect x="42" y="54" width="6" height="6" transform="rotate(-90 42 54)" fill="white"/>
<rect x="42" y="48" width="6" height="6" transform="rotate(-90 42 48)" fill="white"/>
<rect x="48" y="48" width="6" height="6" transform="rotate(-90 48 48)" fill="white"/>
<rect x="48" y="42" width="6" height="6" transform="rotate(-90 48 42)" fill="white"/>
<rect x="12" y="60" width="6" height="6" transform="rotate(-90 12 60)" fill="#D0D0D0"/>
<rect x="18" y="60" width="6" height="6" transform="rotate(-90 18 60)" fill="#D0D0D0"/>
<rect x="6" y="54" width="6" height="6" transform="rotate(-90 6 54)" fill="#D0D0D0"/>
<rect x="24" y="60" width="6" height="6" transform="rotate(-90 24 60)" fill="#D0D0D0"/>
<rect x="30" y="60" width="6" height="6" transform="rotate(-90 30 60)" fill="#D0D0D0"/>
<rect x="36" y="60" width="6" height="6" transform="rotate(-90 36 60)" fill="#D0D0D0"/>
<rect x="42" y="60" width="6" height="6" transform="rotate(-90 42 60)" fill="#D0D0D0"/>
<rect x="48" y="54" width="6" height="6" transform="rotate(-90 48 54)" fill="#D0D0D0"/>
<rect x="54" y="48" width="6" height="6" transform="rotate(-90 54 48)" fill="#D0D0D0"/>
<rect x="54" y="42" width="6" height="6" transform="rotate(-90 54 42)" fill="white"/>
<rect x="54" y="36" width="6" height="6" transform="rotate(-90 54 36)" fill="white"/>
<rect x="6" y="30" width="6" height="6" transform="rotate(-90 6 30)" fill="white"/>
<rect x="12" y="30" width="6" height="6" transform="rotate(-90 12 30)" fill="white"/>
<rect x="12" y="24" width="6" height="6" transform="rotate(-90 12 24)" fill="white"/>
<rect x="54" y="30" width="6" height="6" transform="rotate(-90 54 30)" fill="white"/>
<rect x="54" y="24" width="6" height="6" transform="rotate(-90 54 24)" fill="white"/>
<rect x="6" y="60" width="6" height="6" transform="rotate(-90 6 60)" fill="#474747"/>
<rect x="12" y="66" width="6" height="6" transform="rotate(-90 12 66)" fill="#474747"/>
<rect x="18" y="66" width="6" height="6" transform="rotate(-90 18 66)" fill="#474747"/>
<rect y="54" width="6" height="6" transform="rotate(-90 0 54)" fill="#474747"/>
<rect y="48" width="6" height="6" transform="rotate(-90 0 48)" fill="#474747"/>
<rect y="42" width="6" height="6" transform="rotate(-90 0 42)" fill="#474747"/>
<rect y="36" width="6" height="6" transform="rotate(-90 0 36)" fill="#474747"/>
<rect x="24" y="66" width="6" height="6" transform="rotate(-90 24 66)" fill="#474747"/>
<rect x="30" y="66" width="6" height="6" transform="rotate(-90 30 66)" fill="#474747"/>
<rect x="36" y="66" width="6" height="6" transform="rotate(-90 36 66)" fill="#474747"/>
<rect x="42" y="66" width="6" height="6" transform="rotate(-90 42 66)" fill="#474747"/>
<rect x="48" y="60" width="6" height="6" transform="rotate(-90 48 60)" fill="#474747"/>
<rect x="54" y="54" width="6" height="6" transform="rotate(-90 54 54)" fill="#474747"/>
<rect x="60" y="48" width="6" height="6" transform="rotate(-90 60 48)" fill="#474747"/>
<rect x="60" y="42" width="6" height="6" transform="rotate(-90 60 42)" fill="#474747"/>
<rect x="60" y="36" width="6" height="6" transform="rotate(-90 60 36)" fill="#474747"/>
<rect y="30" width="6" height="6" transform="rotate(-90 0 30)" fill="#474747"/>
<rect x="6" y="24" width="6" height="6" transform="rotate(-90 6 24)" fill="#474747"/>
<rect x="12" y="18" width="6" height="6" transform="rotate(-90 12 18)" fill="#474747"/>
<rect x="48" y="18" width="6" height="6" transform="rotate(-90 48 18)" fill="#474747"/>
<rect x="54" y="18" width="6" height="6" transform="rotate(-90 54 18)" fill="#474747"/>
<rect x="60" y="30" width="6" height="6" transform="rotate(-90 60 30)" fill="#474747"/>
<rect x="60" y="24" width="6" height="6" transform="rotate(-90 60 24)" fill="#474747"/>
<rect x="138" y="54" width="6" height="6" transform="rotate(-90 138 54)" fill="#858585"/>
<rect x="138" y="48" width="6" height="6" transform="rotate(-90 138 48)" fill="#858585"/>
<rect x="144" y="48" width="6" height="6" transform="rotate(-90 144 48)" fill="#858585"/>
<rect x="150" y="48" width="6" height="6" transform="rotate(-90 150 48)" fill="#858585"/>
<rect x="156" y="54" width="6" height="6" transform="rotate(-90 156 54)" fill="#858585"/>
<rect x="156" y="48" width="6" height="6" transform="rotate(-90 156 48)" fill="#858585"/>
<rect x="138" y="42" width="6" height="6" transform="rotate(-90 138 42)" fill="#858585"/>
<rect x="138" y="30" width="6" height="6" transform="rotate(-90 138 30)" fill="#858585"/>
<rect x="138" y="24" width="6" height="6" transform="rotate(-90 138 24)" fill="#858585"/>
<rect x="144" y="30" width="6" height="6" transform="rotate(-90 144 30)" fill="#858585"/>
<rect x="150" y="30" width="6" height="6" transform="rotate(-90 150 30)" fill="#858585"/>
<rect x="156" y="42" width="6" height="6" transform="rotate(-90 156 42)" fill="#858585"/>
<rect x="156" y="30" width="6" height="6" transform="rotate(-90 156 30)" fill="#858585"/>
<rect x="156" y="24" width="6" height="6" transform="rotate(-90 156 24)" fill="#858585"/>
<rect x="168" y="30" width="6" height="6" transform="rotate(-90 168 30)" fill="#474747"/>
<rect x="168" y="24" width="6" height="6" transform="rotate(-90 168 24)" fill="#474747"/>
<rect x="120" y="48" width="6" height="6" transform="rotate(-90 120 48)" fill="white"/>
<rect x="126" y="66" width="6" height="6" transform="rotate(-90 126 66)" fill="#9B9B9B"/>
<rect x="126" y="48" width="6" height="6" transform="rotate(-90 126 48)" fill="white"/>
<rect x="132" y="48" width="6" height="6" transform="rotate(-90 132 48)" fill="white"/>
<rect x="174" y="54" width="6" height="6" transform="rotate(-90 174 54)" fill="#9B9B9B"/>
<rect x="174" y="48" width="6" height="6" transform="rotate(-90 174 48)" fill="#9B9B9B"/>
<rect x="180" y="54" width="6" height="6" transform="rotate(-90 180 54)" fill="#9B9B9B"/>
<rect x="180" y="48" width="6" height="6" transform="rotate(-90 180 48)" fill="#9B9B9B"/>
<rect x="120" y="42" width="6" height="6" transform="rotate(-90 120 42)" fill="white"/>
<rect x="120" y="24" width="6" height="6" transform="rotate(-90 120 24)" fill="white"/>
<rect x="126" y="42" width="6" height="6" transform="rotate(-90 126 42)" fill="white"/>
<rect x="126" y="24" width="6" height="6" transform="rotate(-90 126 24)" fill="white"/>
<rect x="132" y="42" width="6" height="6" transform="rotate(-90 132 42)" fill="white"/>
<rect x="132" y="24" width="6" height="6" transform="rotate(-90 132 24)" fill="white"/>
<rect x="144" y="42" width="6" height="6" transform="rotate(-90 144 42)" fill="white"/>
<rect x="144" y="24" width="6" height="6" transform="rotate(-90 144 24)" fill="white"/>
<rect x="126" y="12" width="6" height="6" transform="rotate(-90 126 12)" fill="#9B9B9B"/>
<rect x="150" y="42" width="6" height="6" transform="rotate(-90 150 42)" fill="white"/>
<rect x="150" y="24" width="6" height="6" transform="rotate(-90 150 24)" fill="white"/>
<rect x="132" y="54" width="6" height="6" transform="rotate(-90 132 54)" fill="#D0D0D0"/>
<rect x="144" y="54" width="6" height="6" transform="rotate(-90 144 54)" fill="#D0D0D0"/>
<rect x="150" y="54" width="6" height="6" transform="rotate(-90 150 54)" fill="#D0D0D0"/>
<rect x="162" y="54" width="6" height="6" transform="rotate(-90 162 54)" fill="#D0D0D0"/>
<rect x="162" y="48" width="6" height="6" transform="rotate(-90 162 48)" fill="#D0D0D0"/>
<rect x="120" y="30" width="6" height="6" transform="rotate(-90 120 30)" fill="#D0D0D0"/>
<rect x="126" y="30" width="6" height="6" transform="rotate(-90 126 30)" fill="#D0D0D0"/>
<rect x="132" y="30" width="6" height="6" transform="rotate(-90 132 30)" fill="#D0D0D0"/>
<rect x="162" y="42" width="6" height="6" transform="rotate(-90 162 42)" fill="#D0D0D0"/>
<rect x="162" y="30" width="6" height="6" transform="rotate(-90 162 30)" fill="#D0D0D0"/>
<rect x="162" y="24" width="6" height="6" transform="rotate(-90 162 24)" fill="#D0D0D0"/>
<rect x="174" y="42" width="6" height="6" transform="rotate(-90 174 42)" fill="#9B9B9B"/>
<rect x="174" y="30" width="6" height="6" transform="rotate(-90 174 30)" fill="#9B9B9B"/>
<rect x="174" y="24" width="6" height="6" transform="rotate(-90 174 24)" fill="#9B9B9B"/>
<rect x="180" y="42" width="6" height="6" transform="rotate(-90 180 42)" fill="#9B9B9B"/>
<rect x="180" y="36" width="6" height="6" transform="rotate(-90 180 36)" fill="#9B9B9B"/>
<rect x="180" y="24" width="6" height="6" transform="rotate(-90 180 24)" fill="#9B9B9B"/>
<rect x="180" y="18" width="6" height="6" transform="rotate(-90 180 18)" fill="#9B9B9B"/>
<rect x="84" y="66" width="6" height="6" transform="rotate(-90 84 66)" fill="#858585"/>
<rect x="90" y="60" width="6" height="6" transform="rotate(-90 90 60)" fill="#858585"/>
<rect x="96" y="66" width="6" height="6" transform="rotate(-90 96 66)" fill="#858585"/>
<rect x="78" y="36" width="6" height="6" transform="rotate(-90 78 36)" fill="#4A4A4A"/>
<rect x="78" y="30" width="6" height="6" transform="rotate(-90 78 30)" fill="#4A4A4A"/>
<rect x="84" y="36" width="6" height="6" transform="rotate(-90 84 36)" fill="#4A4A4A"/>
<rect x="84" y="30" width="6" height="6" transform="rotate(-90 84 30)" fill="#4A4A4A"/>
<rect x="90" y="12" width="6" height="6" transform="rotate(-90 90 12)" fill="#858585"/>
<rect x="60" y="60" width="6" height="6" transform="rotate(-90 60 60)" fill="#858585"/>
<rect x="60" y="54" width="6" height="6" transform="rotate(-90 60 54)" fill="white"/>
<rect x="66" y="66" width="6" height="6" transform="rotate(-90 66 66)" fill="#858585"/>
<rect x="66" y="60" width="6" height="6" transform="rotate(-90 66 60)" fill="#858585"/>
<rect x="66" y="54" width="6" height="6" transform="rotate(-90 66 54)" fill="white"/>
<rect x="66" y="48" width="6" height="6" transform="rotate(-90 66 48)" fill="#EBEBEB"/>
<rect x="72" y="60" width="6" height="6" transform="rotate(-90 72 60)" fill="white"/>
<rect x="72" y="54" width="6" height="6" transform="rotate(-90 72 54)" fill="white"/>
<rect x="72" y="48" width="6" height="6" transform="rotate(-90 72 48)" fill="white"/>
<rect x="78" y="60" width="6" height="6" transform="rotate(-90 78 60)" fill="white"/>
<rect x="78" y="48" width="6" height="6" transform="rotate(-90 78 48)" fill="white"/>
<rect x="84" y="60" width="6" height="6" transform="rotate(-90 84 60)" fill="white"/>
<rect x="90" y="66" width="6" height="6" transform="rotate(-90 90 66)" fill="#858585"/>
<rect x="96" y="60" width="6" height="6" transform="rotate(-90 96 60)" fill="white"/>
<rect x="102" y="60" width="6" height="6" transform="rotate(-90 102 60)" fill="white"/>
<rect x="108" y="60" width="6" height="6" transform="rotate(-90 108 60)" fill="white"/>
<rect x="66" y="42" width="6" height="6" transform="rotate(-90 66 42)" fill="#EBEBEB"/>
<rect x="66" y="36" width="6" height="6" transform="rotate(-90 66 36)" fill="#EBEBEB"/>
<rect x="66" y="30" width="6" height="6" transform="rotate(-90 66 30)" fill="#EBEBEB"/>
<rect x="66" y="24" width="6" height="6" transform="rotate(-90 66 24)" fill="#EBEBEB"/>
<rect x="72" y="42" width="6" height="6" transform="rotate(-90 72 42)" fill="white"/>
<rect x="72" y="36" width="6" height="6" transform="rotate(-90 72 36)" fill="white"/>
<rect x="72" y="30" width="6" height="6" transform="rotate(-90 72 30)" fill="#A61414"/>
<rect x="72" y="36" width="6" height="6" transform="rotate(-90 72 36)" fill="#8F1515"/>
<rect x="72" y="42" width="6" height="6" transform="rotate(-90 72 42)" fill="#8F1515"/>
<rect x="72" y="48" width="6" height="6" transform="rotate(-90 72 48)" fill="#8F1515"/>
<rect x="72" y="24" width="6" height="6" transform="rotate(-90 72 24)" fill="#EBEBEB"/>
<rect x="60" y="18" width="6" height="6" transform="rotate(-90 60 18)" fill="#474747"/>
<rect x="66" y="18" width="6" height="6" transform="rotate(-90 66 18)" fill="white"/>
<rect x="66" y="12" width="6" height="6" transform="rotate(-90 66 12)" fill="#858585"/>
<rect x="72" y="18" width="6" height="6" transform="rotate(-90 72 18)" fill="white"/>
<rect x="78" y="42" width="6" height="6" transform="rotate(-90 78 42)" fill="white"/>
<rect x="90" y="36" width="6" height="6" transform="rotate(-90 90 36)" fill="white"/>
<rect x="90" y="30" width="6" height="6" transform="rotate(-90 90 30)" fill="white"/>
<rect x="78" y="24" width="6" height="6" transform="rotate(-90 78 24)" fill="#EBEBEB"/>
<rect x="84" y="42" width="6" height="6" transform="rotate(-90 84 42)" fill="#8F1515"/>
<rect x="84" y="24" width="6" height="6" transform="rotate(-90 84 24)" fill="#EBEBEB"/>
<rect x="90" y="42" width="6" height="6" transform="rotate(-90 90 42)" fill="white"/>
<rect x="90" y="24" width="6" height="6" transform="rotate(-90 90 24)" fill="#8F1515"/>
<rect x="96" y="42" width="6" height="6" transform="rotate(-90 96 42)" fill="white"/>
<rect x="96" y="36" width="6" height="6" transform="rotate(-90 96 36)" fill="white"/>
<rect x="96" y="30" width="6" height="6" transform="rotate(-90 96 30)" fill="white"/>
<rect x="96" y="24" width="6" height="6" transform="rotate(-90 96 24)" fill="#EBEBEB"/>
<rect x="102" y="42" width="6" height="6" transform="rotate(-90 102 42)" fill="white"/>
<rect x="102" y="36" width="6" height="6" transform="rotate(-90 102 36)" fill="white"/>
<rect x="102" y="30" width="6" height="6" transform="rotate(-90 102 30)" fill="white"/>
<rect x="102" y="24" width="6" height="6" transform="rotate(-90 102 24)" fill="white"/>
<rect x="78" y="12" width="6" height="6" transform="rotate(-90 78 12)" fill="#D0D0D0"/>
<rect x="114" y="66" width="6" height="6" transform="rotate(-90 114 66)" fill="#D0D0D0"/>
<rect x="114" y="60" width="6" height="6" transform="rotate(-90 114 60)" fill="#D0D0D0"/>
<rect x="114" y="12" width="6" height="6" transform="rotate(-90 114 12)" fill="#D0D0D0"/>
<rect x="72" y="66" width="6" height="6" transform="rotate(-90 72 66)" fill="#D0D0D0"/>
<rect x="78" y="66" width="6" height="6" transform="rotate(-90 78 66)" fill="#D0D0D0"/>
<rect x="84" y="48" width="6" height="6" transform="rotate(-90 84 48)" fill="#D0D0D0"/>
<rect x="90" y="48" width="6" height="6" transform="rotate(-90 90 48)" fill="#D0D0D0"/>
<rect x="96" y="48" width="6" height="6" transform="rotate(-90 96 48)" fill="#D0D0D0"/>
<rect x="102" y="66" width="6" height="6" transform="rotate(-90 102 66)" fill="#D0D0D0"/>
<rect x="102" y="48" width="6" height="6" transform="rotate(-90 102 48)" fill="#D0D0D0"/>
<rect x="108" y="66" width="6" height="6" transform="rotate(-90 108 66)" fill="#D0D0D0"/>
<rect x="108" y="48" width="6" height="6" transform="rotate(-90 108 48)" fill="#D0D0D0"/>
<rect x="72" y="12" width="6" height="6" transform="rotate(-90 72 12)" fill="#D0D0D0"/>
<rect x="108" y="42" width="6" height="6" transform="rotate(-90 108 42)" fill="#D0D0D0"/>
<rect x="108" y="36" width="6" height="6" transform="rotate(-90 108 36)" fill="#D0D0D0"/>
<rect x="108" y="30" width="6" height="6" transform="rotate(-90 108 30)" fill="#D0D0D0"/>
<rect x="108" y="24" width="6" height="6" transform="rotate(-90 108 24)" fill="#D0D0D0"/>
<rect x="84" y="12" width="6" height="6" transform="rotate(-90 84 12)" fill="#D0D0D0"/>
<rect x="96" y="12" width="6" height="6" transform="rotate(-90 96 12)" fill="#D0D0D0"/>
<rect x="102" y="12" width="6" height="6" transform="rotate(-90 102 12)" fill="#D0D0D0"/>
<rect x="108" y="12" width="6" height="6" transform="rotate(-90 108 12)" fill="#D0D0D0"/>
<rect x="114" y="72" width="6" height="6" transform="rotate(-90 114 72)" fill="#474747"/>
<rect x="120" y="72" width="6" height="6" transform="rotate(-90 120 72)" fill="#474747"/>
<rect x="126" y="72" width="6" height="6" transform="rotate(-90 126 72)" fill="#474747"/>
<rect x="114" y="54" width="6" height="6" transform="rotate(-90 114 54)" fill="#474747"/>
<rect x="114" y="48" width="6" height="6" transform="rotate(-90 114 48)" fill="#474747"/>
<rect x="120" y="66" width="6" height="6" transform="rotate(-90 120 66)" fill="#474747"/>
<rect x="120" y="60" width="6" height="6" transform="rotate(-90 120 60)" fill="#474747"/>
<rect x="120" y="54" width="6" height="6" transform="rotate(-90 120 54)" fill="#474747"/>
<rect x="126" y="54" width="6" height="6" transform="rotate(-90 126 54)" fill="#474747"/>
<rect x="132" y="66" width="6" height="6" transform="rotate(-90 132 66)" fill="#474747"/>
<rect x="132" y="60" width="6" height="6" transform="rotate(-90 132 60)" fill="#474747"/>
<rect x="138" y="60" width="6" height="6" transform="rotate(-90 138 60)" fill="#474747"/>
<rect x="144" y="60" width="6" height="6" transform="rotate(-90 144 60)" fill="#474747"/>
<rect x="150" y="60" width="6" height="6" transform="rotate(-90 150 60)" fill="#474747"/>
<rect x="156" y="60" width="6" height="6" transform="rotate(-90 156 60)" fill="#474747"/>
<rect x="162" y="60" width="6" height="6" transform="rotate(-90 162 60)" fill="#474747"/>
<rect x="168" y="60" width="6" height="6" transform="rotate(-90 168 60)" fill="#474747"/>
<rect x="168" y="54" width="6" height="6" transform="rotate(-90 168 54)" fill="#474747"/>
<rect x="168" y="48" width="6" height="6" transform="rotate(-90 168 48)" fill="#474747"/>
<rect x="174" y="60" width="6" height="6" transform="rotate(-90 174 60)" fill="#474747"/>
<rect x="180" y="60" width="6" height="6" transform="rotate(-90 180 60)" fill="#474747"/>
<rect x="186" y="60" width="6" height="6" transform="rotate(-90 186 60)" fill="#474747"/>
<rect x="186" y="54" width="6" height="6" transform="rotate(-90 186 54)" fill="#474747"/>
<rect x="186" y="48" width="6" height="6" transform="rotate(-90 186 48)" fill="#474747"/>
<rect x="114" y="42" width="6" height="6" transform="rotate(-90 114 42)" fill="#474747"/>
<rect x="114" y="36" width="6" height="6" transform="rotate(-90 114 36)" fill="#474747"/>
<rect x="114" y="30" width="6" height="6" transform="rotate(-90 114 30)" fill="#474747"/>
<rect x="114" y="24" width="6" height="6" transform="rotate(-90 114 24)" fill="#474747"/>
<rect x="120" y="36" width="6" height="6" transform="rotate(-90 120 36)" fill="#474747"/>
<rect x="126" y="36" width="6" height="6" transform="rotate(-90 126 36)" fill="#474747"/>
<rect x="132" y="36" width="6" height="6" transform="rotate(-90 132 36)" fill="#474747"/>
<rect x="138" y="36" width="6" height="6" transform="rotate(-90 138 36)" fill="#474747"/>
<rect x="144" y="36" width="6" height="6" transform="rotate(-90 144 36)" fill="#474747"/>
<rect x="114" y="18" width="6" height="6" transform="rotate(-90 114 18)" fill="#474747"/>
<rect x="114" y="6.00003" width="6" height="6" transform="rotate(-90 114 6.00003)" fill="#474747"/>
<rect x="120" y="18" width="6" height="6" transform="rotate(-90 120 18)" fill="#474747"/>
<rect x="120" y="12" width="6" height="6" transform="rotate(-90 120 12)" fill="#474747"/>
<rect x="120" y="6.00003" width="6" height="6" transform="rotate(-90 120 6.00003)" fill="#474747"/>
<rect x="126" y="18" width="6" height="6" transform="rotate(-90 126 18)" fill="#474747"/>
<rect x="126" y="6.00003" width="6" height="6" transform="rotate(-90 126 6.00003)" fill="#474747"/>
<rect x="132" y="18" width="6" height="6" transform="rotate(-90 132 18)" fill="#474747"/>
<rect x="132" y="12" width="6" height="6" transform="rotate(-90 132 12)" fill="#474747"/>
<rect x="138" y="18" width="6" height="6" transform="rotate(-90 138 18)" fill="#474747"/>
<rect x="144" y="18" width="6" height="6" transform="rotate(-90 144 18)" fill="#474747"/>
<rect x="150" y="36" width="6" height="6" transform="rotate(-90 150 36)" fill="#474747"/>
<rect x="156" y="36" width="6" height="6" transform="rotate(-90 156 36)" fill="#474747"/>
<rect x="162" y="36" width="6" height="6" transform="rotate(-90 162 36)" fill="#474747"/>
<rect x="168" y="42" width="6" height="6" transform="rotate(-90 168 42)" fill="#474747"/>
<rect x="168" y="36" width="6" height="6" transform="rotate(-90 168 36)" fill="#474747"/>
<rect x="174" y="36" width="6" height="6" transform="rotate(-90 174 36)" fill="#474747"/>
<rect x="180" y="30" width="6" height="6" transform="rotate(-90 180 30)" fill="#474747"/>
<rect x="150" y="18" width="6" height="6" transform="rotate(-90 150 18)" fill="#474747"/>
<rect x="156" y="18" width="6" height="6" transform="rotate(-90 156 18)" fill="#474747"/>
<rect x="162" y="18" width="6" height="6" transform="rotate(-90 162 18)" fill="#474747"/>
<rect x="168" y="18" width="6" height="6" transform="rotate(-90 168 18)" fill="#474747"/>
<rect x="174" y="18" width="6" height="6" transform="rotate(-90 174 18)" fill="#474747"/>
<rect x="180" y="12" width="6" height="6" transform="rotate(-90 180 12)" fill="#474747"/>
<rect x="186" y="42" width="6" height="6" transform="rotate(-90 186 42)" fill="#474747"/>
<rect x="186" y="36" width="6" height="6" transform="rotate(-90 186 36)" fill="#474747"/>
<rect x="186" y="30" width="6" height="6" transform="rotate(-90 186 30)" fill="#474747"/>
<rect x="186" y="24" width="6" height="6" transform="rotate(-90 186 24)" fill="#474747"/>
<rect x="186" y="18" width="6" height="6" transform="rotate(-90 186 18)" fill="#474747"/>
<rect x="186" y="12" width="6" height="6" transform="rotate(-90 186 12)" fill="#474747"/>
<rect x="66" y="72" width="6" height="6" transform="rotate(-90 66 72)" fill="#474747"/>
<rect x="72" y="72" width="6" height="6" transform="rotate(-90 72 72)" fill="#474747"/>
<rect x="60" y="66" width="6" height="6" transform="rotate(-90 60 66)" fill="#474747"/>
<rect x="78" y="72" width="6" height="6" transform="rotate(-90 78 72)" fill="#474747"/>
<rect x="84" y="72" width="6" height="6" transform="rotate(-90 84 72)" fill="#474747"/>
<rect x="90" y="72" width="6" height="6" transform="rotate(-90 90 72)" fill="#474747"/>
<rect x="96" y="72" width="6" height="6" transform="rotate(-90 96 72)" fill="#474747"/>
<rect x="102" y="72" width="6" height="6" transform="rotate(-90 102 72)" fill="#474747"/>
<rect x="108" y="72" width="6" height="6" transform="rotate(-90 108 72)" fill="#474747"/>
<rect x="78" y="54" width="6" height="6" transform="rotate(-90 78 54)" fill="#474747"/>
<rect x="84" y="54" width="6" height="6" transform="rotate(-90 84 54)" fill="#474747"/>
<rect x="90" y="54" width="6" height="6" transform="rotate(-90 90 54)" fill="#474747"/>
<rect x="96" y="54" width="6" height="6" transform="rotate(-90 96 54)" fill="#474747"/>
<rect x="102" y="54" width="6" height="6" transform="rotate(-90 102 54)" fill="#474747"/>
<rect x="108" y="54" width="6" height="6" transform="rotate(-90 108 54)" fill="#474747"/>
<rect x="66" y="6.00003" width="6" height="6" transform="rotate(-90 66 6.00003)" fill="#474747"/>
<rect x="72" y="6.00003" width="6" height="6" transform="rotate(-90 72 6.00003)" fill="#474747"/>
<rect x="78" y="18" width="6" height="6" transform="rotate(-90 78 18)" fill="#474747"/>
<rect x="78" y="6.00003" width="6" height="6" transform="rotate(-90 78 6.00003)" fill="#474747"/>
<rect x="84" y="18" width="6" height="6" transform="rotate(-90 84 18)" fill="#474747"/>
<rect x="84" y="6.00003" width="6" height="6" transform="rotate(-90 84 6.00003)" fill="#474747"/>
<rect x="90" y="18" width="6" height="6" transform="rotate(-90 90 18)" fill="#474747"/>
<rect x="90" y="6.00003" width="6" height="6" transform="rotate(-90 90 6.00003)" fill="#474747"/>
<rect x="96" y="18" width="6" height="6" transform="rotate(-90 96 18)" fill="#474747"/>
<rect x="96" y="6.00003" width="6" height="6" transform="rotate(-90 96 6.00003)" fill="#474747"/>
<rect x="102" y="18" width="6" height="6" transform="rotate(-90 102 18)" fill="#474747"/>
<rect x="102" y="6.00003" width="6" height="6" transform="rotate(-90 102 6.00003)" fill="#474747"/>
<rect x="108" y="18" width="6" height="6" transform="rotate(-90 108 18)" fill="#474747"/>
<rect x="108" y="6.00003" width="6" height="6" transform="rotate(-90 108 6.00003)" fill="#474747"/>
<rect x="126" y="60" width="6" height="6" transform="rotate(-90 126 60)" fill="#9B9B9B"/>
<rect x="60" y="72" width="6" height="6" transform="rotate(-90 60 72)" fill="#A61414"/>
<rect x="54" y="60" width="6" height="6" transform="rotate(-90 54 60)" fill="#A61414"/>
<rect x="54" y="66" width="6" height="6" transform="rotate(-90 54 66)" fill="#A61414"/>
<rect x="54" y="72" width="6" height="6" transform="rotate(-90 54 72)" fill="#A61414"/>
<rect x="48" y="66" width="6" height="6" transform="rotate(-90 48 66)" fill="#A61414"/>
<rect x="48" y="72" width="6" height="6" transform="rotate(-90 48 72)" fill="#8F1515"/>
<rect x="54" y="78" width="6" height="6" transform="rotate(-90 54 78)" fill="#8F1515"/>
<rect x="60" y="84" width="6" height="6" transform="rotate(-90 60 84)" fill="#8F1515"/>
<rect x="66" y="90" width="6" height="6" transform="rotate(-90 66 90)" fill="#8F1515"/>
<rect x="72" y="90" width="6" height="6" transform="rotate(-90 72 90)" fill="#8F1515"/>
<rect x="78" y="96" width="6" height="6" transform="rotate(-90 78 96)" fill="#8F1515"/>
<rect x="72" y="96" width="6" height="6" transform="rotate(-90 72 96)" fill="#8F1515"/>
<rect x="54" y="90" width="6" height="6" transform="rotate(-90 54 90)" fill="#8F1515"/>
<rect x="90" y="90" width="6" height="6" transform="rotate(-90 90 90)" fill="#8F1515"/>
<rect x="78" y="84" width="6" height="6" transform="rotate(-90 78 84)" fill="#8F1515"/>
<rect x="84" y="78" width="6" height="6" transform="rotate(-90 84 78)" fill="#8F1515"/>
<rect x="60" y="78" width="6" height="6" transform="rotate(-90 60 78)" fill="#A61414"/>
<rect x="66" y="78" width="6" height="6" transform="rotate(-90 66 78)" fill="#A61414"/>
<rect x="72" y="78" width="6" height="6" transform="rotate(-90 72 78)" fill="#A61414"/>
<rect x="78" y="78" width="6" height="6" transform="rotate(-90 78 78)" fill="#A61414"/>
<rect x="66" y="84" width="6" height="6" transform="rotate(-90 66 84)" fill="#A61414"/>
<rect x="72" y="84" width="6" height="6" transform="rotate(-90 72 84)" fill="#A61414"/>
<rect x="102" y="36" width="6" height="6" transform="rotate(-90 102 36)" fill="#A61414"/>
<rect x="102" y="42" width="6" height="6" transform="rotate(-90 102 42)" fill="#8F1515"/>
<rect x="102" y="48" width="6" height="6" transform="rotate(-90 102 48)" fill="#8F1515"/>
</svg>
