<svg width="116" height="230" viewBox="0 0 116 230" fill="none" xmlns="http://www.w3.org/2000/svg">
<rect x="44" y="62" width="6" height="6" fill="#505050"/>
<rect x="44" y="80" width="6" height="6" fill="#505050"/>
<rect x="56" y="68" width="6" height="6" fill="#505050"/>
<rect x="38" y="68" width="6" height="6" fill="#777777"/>
<rect x="50" y="56" width="6" height="6" fill="#777777"/>
<rect x="62" y="62" width="6" height="6" fill="#777777"/>
<rect x="50" y="74" width="6" height="6" fill="#777777"/>
<rect x="32" y="56" width="6" height="6" fill="#2B2B2B"/>
<rect x="38" y="56" width="6" height="6" fill="#2B2B2B"/>
<rect x="44" y="56" width="6" height="6" fill="#2B2B2B"/>
<rect x="26" y="62" width="6" height="6" fill="#2B2B2B"/>
<rect x="32" y="62" width="6" height="6" fill="#2B2B2B"/>
<rect x="38" y="62" width="6" height="6" fill="#2B2B2B"/>
<rect x="26" y="68" width="6" height="6" fill="#2B2B2B"/>
<rect x="32" y="68" width="6" height="6" fill="#2B2B2B"/>
<rect x="44" y="68" width="6" height="6" fill="#2B2B2B"/>
<rect x="32" y="74" width="6" height="6" fill="#2B2B2B"/>
<rect x="38" y="74" width="6" height="6" fill="#2B2B2B"/>
<rect x="44" y="74" width="6" height="6" fill="#2B2B2B"/>
<rect x="38" y="80" width="6" height="6" fill="#2B2B2B"/>
<rect x="44" y="86" width="6" height="6" fill="#2B2B2B"/>
<rect x="56" y="56" width="6" height="6" fill="#2B2B2B"/>
<rect x="62" y="56" width="6" height="6" fill="#2B2B2B"/>
<rect x="50" y="62" width="6" height="6" fill="#2B2B2B"/>
<rect x="56" y="62" width="6" height="6" fill="#2B2B2B"/>
<rect x="50" y="68" width="6" height="6" fill="#2B2B2B"/>
<rect x="62" y="68" width="6" height="6" fill="#2B2B2B"/>
<rect x="56" y="74" width="6" height="6" fill="#2B2B2B"/>
<rect x="62" y="74" width="6" height="6" fill="#2B2B2B"/>
<rect x="50" y="80" width="6" height="6" fill="#2B2B2B"/>
<rect x="56" y="80" width="6" height="6" fill="#2B2B2B"/>
<rect x="62" y="80" width="6" height="6" fill="#2B2B2B"/>
<rect x="50" y="86" width="6" height="6" fill="#2B2B2B"/>
<rect x="56" y="86" width="6" height="6" fill="#2B2B2B"/>
<rect x="32" y="44" width="6" height="6" fill="white"/>
<rect x="38" y="44" width="6" height="6" fill="white"/>
<rect x="44" y="44" width="6" height="6" fill="white"/>
<rect x="26" y="50" width="6" height="6" fill="white"/>
<rect x="32" y="50" width="6" height="6" fill="white"/>
<rect x="38" y="50" width="6" height="6" fill="white"/>
<rect x="44" y="50" width="6" height="6" fill="white"/>
<rect x="26" y="56" width="6" height="6" fill="white"/>
<rect x="26" y="74" width="6" height="6" fill="white"/>
<rect x="26" y="80" width="6" height="6" fill="white"/>
<rect x="32" y="80" width="6" height="6" fill="white"/>
<rect x="32" y="86" width="6" height="6" fill="white"/>
<rect x="38" y="86" width="6" height="6" fill="white"/>
<rect x="20" y="50" width="6" height="6" fill="#D0D0D0"/>
<rect x="20" y="56" width="6" height="6" fill="#D0D0D0"/>
<rect x="26" y="44" width="6" height="6" fill="#D0D0D0"/>
<rect x="20" y="62" width="6" height="6" fill="#D0D0D0"/>
<rect x="20" y="68" width="6" height="6" fill="#D0D0D0"/>
<rect x="20" y="74" width="6" height="6" fill="#D0D0D0"/>
<rect x="20" y="80" width="6" height="6" fill="#D0D0D0"/>
<rect x="26" y="86" width="6" height="6" fill="#D0D0D0"/>
<rect x="32" y="92" width="6" height="6" fill="#D0D0D0"/>
<rect x="38" y="92" width="6" height="6" fill="white"/>
<rect x="44" y="92" width="6" height="6" fill="white"/>
<rect x="50" y="44" width="6" height="6" fill="white"/>
<rect x="50" y="50" width="6" height="6" fill="white"/>
<rect x="56" y="50" width="6" height="6" fill="white"/>
<rect x="50" y="92" width="6" height="6" fill="white"/>
<rect x="56" y="92" width="6" height="6" fill="white"/>
<rect x="20" y="44" width="6" height="6" fill="#474747"/>
<rect x="14" y="50" width="6" height="6" fill="#474747"/>
<rect x="14" y="56" width="6" height="6" fill="#474747"/>
<rect x="26" y="38" width="6" height="6" fill="#474747"/>
<rect x="32" y="38" width="6" height="6" fill="#474747"/>
<rect x="38" y="38" width="6" height="6" fill="#474747"/>
<rect x="44" y="38" width="6" height="6" fill="#474747"/>
<rect x="38" y="18" width="6" height="6" fill="#2DBA5D"/>
<rect x="38" y="12" width="6" height="6" fill="#2DBA5D"/>
<rect x="38" y="24" width="6" height="6" fill="#0EAF45"/>
<rect x="32" y="18" width="6" height="6" fill="#0EAF45"/>
<rect x="44" y="18" width="6" height="6" fill="#2DBA5D"/>
<rect x="58" y="5" width="6" height="6" fill="#62E28E"/>
<rect x="8" y="27" width="6" height="6" fill="#62E28E"/>
<rect x="29" width="6" height="6" fill="#62E28E"/>
<rect x="65" y="35" width="6" height="6" fill="#62E28E"/>
<rect x="80" y="53" width="6" height="6" fill="#62E28E"/>
<rect x="32" y="50" width="6" height="6" fill="#62E28E"/>
<rect y="59" width="6" height="6" fill="#62E28E"/>
<rect x="14" y="62" width="6" height="6" fill="#474747"/>
<rect x="14" y="68" width="6" height="6" fill="#474747"/>
<rect x="14" y="74" width="6" height="6" fill="#474747"/>
<rect x="14" y="80" width="6" height="6" fill="#474747"/>
<rect x="20" y="86" width="6" height="6" fill="#474747"/>
<rect x="26" y="92" width="6" height="6" fill="#474747"/>
<rect x="32" y="98" width="6" height="6" fill="#474747"/>
<rect x="38" y="98" width="6" height="6" fill="#474747"/>
<rect x="44" y="98" width="6" height="6" fill="#474747"/>
<rect x="50" y="38" width="6" height="6" fill="#474747"/>
<rect x="56" y="44" width="6" height="6" fill="#474747"/>
<rect x="62" y="50" width="6" height="6" fill="#474747"/>
<rect x="62" y="86" width="6" height="6" fill="#474747"/>
<rect x="62" y="92" width="6" height="6" fill="#474747"/>
<rect x="50" y="98" width="6" height="6" fill="#474747"/>
<rect x="56" y="98" width="6" height="6" fill="#474747"/>
<rect x="26" y="176" width="6" height="6" fill="#858585"/>
<rect x="32" y="176" width="6" height="6" fill="#858585"/>
<rect x="32" y="182" width="6" height="6" fill="#858585"/>
<rect x="32" y="188" width="6" height="6" fill="#858585"/>
<rect x="26" y="194" width="6" height="6" fill="#858585"/>
<rect x="32" y="194" width="6" height="6" fill="#858585"/>
<rect x="38" y="176" width="6" height="6" fill="#858585"/>
<rect x="50" y="176" width="6" height="6" fill="#858585"/>
<rect x="56" y="176" width="6" height="6" fill="#858585"/>
<rect x="50" y="182" width="6" height="6" fill="#858585"/>
<rect x="50" y="188" width="6" height="6" fill="#858585"/>
<rect x="38" y="194" width="6" height="6" fill="#858585"/>
<rect x="50" y="194" width="6" height="6" fill="#858585"/>
<rect x="56" y="194" width="6" height="6" fill="#858585"/>
<rect x="50" y="206" width="6" height="6" fill="#474747"/>
<rect x="56" y="206" width="6" height="6" fill="#474747"/>
<rect x="32" y="158" width="6" height="6" fill="white"/>
<rect x="32" y="164" width="6" height="6" fill="white"/>
<rect x="32" y="170" width="6" height="6" fill="white"/>
<rect x="26" y="212" width="6" height="6" fill="#9B9B9B"/>
<rect x="32" y="212" width="6" height="6" fill="#9B9B9B"/>
<rect x="26" y="218" width="6" height="6" fill="#9B9B9B"/>
<rect x="32" y="218" width="6" height="6" fill="#9B9B9B"/>
<rect x="38" y="158" width="6" height="6" fill="white"/>
<rect x="56" y="158" width="6" height="6" fill="white"/>
<rect x="38" y="164" width="6" height="6" fill="white"/>
<rect x="56" y="164" width="6" height="6" fill="white"/>
<rect x="38" y="170" width="6" height="6" fill="white"/>
<rect x="56" y="170" width="6" height="6" fill="white"/>
<rect x="38" y="182" width="6" height="6" fill="white"/>
<rect x="56" y="182" width="6" height="6" fill="white"/>
<rect x="38" y="188" width="6" height="6" fill="white"/>
<rect x="56" y="188" width="6" height="6" fill="white"/>
<rect x="26" y="170" width="6" height="6" fill="#D0D0D0"/>
<rect x="26" y="182" width="6" height="6" fill="#D0D0D0"/>
<rect x="26" y="188" width="6" height="6" fill="#D0D0D0"/>
<rect x="26" y="200" width="6" height="6" fill="#D0D0D0"/>
<rect x="32" y="200" width="6" height="6" fill="#D0D0D0"/>
<rect x="50" y="158" width="6" height="6" fill="#D0D0D0"/>
<rect x="50" y="164" width="6" height="6" fill="#D0D0D0"/>
<rect x="50" y="170" width="6" height="6" fill="#D0D0D0"/>
<rect x="38" y="200" width="6" height="6" fill="#D0D0D0"/>
<rect x="50" y="200" width="6" height="6" fill="#D0D0D0"/>
<rect x="56" y="200" width="6" height="6" fill="#D0D0D0"/>
<rect x="38" y="212" width="6" height="6" fill="#9B9B9B"/>
<rect x="50" y="212" width="6" height="6" fill="#9B9B9B"/>
<rect x="56" y="212" width="6" height="6" fill="#9B9B9B"/>
<rect x="38" y="218" width="6" height="6" fill="#9B9B9B"/>
<rect x="44" y="218" width="6" height="6" fill="#9B9B9B"/>
<rect x="56" y="218" width="6" height="6" fill="#9B9B9B"/>
<rect x="62" y="218" width="6" height="6" fill="#9B9B9B"/>
<rect x="44" y="122" width="6" height="6" fill="#62E28E"/>
<rect x="50" y="122" width="6" height="6" fill="#62E28E"/>
<rect x="44" y="116" width="6" height="6" fill="#62E28E"/>
<rect x="50" y="116" width="6" height="6" fill="#62E28E"/>
<rect x="20" y="98" width="6" height="6" fill="#858585"/>
<rect x="26" y="98" width="6" height="6" fill="white"/>
<rect x="14" y="104" width="6" height="6" fill="#858585"/>
<rect x="20" y="104" width="6" height="6" fill="#858585"/>
<rect x="26" y="104" width="6" height="6" fill="white"/>
<rect x="32" y="104" width="6" height="6" fill="#EBEBEB"/>
<rect x="32" y="110" width="6" height="6" fill="white"/>
<rect x="32" y="116" width="6" height="6" fill="white"/>
<rect x="38" y="104" width="6" height="6" fill="#EBEBEB"/>
<rect x="44" y="104" width="6" height="6" fill="#EBEBEB"/>
<rect x="50" y="104" width="6" height="6" fill="#EBEBEB"/>
<rect x="56" y="104" width="6" height="6" fill="#EBEBEB"/>
<rect x="38" y="110" width="6" height="6" fill="white"/>
<rect x="44" y="110" width="6" height="6" fill="white"/>
<rect x="50" y="110" width="6" height="6" fill="#EBEBEB"/>
<rect x="56" y="110" width="6" height="6" fill="#EBEBEB"/>
<rect x="62" y="98" width="6" height="6" fill="#474747"/>
<rect x="62" y="104" width="6" height="6" fill="#474747"/>
<rect x="62" y="110" width="6" height="6" fill="#474747"/>
<rect x="38" y="116" width="6" height="6" fill="white"/>
<rect x="44" y="128" width="6" height="6" fill="white"/>
<rect x="50" y="128" width="6" height="6" fill="white"/>
<rect x="56" y="116" width="6" height="6" fill="#EBEBEB"/>
<rect x="38" y="122" width="6" height="6" fill="white"/>
<rect x="56" y="122" width="6" height="6" fill="#EBEBEB"/>
<rect x="38" y="128" width="6" height="6" fill="white"/>
<rect x="56" y="128" width="6" height="6" fill="#EBEBEB"/>
<rect x="38" y="134" width="6" height="6" fill="white"/>
<rect x="44" y="134" width="6" height="6" fill="white"/>
<rect x="50" y="134" width="6" height="6" fill="white"/>
<rect x="56" y="134" width="6" height="6" fill="#EBEBEB"/>
<rect x="38" y="140" width="6" height="6" fill="white"/>
<rect x="44" y="140" width="6" height="6" fill="white"/>
<rect x="50" y="140" width="6" height="6" fill="white"/>
<rect x="56" y="140" width="6" height="6" fill="white"/>
<rect x="32" y="122" width="6" height="6" fill="#D0D0D0"/>
<rect x="32" y="128" width="6" height="6" fill="#D0D0D0"/>
<rect x="32" y="134" width="6" height="6" fill="#D0D0D0"/>
<rect x="32" y="140" width="6" height="6" fill="#D0D0D0"/>
<rect x="32" y="146" width="6" height="6" fill="#D0D0D0"/>
<rect x="38" y="146" width="6" height="6" fill="#D0D0D0"/>
<rect x="44" y="146" width="6" height="6" fill="#D0D0D0"/>
<rect x="50" y="146" width="6" height="6" fill="#D0D0D0"/>
<rect x="56" y="146" width="6" height="6" fill="#D0D0D0"/>
<rect x="32" y="152" width="6" height="6" fill="#474747"/>
<rect x="20" y="176" width="6" height="6" fill="#474747"/>
<rect x="20" y="182" width="6" height="6" fill="#474747"/>
<rect x="20" y="188" width="6" height="6" fill="#474747"/>
<rect x="20" y="194" width="6" height="6" fill="#474747"/>
<rect x="20" y="200" width="6" height="6" fill="#474747"/>
<rect x="20" y="206" width="6" height="6" fill="#474747"/>
<rect x="26" y="206" width="6" height="6" fill="#474747"/>
<rect x="32" y="206" width="6" height="6" fill="#474747"/>
<rect x="20" y="212" width="6" height="6" fill="#474747"/>
<rect x="20" y="218" width="6" height="6" fill="#474747"/>
<rect x="20" y="224" width="6" height="6" fill="#474747"/>
<rect x="26" y="224" width="6" height="6" fill="#474747"/>
<rect x="32" y="224" width="6" height="6" fill="#474747"/>
<rect x="38" y="152" width="6" height="6" fill="#474747"/>
<rect x="44" y="152" width="6" height="6" fill="#474747"/>
<rect x="50" y="152" width="6" height="6" fill="#474747"/>
<rect x="56" y="152" width="6" height="6" fill="#474747"/>
<rect x="44" y="158" width="6" height="6" fill="#474747"/>
<rect x="44" y="164" width="6" height="6" fill="#474747"/>
<rect x="44" y="170" width="6" height="6" fill="#474747"/>
<rect x="44" y="176" width="6" height="6" fill="#474747"/>
<rect x="44" y="182" width="6" height="6" fill="#474747"/>
<rect x="62" y="152" width="6" height="6" fill="#474747"/>
<rect x="62" y="158" width="6" height="6" fill="#474747"/>
<rect x="62" y="164" width="6" height="6" fill="#474747"/>
<rect x="62" y="170" width="6" height="6" fill="#474747"/>
<rect x="62" y="176" width="6" height="6" fill="#474747"/>
<rect x="62" y="182" width="6" height="6" fill="#474747"/>
<rect x="44" y="188" width="6" height="6" fill="#474747"/>
<rect x="44" y="194" width="6" height="6" fill="#474747"/>
<rect x="44" y="200" width="6" height="6" fill="#474747"/>
<rect x="38" y="206" width="6" height="6" fill="#474747"/>
<rect x="44" y="206" width="6" height="6" fill="#474747"/>
<rect x="44" y="212" width="6" height="6" fill="#474747"/>
<rect x="50" y="218" width="6" height="6" fill="#474747"/>
<rect x="62" y="188" width="6" height="6" fill="#474747"/>
<rect x="62" y="194" width="6" height="6" fill="#474747"/>
<rect x="62" y="200" width="6" height="6" fill="#474747"/>
<rect x="62" y="206" width="6" height="6" fill="#474747"/>
<rect x="62" y="212" width="6" height="6" fill="#474747"/>
<rect x="68" y="218" width="6" height="6" fill="#474747"/>
<rect x="38" y="224" width="6" height="6" fill="#474747"/>
<rect x="44" y="224" width="6" height="6" fill="#474747"/>
<rect x="50" y="224" width="6" height="6" fill="#474747"/>
<rect x="56" y="224" width="6" height="6" fill="#474747"/>
<rect x="62" y="224" width="6" height="6" fill="#474747"/>
<rect x="68" y="224" width="6" height="6" fill="#474747"/>
<rect x="8" y="104" width="6" height="6" fill="#474747"/>
<rect x="14" y="98" width="6" height="6" fill="#474747"/>
<rect x="62" y="116" width="6" height="6" fill="#474747"/>
<rect x="62" y="122" width="6" height="6" fill="#474747"/>
<rect x="62" y="128" width="6" height="6" fill="#474747"/>
<rect x="62" y="134" width="6" height="6" fill="#474747"/>
<rect x="62" y="140" width="6" height="6" fill="#474747"/>
<rect x="62" y="146" width="6" height="6" fill="#474747"/>
<rect x="50" y="146" width="6" height="6" fill="#9B9B9B"/>
<rect x="14" y="146" width="6" height="6" fill="#858585"/>
<rect x="20" y="140" width="6" height="6" fill="#858585"/>
<rect x="14" y="140" width="6" height="6" fill="#858585"/>
<rect x="20" y="110" width="6" height="6" fill="white"/>
<rect x="26" y="110" width="6" height="6" fill="white"/>
<rect x="20" y="116" width="6" height="6" fill="white"/>
<rect x="20" y="122" width="6" height="6" fill="white"/>
<rect x="20" y="128" width="6" height="6" fill="white"/>
<rect x="20" y="146" width="6" height="6" fill="#858585"/>
<rect x="20" y="134" width="6" height="6" fill="white"/>
<rect x="32" y="140" width="6" height="6" fill="white"/>
<rect x="26" y="140" width="6" height="6" fill="white"/>
<rect x="14" y="128" width="6" height="6" fill="#D0D0D0"/>
<rect x="14" y="122" width="6" height="6" fill="#D0D0D0"/>
<rect x="14" y="110" width="6" height="6" fill="#D0D0D0"/>
<rect x="14" y="116" width="6" height="6" fill="#D0D0D0"/>
<rect x="14" y="134" width="6" height="6" fill="#D0D0D0"/>
<rect x="26" y="146" width="6" height="6" fill="#D0D0D0"/>
<rect x="20" y="152" width="6" height="6" fill="#474747"/>
<rect x="20" y="164" width="6" height="6" fill="#474747"/>
<rect x="14" y="146" width="6" height="6" fill="#474747"/>
<rect x="50" y="134" width="6" height="6" fill="#474747"/>
<rect x="26" y="152" width="6" height="6" fill="#474747"/>
<rect x="56" y="146" width="6" height="6" fill="#474747"/>
<rect x="20" y="158" width="6" height="6" fill="#474747"/>
<rect x="44" y="134" width="6" height="6" fill="#474747"/>
<rect x="26" y="164" width="6" height="6" fill="#D0D0D0"/>
<rect x="26" y="158" width="6" height="6" fill="#D0D0D0"/>
<rect x="56" y="140" width="6" height="6" fill="#474747"/>
<rect x="20" y="170" width="6" height="6" fill="#474747"/>
<rect x="8" y="110" width="6" height="6" fill="#474747"/>
<rect x="8" y="116" width="6" height="6" fill="#474747"/>
<rect x="8" y="122" width="6" height="6" fill="#474747"/>
<rect x="8" y="128" width="6" height="6" fill="#474747"/>
<rect x="8" y="134" width="6" height="6" fill="#474747"/>
<rect x="8" y="140" width="6" height="6" fill="#474747"/>
<rect x="26" y="116" width="6" height="6" fill="#474747"/>
<rect x="26" y="122" width="6" height="6" fill="#474747"/>
<rect x="26" y="128" width="6" height="6" fill="#474747"/>
<rect x="26" y="134" width="6" height="6" fill="#474747"/>
<rect x="32" y="134" width="6" height="6" fill="#474747"/>
<rect x="38" y="134" width="6" height="6" fill="#474747"/>
<rect x="50" y="140" width="6" height="6" fill="#9B9B9B"/>
<rect x="104" y="116" width="6" height="6" transform="rotate(-90 104 116)" fill="#9B9B9B"/>
<rect x="74" y="116" width="6" height="6" transform="rotate(-90 74 116)" fill="#858585"/>
<rect x="80" y="110" width="6" height="6" transform="rotate(-90 80 110)" fill="#858585"/>
<rect x="86" y="116" width="6" height="6" transform="rotate(-90 86 116)" fill="#858585"/>
<rect x="68" y="110" width="6" height="6" transform="rotate(-90 68 110)" fill="white"/>
<rect x="74" y="110" width="6" height="6" transform="rotate(-90 74 110)" fill="white"/>
<rect x="80" y="116" width="6" height="6" transform="rotate(-90 80 116)" fill="#858585"/>
<rect x="86" y="110" width="6" height="6" transform="rotate(-90 86 110)" fill="white"/>
<rect x="92" y="110" width="6" height="6" transform="rotate(-90 92 110)" fill="white"/>
<rect x="98" y="110" width="6" height="6" transform="rotate(-90 98 110)" fill="#9B9B9B"/>
<rect x="104" y="116" width="6" height="6" transform="rotate(-90 104 116)" fill="#D0D0D0"/>
<rect x="104" y="110" width="6" height="6" transform="rotate(-90 104 110)" fill="#D0D0D0"/>
<rect x="68" y="116" width="6" height="6" transform="rotate(-90 68 116)" fill="#D0D0D0"/>
<rect x="92" y="116" width="6" height="6" transform="rotate(-90 92 116)" fill="#D0D0D0"/>
<rect x="98" y="116" width="6" height="6" transform="rotate(-90 98 116)" fill="#D0D0D0"/>
<rect x="104" y="122" width="6" height="6" transform="rotate(-90 104 122)" fill="#474747"/>
<rect x="98" y="122" width="6" height="6" transform="rotate(-90 98 122)" fill="#474747"/>
<rect x="104" y="122" width="6" height="6" transform="rotate(-90 104 122)" fill="#474747"/>
<rect x="104" y="104" width="6" height="6" transform="rotate(-90 104 104)" fill="#474747"/>
<rect x="92" y="116" width="6" height="6" transform="rotate(-90 92 116)" fill="#474747"/>
<rect x="92" y="110" width="6" height="6" transform="rotate(-90 92 110)" fill="#474747"/>
<rect x="98" y="104" width="6" height="6" transform="rotate(-90 98 104)" fill="#474747"/>
<rect x="104" y="104" width="6" height="6" transform="rotate(-90 104 104)" fill="#474747"/>
<rect x="110" y="116" width="6" height="6" transform="rotate(-90 110 116)" fill="#474747"/>
<rect x="110" y="110" width="6" height="6" transform="rotate(-90 110 110)" fill="#474747"/>
<rect x="68" y="122" width="6" height="6" transform="rotate(-90 68 122)" fill="#474747"/>
<rect x="74" y="122" width="6" height="6" transform="rotate(-90 74 122)" fill="#474747"/>
<rect x="80" y="122" width="6" height="6" transform="rotate(-90 80 122)" fill="#474747"/>
<rect x="86" y="122" width="6" height="6" transform="rotate(-90 86 122)" fill="#474747"/>
<rect x="92" y="122" width="6" height="6" transform="rotate(-90 92 122)" fill="#474747"/>
<rect x="98" y="122" width="6" height="6" transform="rotate(-90 98 122)" fill="#474747"/>
<rect x="68" y="104" width="6" height="6" transform="rotate(-90 68 104)" fill="#474747"/>
<rect x="74" y="104" width="6" height="6" transform="rotate(-90 74 104)" fill="#474747"/>
<rect x="80" y="104" width="6" height="6" transform="rotate(-90 80 104)" fill="#474747"/>
<rect x="86" y="104" width="6" height="6" transform="rotate(-90 86 104)" fill="#474747"/>
<rect x="92" y="104" width="6" height="6" transform="rotate(-90 92 104)" fill="#474747"/>
<rect x="98" y="104" width="6" height="6" transform="rotate(-90 98 104)" fill="#474747"/>
<rect x="104" y="110" width="6" height="6" transform="rotate(-90 104 110)" fill="#9B9B9B"/>
<rect x="86" y="110" width="6" height="6" fill="white"/>
<rect x="80" y="110" width="6" height="6" fill="white"/>
<rect x="74" y="110" width="6" height="6" fill="white"/>
<rect x="68" y="110" width="6" height="6" fill="white"/>
<rect x="62" y="110" width="6" height="6" fill="white"/>
<rect x="56" y="110" width="6" height="6" fill="#E40E0E"/>
<rect x="86" y="134" width="6" height="6" fill="white"/>
<rect x="80" y="134" width="6" height="6" fill="white"/>
<rect x="74" y="134" width="6" height="6" fill="white"/>
<rect x="68" y="134" width="6" height="6" fill="white"/>
<rect x="62" y="134" width="6" height="6" fill="white"/>
<rect x="56" y="134" width="6" height="6" fill="#E40E0E"/>
<rect x="86" y="116" width="6" height="6" fill="white"/>
<rect x="80" y="116" width="6" height="6" fill="white"/>
<rect x="74" y="116" width="6" height="6" fill="#E40E0E"/>
<rect x="68" y="116" width="6" height="6" fill="white"/>
<rect x="62" y="116" width="6" height="6" fill="white"/>
<rect x="56" y="116" width="6" height="6" fill="white"/>
<rect x="86" y="122" width="6" height="6" fill="white"/>
<rect x="80" y="122" width="6" height="6" fill="#E40E0E"/>
<rect x="74" y="122" width="6" height="6" fill="#E40E0E"/>
<rect x="68" y="122" width="6" height="6" fill="#E40E0E"/>
<rect x="62" y="122" width="6" height="6" fill="white"/>
<rect x="56" y="122" width="6" height="6" fill="white"/>
<rect x="86" y="128" width="6" height="6" fill="white"/>
<rect x="92" y="110" width="6" height="6" fill="#E40E0E"/>
<rect x="92" y="134" width="6" height="6" fill="#E40E0E"/>
<rect x="92" y="116" width="6" height="6" fill="white"/>
<rect x="92" y="122" width="6" height="6" fill="white"/>
<rect x="92" y="128" width="6" height="6" fill="white"/>
<rect x="80" y="128" width="6" height="6" fill="white"/>
<rect x="74" y="128" width="6" height="6" fill="#E40E0E"/>
<rect x="68" y="128" width="6" height="6" fill="white"/>
<rect x="62" y="128" width="6" height="6" fill="white"/>
<rect x="56" y="128" width="6" height="6" fill="white"/>
</svg>
