<svg width="174" height="192" viewBox="0 0 174 192" fill="none" xmlns="http://www.w3.org/2000/svg">
<rect x="36" y="24" width="6" height="6" fill="#505050"/>
<rect x="36" y="42" width="6" height="6" fill="#505050"/>
<rect x="48" y="30" width="6" height="6" fill="#505050"/>
<rect x="30" y="30" width="6" height="6" fill="#777777"/>
<rect x="42" y="18" width="6" height="6" fill="#777777"/>
<rect x="54" y="24" width="6" height="6" fill="#777777"/>
<rect x="42" y="36" width="6" height="6" fill="#777777"/>
<rect x="24" y="18" width="6" height="6" fill="#2B2B2B"/>
<rect x="30" y="18" width="6" height="6" fill="#2B2B2B"/>
<rect x="36" y="18" width="6" height="6" fill="#2B2B2B"/>
<rect x="18" y="24" width="6" height="6" fill="#2B2B2B"/>
<rect x="24" y="24" width="6" height="6" fill="#2B2B2B"/>
<rect x="30" y="24" width="6" height="6" fill="#2B2B2B"/>
<rect x="18" y="30" width="6" height="6" fill="#2B2B2B"/>
<rect x="24" y="30" width="6" height="6" fill="#2B2B2B"/>
<rect x="36" y="30" width="6" height="6" fill="#2B2B2B"/>
<rect x="24" y="36" width="6" height="6" fill="#2B2B2B"/>
<rect x="30" y="36" width="6" height="6" fill="#2B2B2B"/>
<rect x="36" y="36" width="6" height="6" fill="#2B2B2B"/>
<rect x="30" y="42" width="6" height="6" fill="#2B2B2B"/>
<rect x="36" y="48" width="6" height="6" fill="#2B2B2B"/>
<rect x="48" y="18" width="6" height="6" fill="#2B2B2B"/>
<rect x="54" y="18" width="6" height="6" fill="#2B2B2B"/>
<rect x="42" y="24" width="6" height="6" fill="#2B2B2B"/>
<rect x="48" y="24" width="6" height="6" fill="#2B2B2B"/>
<rect x="42" y="30" width="6" height="6" fill="#2B2B2B"/>
<rect x="54" y="30" width="6" height="6" fill="#2B2B2B"/>
<rect x="48" y="36" width="6" height="6" fill="#2B2B2B"/>
<rect x="54" y="36" width="6" height="6" fill="#2B2B2B"/>
<rect x="42" y="42" width="6" height="6" fill="#2B2B2B"/>
<rect x="48" y="42" width="6" height="6" fill="#2B2B2B"/>
<rect x="54" y="42" width="6" height="6" fill="#2B2B2B"/>
<rect x="42" y="48" width="6" height="6" fill="#2B2B2B"/>
<rect x="48" y="48" width="6" height="6" fill="#2B2B2B"/>
<rect x="24" y="6" width="6" height="6" fill="white"/>
<rect x="30" y="6" width="6" height="6" fill="white"/>
<rect x="36" y="6" width="6" height="6" fill="white"/>
<rect x="18" y="12" width="6" height="6" fill="white"/>
<rect x="24" y="12" width="6" height="6" fill="white"/>
<rect x="30" y="12" width="6" height="6" fill="white"/>
<rect x="36" y="12" width="6" height="6" fill="white"/>
<rect x="18" y="18" width="6" height="6" fill="white"/>
<rect x="18" y="36" width="6" height="6" fill="white"/>
<rect x="18" y="42" width="6" height="6" fill="white"/>
<rect x="24" y="42" width="6" height="6" fill="white"/>
<rect x="24" y="48" width="6" height="6" fill="white"/>
<rect x="30" y="48" width="6" height="6" fill="white"/>
<rect x="12" y="12" width="6" height="6" fill="#D0D0D0"/>
<rect x="12" y="18" width="6" height="6" fill="#D0D0D0"/>
<rect x="18" y="6" width="6" height="6" fill="#D0D0D0"/>
<rect x="12" y="24" width="6" height="6" fill="#D0D0D0"/>
<rect x="12" y="30" width="6" height="6" fill="#D0D0D0"/>
<rect x="12" y="36" width="6" height="6" fill="#D0D0D0"/>
<rect x="12" y="42" width="6" height="6" fill="#D0D0D0"/>
<rect x="18" y="48" width="6" height="6" fill="#D0D0D0"/>
<rect x="24" y="54" width="6" height="6" fill="#D0D0D0"/>
<rect x="30" y="54" width="6" height="6" fill="white"/>
<rect x="36" y="54" width="6" height="6" fill="white"/>
<rect x="42" y="6" width="6" height="6" fill="white"/>
<rect x="42" y="12" width="6" height="6" fill="white"/>
<rect x="48" y="12" width="6" height="6" fill="white"/>
<rect x="42" y="54" width="6" height="6" fill="white"/>
<rect x="48" y="54" width="6" height="6" fill="white"/>
<rect x="12" y="6" width="6" height="6" fill="#474747"/>
<rect x="6" y="12" width="6" height="6" fill="#474747"/>
<rect x="6" y="18" width="6" height="6" fill="#474747"/>
<rect x="18" width="6" height="6" fill="#474747"/>
<rect x="24" width="6" height="6" fill="#474747"/>
<rect x="30" width="6" height="6" fill="#474747"/>
<rect x="36" width="6" height="6" fill="#474747"/>
<rect x="6" y="24" width="6" height="6" fill="#474747"/>
<rect x="6" y="30" width="6" height="6" fill="#474747"/>
<rect x="6" y="36" width="6" height="6" fill="#474747"/>
<rect x="6" y="42" width="6" height="6" fill="#474747"/>
<rect x="12" y="48" width="6" height="6" fill="#474747"/>
<rect x="18" y="54" width="6" height="6" fill="#474747"/>
<rect x="24" y="60" width="6" height="6" fill="#474747"/>
<rect x="30" y="60" width="6" height="6" fill="#474747"/>
<rect x="36" y="60" width="6" height="6" fill="#474747"/>
<rect x="42" width="6" height="6" fill="#474747"/>
<rect x="48" y="6" width="6" height="6" fill="#474747"/>
<rect x="54" y="12" width="6" height="6" fill="#474747"/>
<rect x="54" y="48" width="6" height="6" fill="#474747"/>
<rect x="54" y="54" width="6" height="6" fill="#474747"/>
<rect x="42" y="60" width="6" height="6" fill="#474747"/>
<rect x="48" y="60" width="6" height="6" fill="#474747"/>
<rect x="18" y="138" width="6" height="6" fill="#858585"/>
<rect x="24" y="138" width="6" height="6" fill="#858585"/>
<rect x="24" y="144" width="6" height="6" fill="#858585"/>
<rect x="24" y="150" width="6" height="6" fill="#858585"/>
<rect x="18" y="156" width="6" height="6" fill="#858585"/>
<rect x="24" y="156" width="6" height="6" fill="#858585"/>
<rect x="30" y="138" width="6" height="6" fill="#858585"/>
<rect x="42" y="138" width="6" height="6" fill="#858585"/>
<rect x="48" y="138" width="6" height="6" fill="#858585"/>
<rect x="42" y="144" width="6" height="6" fill="#858585"/>
<rect x="42" y="150" width="6" height="6" fill="#858585"/>
<rect x="30" y="156" width="6" height="6" fill="#858585"/>
<rect x="42" y="156" width="6" height="6" fill="#858585"/>
<rect x="48" y="156" width="6" height="6" fill="#858585"/>
<rect x="42" y="168" width="6" height="6" fill="#474747"/>
<rect x="48" y="168" width="6" height="6" fill="#474747"/>
<rect x="24" y="120" width="6" height="6" fill="white"/>
<rect x="24" y="126" width="6" height="6" fill="white"/>
<rect x="24" y="132" width="6" height="6" fill="white"/>
<rect x="18" y="174" width="6" height="6" fill="#9B9B9B"/>
<rect x="24" y="174" width="6" height="6" fill="#9B9B9B"/>
<rect x="18" y="180" width="6" height="6" fill="#9B9B9B"/>
<rect x="24" y="180" width="6" height="6" fill="#9B9B9B"/>
<rect x="30" y="120" width="6" height="6" fill="white"/>
<rect x="48" y="120" width="6" height="6" fill="white"/>
<rect x="30" y="126" width="6" height="6" fill="white"/>
<rect x="48" y="126" width="6" height="6" fill="white"/>
<rect x="30" y="132" width="6" height="6" fill="white"/>
<rect x="48" y="132" width="6" height="6" fill="white"/>
<rect x="30" y="144" width="6" height="6" fill="white"/>
<rect x="48" y="144" width="6" height="6" fill="white"/>
<rect x="30" y="150" width="6" height="6" fill="white"/>
<rect x="48" y="150" width="6" height="6" fill="white"/>
<rect x="18" y="132" width="6" height="6" fill="#D0D0D0"/>
<rect x="18" y="144" width="6" height="6" fill="#D0D0D0"/>
<rect x="18" y="150" width="6" height="6" fill="#D0D0D0"/>
<rect x="18" y="162" width="6" height="6" fill="#D0D0D0"/>
<rect x="24" y="162" width="6" height="6" fill="#D0D0D0"/>
<rect x="42" y="120" width="6" height="6" fill="#D0D0D0"/>
<rect x="42" y="126" width="6" height="6" fill="#D0D0D0"/>
<rect x="42" y="132" width="6" height="6" fill="#D0D0D0"/>
<rect x="30" y="162" width="6" height="6" fill="#D0D0D0"/>
<rect x="42" y="162" width="6" height="6" fill="#D0D0D0"/>
<rect x="48" y="162" width="6" height="6" fill="#D0D0D0"/>
<rect x="30" y="174" width="6" height="6" fill="#9B9B9B"/>
<rect x="42" y="174" width="6" height="6" fill="#9B9B9B"/>
<rect x="48" y="174" width="6" height="6" fill="#9B9B9B"/>
<rect x="30" y="180" width="6" height="6" fill="#9B9B9B"/>
<rect x="36" y="180" width="6" height="6" fill="#9B9B9B"/>
<rect x="48" y="180" width="6" height="6" fill="#9B9B9B"/>
<rect x="54" y="180" width="6" height="6" fill="#9B9B9B"/>
<rect x="36" y="84" width="6" height="6" fill="#EBEBEB"/>
<rect x="42" y="84" width="6" height="6" fill="#EBEBEB"/>
<rect x="36" y="90" width="6" height="6" fill="#60D9FF"/>
<rect x="42" y="90" width="6" height="6" fill="#EBEBEB"/>
<rect x="12" y="60" width="6" height="6" fill="#858585"/>
<rect x="18" y="60" width="6" height="6" fill="white"/>
<rect x="6" y="66" width="6" height="6" fill="#858585"/>
<rect x="12" y="66" width="6" height="6" fill="#858585"/>
<rect x="18" y="66" width="6" height="6" fill="white"/>
<rect x="24" y="66" width="6" height="6" fill="#EBEBEB"/>
<rect x="24" y="72" width="6" height="6" fill="white"/>
<rect x="24" y="78" width="6" height="6" fill="white"/>
<rect x="30" y="66" width="6" height="6" fill="#EBEBEB"/>
<rect x="36" y="66" width="6" height="6" fill="#EBEBEB"/>
<rect x="42" y="66" width="6" height="6" fill="#EBEBEB"/>
<rect x="48" y="66" width="6" height="6" fill="#EBEBEB"/>
<rect x="30" y="72" width="6" height="6" fill="white"/>
<rect x="36" y="72" width="6" height="6" fill="white"/>
<rect x="42" y="72" width="6" height="6" fill="#EBEBEB"/>
<rect x="48" y="72" width="6" height="6" fill="#EBEBEB"/>
<rect x="54" y="60" width="6" height="6" fill="#474747"/>
<rect x="54" y="66" width="6" height="6" fill="#474747"/>
<rect x="54" y="72" width="6" height="6" fill="#474747"/>
<rect x="30" y="78" width="6" height="6" fill="white"/>
<rect x="36" y="78" width="6" height="6" fill="white"/>
<rect x="42" y="78" width="6" height="6" fill="white"/>
<rect x="48" y="78" width="6" height="6" fill="#EBEBEB"/>
<rect x="30" y="84" width="6" height="6" fill="white"/>
<rect x="48" y="84" width="6" height="6" fill="#EBEBEB"/>
<rect x="30" y="90" width="6" height="6" fill="white"/>
<rect x="48" y="90" width="6" height="6" fill="#EBEBEB"/>
<rect x="30" y="96" width="6" height="6" fill="white"/>
<rect x="36" y="96" width="6" height="6" fill="white"/>
<rect x="42" y="96" width="6" height="6" fill="white"/>
<rect x="48" y="96" width="6" height="6" fill="#EBEBEB"/>
<rect x="30" y="102" width="6" height="6" fill="#D0D0D0"/>
<rect x="36" y="102" width="6" height="6" fill="#474747"/>
<rect x="42" y="102" width="6" height="6" fill="#D0D0D0"/>
<rect x="48" y="102" width="6" height="6" fill="white"/>
<rect x="24" y="84" width="6" height="6" fill="#D0D0D0"/>
<rect x="24" y="90" width="6" height="6" fill="#D0D0D0"/>
<rect x="24" y="96" width="6" height="6" fill="white"/>
<rect x="24" y="102" width="6" height="6" fill="#D0D0D0"/>
<rect x="24" y="108" width="6" height="6" fill="#D0D0D0"/>
<rect x="30" y="108" width="6" height="6" fill="#D0D0D0"/>
<rect x="36" y="108" width="6" height="6" fill="#D0D0D0"/>
<rect x="42" y="108" width="6" height="6" fill="white"/>
<rect x="48" y="108" width="6" height="6" fill="#D0D0D0"/>
<rect x="24" y="114" width="6" height="6" fill="#474747"/>
<rect x="12" y="138" width="6" height="6" fill="#474747"/>
<rect x="12" y="144" width="6" height="6" fill="#474747"/>
<rect x="12" y="150" width="6" height="6" fill="#474747"/>
<rect x="12" y="156" width="6" height="6" fill="#474747"/>
<rect x="12" y="162" width="6" height="6" fill="#474747"/>
<rect x="12" y="168" width="6" height="6" fill="#474747"/>
<rect x="18" y="168" width="6" height="6" fill="#474747"/>
<rect x="24" y="168" width="6" height="6" fill="#474747"/>
<rect x="12" y="174" width="6" height="6" fill="#474747"/>
<rect x="12" y="180" width="6" height="6" fill="#474747"/>
<rect x="12" y="186" width="6" height="6" fill="#474747"/>
<rect x="18" y="186" width="6" height="6" fill="#474747"/>
<rect x="24" y="186" width="6" height="6" fill="#474747"/>
<rect x="30" y="114" width="6" height="6" fill="#474747"/>
<rect x="48" y="102" width="6" height="6" fill="#474747"/>
<rect x="36" y="108" width="6" height="6" fill="#D0D0D0"/>
<rect x="30" y="108" width="6" height="6" fill="#474747"/>
<rect x="24" y="108" width="6" height="6" fill="#474747"/>
<rect x="18" y="108" width="6" height="6" fill="#D0D0D0"/>
<rect x="36" y="114" width="6" height="6" fill="#474747"/>
<rect x="55" y="67" width="6" height="6" fill="#474747"/>
<rect x="42" y="114" width="6" height="6" fill="#474747"/>
<rect x="48" y="114" width="6" height="6" fill="#474747"/>
<rect x="36" y="120" width="6" height="6" fill="#474747"/>
<rect x="36" y="126" width="6" height="6" fill="#474747"/>
<rect x="36" y="132" width="6" height="6" fill="#474747"/>
<rect x="36" y="138" width="6" height="6" fill="#474747"/>
<rect x="36" y="144" width="6" height="6" fill="#474747"/>
<rect x="54" y="114" width="6" height="6" fill="#474747"/>
<rect x="54" y="120" width="6" height="6" fill="#474747"/>
<rect x="54" y="126" width="6" height="6" fill="#474747"/>
<rect x="54" y="132" width="6" height="6" fill="#474747"/>
<rect x="54" y="138" width="6" height="6" fill="#474747"/>
<rect x="54" y="144" width="6" height="6" fill="#474747"/>
<rect x="36" y="150" width="6" height="6" fill="#474747"/>
<rect x="36" y="156" width="6" height="6" fill="#474747"/>
<rect x="36" y="162" width="6" height="6" fill="#474747"/>
<rect x="30" y="168" width="6" height="6" fill="#474747"/>
<rect x="36" y="168" width="6" height="6" fill="#474747"/>
<rect x="36" y="174" width="6" height="6" fill="#474747"/>
<rect x="42" y="180" width="6" height="6" fill="#474747"/>
<rect x="54" y="150" width="6" height="6" fill="#474747"/>
<rect x="54" y="156" width="6" height="6" fill="#474747"/>
<rect x="54" y="162" width="6" height="6" fill="#474747"/>
<rect x="54" y="168" width="6" height="6" fill="#474747"/>
<rect x="54" y="174" width="6" height="6" fill="#474747"/>
<rect x="60" y="180" width="6" height="6" fill="#474747"/>
<rect x="30" y="186" width="6" height="6" fill="#474747"/>
<rect x="36" y="186" width="6" height="6" fill="#474747"/>
<rect x="42" y="186" width="6" height="6" fill="#474747"/>
<rect x="48" y="186" width="6" height="6" fill="#474747"/>
<rect x="54" y="186" width="6" height="6" fill="#474747"/>
<rect x="60" y="186" width="6" height="6" fill="#474747"/>
<rect y="66" width="6" height="6" fill="#474747"/>
<rect x="6" y="60" width="6" height="6" fill="#474747"/>
<rect x="54" y="78" width="6" height="6" fill="#474747"/>
<rect x="54" y="84" width="6" height="6" fill="#EBEBEB"/>
<rect x="54" y="90" width="6" height="6" fill="#474747"/>
<rect x="54" y="96" width="6" height="6" fill="#474747"/>
<rect x="54" y="102" width="6" height="6" fill="#474747"/>
<rect x="54" y="108" width="6" height="6" fill="#474747"/>
<rect x="66" y="91" width="6" height="6" transform="rotate(-90 66 91)" fill="#858585"/>
<rect x="72" y="91" width="6" height="6" transform="rotate(-90 72 91)" fill="#858585"/>
<rect x="78" y="91" width="6" height="6" transform="rotate(-90 78 91)" fill="#858585"/>
<rect x="60" y="79" width="6" height="6" transform="rotate(-90 60 79)" fill="white"/>
<rect x="66" y="85" width="6" height="6" transform="rotate(-90 66 85)" fill="white"/>
<rect x="72" y="97" width="6" height="6" transform="rotate(-90 72 97)" fill="#858585"/>
<rect x="78" y="85" width="6" height="6" transform="rotate(-90 78 85)" fill="white"/>
<rect x="84" y="79" width="6" height="6" transform="rotate(-90 84 79)" fill="white"/>
<rect x="90" y="79" width="6" height="6" transform="rotate(-90 90 79)" fill="white"/>
<rect x="60" y="85" width="6" height="6" transform="rotate(-90 60 85)" fill="#D0D0D0"/>
<rect x="84" y="85" width="6" height="6" transform="rotate(-90 84 85)" fill="#D0D0D0"/>
<rect x="90" y="85" width="6" height="6" transform="rotate(-90 90 85)" fill="#D0D0D0"/>
<rect x="90" y="79" width="6" height="6" transform="rotate(-90 90 79)" fill="#474747"/>
<rect x="60" y="91" width="6" height="6" transform="rotate(-90 60 91)" fill="#474747"/>
<rect x="66" y="97" width="6" height="6" transform="rotate(-90 66 97)" fill="#474747"/>
<rect x="72" y="103" width="6" height="6" transform="rotate(-90 72 103)" fill="#474747"/>
<rect x="78" y="97" width="6" height="6" transform="rotate(-90 78 97)" fill="#474747"/>
<rect x="84" y="91" width="6" height="6" transform="rotate(-90 84 91)" fill="#474747"/>
<rect x="90" y="85" width="6" height="6" transform="rotate(-90 90 85)" fill="#474747"/>
<rect x="60" y="73" width="6" height="6" transform="rotate(-90 60 73)" fill="#474747"/>
<rect x="66" y="79" width="6" height="6" transform="rotate(-90 66 79)" fill="#474747"/>
<rect x="72" y="85" width="6" height="6" transform="rotate(-90 72 85)" fill="#474747"/>
<rect x="78" y="79" width="6" height="6" transform="rotate(-90 78 79)" fill="#474747"/>
<rect x="90" y="73" width="6" height="6" transform="rotate(-90 90 73)" fill="#474747"/>
<rect x="48" y="72" width="6" height="6" fill="#7A2D2D"/>
<rect x="60" y="60" width="6" height="6" fill="#50BCB6"/>
<rect x="66" y="60" width="6" height="6" fill="#50BCB6"/>
<rect x="72" y="60" width="6" height="6" fill="#50BCB6"/>
<rect x="54" y="66" width="6" height="6" fill="#50BCB6"/>
<rect x="54" y="72" width="6" height="6" fill="#7A2D2D"/>
<rect x="60" y="72" width="6" height="6" fill="#7A2D2D"/>
<rect x="66" y="72" width="6" height="6" fill="#7A2D2D"/>
<rect x="72" y="72" width="6" height="6" fill="#7A2D2D"/>
<rect x="60" y="78" width="6" height="6" fill="#410E0E"/>
<rect x="66" y="78" width="6" height="6" fill="#410E0E"/>
<rect x="72" y="78" width="6" height="6" fill="#410E0E"/>
<rect x="60" y="84" width="6" height="6" fill="#410E0E"/>
<rect x="66" y="84" width="6" height="6" fill="#410E0E"/>
<rect x="72" y="84" width="6" height="6" fill="#410E0E"/>
<rect x="78" y="60" width="6" height="6" fill="#50BCB6"/>
<rect x="84" y="60" width="6" height="6" fill="#50BCB6"/>
<rect x="90" y="60" width="6" height="6" fill="#50BCB6"/>
<rect x="90" y="66" width="6" height="6" fill="#50BCB6"/>
<rect x="78" y="72" width="6" height="6" fill="#7A2D2D"/>
<rect x="84" y="72" width="6" height="6" fill="#7A2D2D"/>
<rect x="90" y="72" width="6" height="6" fill="#7A2D2D"/>
<rect x="96" y="72" width="6" height="6" fill="#7A2D2D"/>
<rect x="78" y="78" width="6" height="6" fill="#410E0E"/>
<rect x="84" y="78" width="6" height="6" fill="#410E0E"/>
<rect x="90" y="78" width="6" height="6" fill="#410E0E"/>
<rect x="96" y="78" width="6" height="6" fill="#50BCB6"/>
<rect x="78" y="84" width="6" height="6" fill="#410E0E"/>
<rect x="84" y="84" width="6" height="6" fill="#410E0E"/>
<rect x="90" y="84" width="6" height="6" fill="#410E0E"/>
<rect x="60" y="90" width="6" height="6" fill="#410E0E"/>
<rect x="84" y="90" width="6" height="6" fill="#50BCB6"/>
<rect x="90" y="90" width="6" height="6" fill="#50BCB6"/>
<rect x="84" y="96" width="6" height="6" fill="#50BCB6"/>
<rect x="90" y="96" width="6" height="6" fill="#50BCB6"/>
<rect x="84" y="102" width="6" height="6" fill="#50BCB6"/>
<rect x="90" y="102" width="6" height="6" fill="#50BCB6"/>
<rect x="102" y="72" width="6" height="6" fill="#7A2D2D"/>
<rect x="108" y="72" width="6" height="6" fill="#7A2D2D"/>
<rect x="114" y="72" width="6" height="6" fill="#7A2D2D"/>
<rect x="120" y="72" width="6" height="6" fill="#7A2D2D"/>
<rect x="102" y="78" width="6" height="6" fill="#50BCB6"/>
<rect x="108" y="78" width="6" height="6" fill="#50BCB6"/>
<rect x="114" y="78" width="6" height="6" fill="#50BCB6"/>
<rect x="120" y="78" width="6" height="6" fill="#50BCB6"/>
<rect x="126" y="72" width="6" height="6" fill="#7A2D2D"/>
<rect x="132" y="72" width="6" height="6" fill="#7A2D2D"/>
<rect x="138" y="72" width="6" height="6" fill="#7A2D2D"/>
<rect x="144" y="72" width="6" height="6" fill="#7A2D2D"/>
<rect x="126" y="78" width="6" height="6" fill="#50BCB6"/>
<rect x="132" y="78" width="6" height="6" fill="#50BCB6"/>
<rect x="150" y="72" width="6" height="6" fill="#7A2D2D"/>
<rect x="156" y="72" width="6" height="6" fill="#7A2D2D"/>
<rect x="162" y="72" width="6" height="6" fill="#7A2D2D"/>
<rect x="168" y="72" width="6" height="6" fill="#7A2D2D"/>
<rect x="24" y="72" width="6" height="6" fill="#7A2D2D"/>
<rect x="30" y="72" width="6" height="6" fill="#7A2D2D"/>
<rect x="36" y="72" width="6" height="6" fill="#7A2D2D"/>
<rect x="42" y="72" width="6" height="6" fill="#7A2D2D"/>
<rect x="24" y="78" width="6" height="6" fill="#7A2D2D"/>
<rect x="30" y="78" width="6" height="6" fill="#50BCB6"/>
<rect x="36" y="78" width="6" height="6" fill="#50BCB6"/>
<rect x="42" y="78" width="6" height="6" fill="#7A2D2D"/>
<rect x="24" y="84" width="6" height="6" fill="#7A2D2D"/>
<rect x="30" y="84" width="6" height="6" fill="#50BCB6"/>
<rect x="24" y="90" width="6" height="6" fill="#7A2D2D"/>
<rect x="60" y="84" width="6" height="6" fill="#9B9B9B"/>
<rect x="12" y="96" width="6" height="6" fill="#858585"/>
<rect x="18" y="96" width="6" height="6" fill="#858585"/>
<rect x="12" y="72" width="6" height="6" fill="white"/>
<rect x="18" y="72" width="6" height="6" fill="white"/>
<rect x="12" y="78" width="6" height="6" fill="white"/>
<rect x="12" y="84" width="6" height="6" fill="white"/>
<rect x="18" y="102" width="6" height="6" fill="#474747"/>
<rect x="12" y="90" width="6" height="6" fill="#858585"/>
<rect x="12" y="102" width="6" height="6" fill="white"/>
<rect x="18" y="120" width="6" height="6" fill="#D0D0D0"/>
<rect x="12" y="114" width="6" height="6" fill="#474747"/>
<rect x="12" y="108" width="6" height="6" fill="#474747"/>
<rect x="48" y="96" width="6" height="6" fill="#D0D0D0"/>
<rect x="18" y="126" width="6" height="6" fill="#D0D0D0"/>
<rect x="6" y="72" width="6" height="6" fill="#D0D0D0"/>
<rect x="6" y="78" width="6" height="6" fill="#D0D0D0"/>
<rect x="6" y="90" width="6" height="6" fill="#858585"/>
<rect x="6" y="84" width="6" height="6" fill="#D0D0D0"/>
<rect x="48" y="108" width="6" height="6" fill="white"/>
<rect x="54" y="102" width="6" height="6" fill="#474747"/>
<rect x="60" y="96" width="6" height="6" fill="#474747"/>
<rect x="18" y="114" width="6" height="6" fill="#474747"/>
<rect x="48" y="84" width="6" height="6" fill="#474747"/>
<rect x="42" y="84" width="6" height="6" fill="#474747"/>
<rect x="12" y="120" width="6" height="6" fill="#474747"/>
<rect x="12" y="126" width="6" height="6" fill="#474747"/>
<rect x="60" y="90" width="6" height="6" fill="#474747"/>
<rect x="12" y="132" width="6" height="6" fill="#474747"/>
<rect y="72" width="6" height="6" fill="#474747"/>
<rect y="78" width="6" height="6" fill="#474747"/>
<rect y="84" width="6" height="6" fill="#474747"/>
<rect y="90" width="6" height="6" fill="#474747"/>
<rect x="6" y="96" width="6" height="6" fill="#474747"/>
<rect x="12" y="102" width="6" height="6" fill="#474747"/>
<rect x="42" y="102" width="6" height="6" fill="#474747"/>
<rect x="18" y="78" width="6" height="6" fill="#474747"/>
<rect x="18" y="84" width="6" height="6" fill="#474747"/>
<rect x="18" y="90" width="6" height="6" fill="white"/>
<rect x="24" y="90" width="6" height="6" fill="#474747"/>
<rect x="30" y="90" width="6" height="6" fill="#474747"/>
<rect x="36" y="90" width="6" height="6" fill="#474747"/>
<rect x="54" y="90" width="6" height="6" fill="#D0D0D0"/>
<rect x="102" y="84" width="6" height="6" transform="rotate(-90 102 84)" fill="#9B9B9B"/>
<rect x="96" y="90" width="6" height="6" transform="rotate(-90 96 90)" fill="#474747"/>
<rect x="108" y="90" width="6" height="6" transform="rotate(-90 108 90)" fill="#474747"/>
<rect x="102" y="90" width="6" height="6" transform="rotate(-90 102 90)" fill="#474747"/>
<rect x="96" y="84" width="6" height="6" transform="rotate(-90 96 84)" fill="#474747"/>
<rect x="96" y="78" width="6" height="6" transform="rotate(-90 96 78)" fill="#474747"/>
<rect x="102" y="72" width="6" height="6" transform="rotate(-90 102 72)" fill="#474747"/>
<rect x="108" y="84" width="6" height="6" transform="rotate(-90 108 84)" fill="#474747"/>
<rect x="108" y="78" width="6" height="6" transform="rotate(-90 108 78)" fill="#474747"/>
<rect x="102" y="78" width="6" height="6" transform="rotate(-90 102 78)" fill="#9B9B9B"/>
</svg>
