<svg width="126" height="234" viewBox="0 0 126 234" fill="none" xmlns="http://www.w3.org/2000/svg">
<rect x="36" y="66" width="6" height="6" fill="#505050"/>
<rect x="36" y="84" width="6" height="6" fill="#505050"/>
<rect x="48" y="72" width="6" height="6" fill="#505050"/>
<rect x="30" y="72" width="6" height="6" fill="#777777"/>
<rect x="42" y="60" width="6" height="6" fill="#777777"/>
<rect x="54" y="66" width="6" height="6" fill="#777777"/>
<rect x="42" y="78" width="6" height="6" fill="#777777"/>
<rect x="24" y="60" width="6" height="6" fill="#2B2B2B"/>
<rect x="30" y="60" width="6" height="6" fill="#2B2B2B"/>
<rect x="36" y="60" width="6" height="6" fill="#2B2B2B"/>
<rect x="18" y="66" width="6" height="6" fill="#2B2B2B"/>
<rect x="24" y="66" width="6" height="6" fill="#2B2B2B"/>
<rect x="30" y="66" width="6" height="6" fill="#2B2B2B"/>
<rect x="18" y="72" width="6" height="6" fill="#2B2B2B"/>
<rect x="24" y="72" width="6" height="6" fill="#2B2B2B"/>
<rect x="36" y="72" width="6" height="6" fill="#2B2B2B"/>
<rect x="24" y="78" width="6" height="6" fill="#2B2B2B"/>
<rect x="30" y="78" width="6" height="6" fill="#2B2B2B"/>
<rect x="36" y="78" width="6" height="6" fill="#2B2B2B"/>
<rect x="30" y="84" width="6" height="6" fill="#2B2B2B"/>
<rect x="36" y="90" width="6" height="6" fill="#2B2B2B"/>
<rect x="48" y="60" width="6" height="6" fill="#2B2B2B"/>
<rect x="54" y="60" width="6" height="6" fill="#2B2B2B"/>
<rect x="42" y="66" width="6" height="6" fill="#2B2B2B"/>
<rect x="48" y="66" width="6" height="6" fill="#2B2B2B"/>
<rect x="42" y="72" width="6" height="6" fill="#2B2B2B"/>
<rect x="54" y="72" width="6" height="6" fill="#2B2B2B"/>
<rect x="48" y="78" width="6" height="6" fill="#2B2B2B"/>
<rect x="54" y="78" width="6" height="6" fill="#2B2B2B"/>
<rect x="42" y="84" width="6" height="6" fill="#2B2B2B"/>
<rect x="48" y="84" width="6" height="6" fill="#2B2B2B"/>
<rect x="54" y="84" width="6" height="6" fill="#2B2B2B"/>
<rect x="42" y="90" width="6" height="6" fill="#2B2B2B"/>
<rect x="48" y="90" width="6" height="6" fill="#2B2B2B"/>
<rect x="24" y="48" width="6" height="6" fill="white"/>
<rect x="30" y="48" width="6" height="6" fill="white"/>
<rect x="36" y="48" width="6" height="6" fill="white"/>
<rect x="18" y="54" width="6" height="6" fill="white"/>
<rect x="24" y="54" width="6" height="6" fill="white"/>
<rect x="30" y="54" width="6" height="6" fill="white"/>
<rect x="36" y="54" width="6" height="6" fill="white"/>
<rect x="18" y="60" width="6" height="6" fill="white"/>
<rect x="18" y="78" width="6" height="6" fill="white"/>
<rect x="18" y="84" width="6" height="6" fill="white"/>
<rect x="24" y="84" width="6" height="6" fill="white"/>
<rect x="24" y="90" width="6" height="6" fill="white"/>
<rect x="30" y="90" width="6" height="6" fill="white"/>
<rect x="12" y="54" width="6" height="6" fill="#D0D0D0"/>
<rect x="12" y="60" width="6" height="6" fill="#D0D0D0"/>
<rect x="18" y="48" width="6" height="6" fill="#D0D0D0"/>
<rect x="12" y="66" width="6" height="6" fill="#D0D0D0"/>
<rect x="12" y="72" width="6" height="6" fill="#D0D0D0"/>
<rect x="12" y="78" width="6" height="6" fill="#D0D0D0"/>
<rect x="12" y="84" width="6" height="6" fill="#D0D0D0"/>
<rect x="18" y="90" width="6" height="6" fill="#D0D0D0"/>
<rect x="24" y="96" width="6" height="6" fill="#D0D0D0"/>
<rect x="30" y="96" width="6" height="6" fill="white"/>
<rect x="36" y="96" width="6" height="6" fill="white"/>
<rect x="42" y="48" width="6" height="6" fill="white"/>
<rect x="42" y="54" width="6" height="6" fill="white"/>
<rect x="48" y="54" width="6" height="6" fill="white"/>
<rect x="42" y="96" width="6" height="6" fill="white"/>
<rect x="48" y="96" width="6" height="6" fill="white"/>
<rect x="12" y="48" width="6" height="6" fill="#474747"/>
<rect x="6" y="54" width="6" height="6" fill="#474747"/>
<rect x="6" y="60" width="6" height="6" fill="#474747"/>
<rect x="18" y="42" width="6" height="6" fill="#474747"/>
<rect x="24" y="42" width="6" height="6" fill="#474747"/>
<rect x="30" y="42" width="6" height="6" fill="#474747"/>
<rect x="36" y="42" width="6" height="6" fill="#474747"/>
<rect x="6" y="66" width="6" height="6" fill="#474747"/>
<rect x="6" y="72" width="6" height="6" fill="#474747"/>
<rect x="6" y="78" width="6" height="6" fill="#474747"/>
<rect x="6" y="84" width="6" height="6" fill="#474747"/>
<rect x="12" y="90" width="6" height="6" fill="#474747"/>
<rect x="18" y="96" width="6" height="6" fill="#474747"/>
<rect x="24" y="102" width="6" height="6" fill="#474747"/>
<rect x="30" y="102" width="6" height="6" fill="#474747"/>
<rect x="36" y="102" width="6" height="6" fill="#474747"/>
<rect x="42" y="42" width="6" height="6" fill="#474747"/>
<rect x="48" y="48" width="6" height="6" fill="#474747"/>
<rect x="54" y="54" width="6" height="6" fill="#474747"/>
<rect x="54" y="90" width="6" height="6" fill="#474747"/>
<rect x="54" y="96" width="6" height="6" fill="#474747"/>
<rect x="42" y="102" width="6" height="6" fill="#474747"/>
<rect x="48" y="102" width="6" height="6" fill="#474747"/>
<rect x="18" y="180" width="6" height="6" fill="#858585"/>
<rect x="24" y="180" width="6" height="6" fill="#858585"/>
<rect x="24" y="186" width="6" height="6" fill="#858585"/>
<rect x="24" y="192" width="6" height="6" fill="#858585"/>
<rect x="18" y="198" width="6" height="6" fill="#858585"/>
<rect x="24" y="198" width="6" height="6" fill="#858585"/>
<rect x="30" y="180" width="6" height="6" fill="#858585"/>
<rect x="42" y="180" width="6" height="6" fill="#858585"/>
<rect x="48" y="180" width="6" height="6" fill="#858585"/>
<rect x="42" y="186" width="6" height="6" fill="#858585"/>
<rect x="42" y="192" width="6" height="6" fill="#858585"/>
<rect x="30" y="198" width="6" height="6" fill="#858585"/>
<rect x="42" y="198" width="6" height="6" fill="#858585"/>
<rect x="48" y="198" width="6" height="6" fill="#858585"/>
<rect x="42" y="210" width="6" height="6" fill="#474747"/>
<rect x="48" y="210" width="6" height="6" fill="#474747"/>
<rect x="24" y="162" width="6" height="6" fill="white"/>
<rect x="24" y="168" width="6" height="6" fill="white"/>
<rect x="24" y="174" width="6" height="6" fill="white"/>
<rect x="18" y="216" width="6" height="6" fill="#9B9B9B"/>
<rect x="24" y="216" width="6" height="6" fill="#9B9B9B"/>
<rect x="18" y="222" width="6" height="6" fill="#9B9B9B"/>
<rect x="24" y="222" width="6" height="6" fill="#9B9B9B"/>
<rect x="30" y="162" width="6" height="6" fill="white"/>
<rect x="48" y="162" width="6" height="6" fill="white"/>
<rect x="30" y="168" width="6" height="6" fill="white"/>
<rect x="48" y="168" width="6" height="6" fill="white"/>
<rect x="30" y="174" width="6" height="6" fill="white"/>
<rect x="48" y="174" width="6" height="6" fill="white"/>
<rect x="30" y="186" width="6" height="6" fill="white"/>
<rect x="48" y="186" width="6" height="6" fill="white"/>
<rect x="30" y="192" width="6" height="6" fill="white"/>
<rect x="48" y="192" width="6" height="6" fill="white"/>
<rect x="18" y="174" width="6" height="6" fill="#D0D0D0"/>
<rect x="18" y="186" width="6" height="6" fill="#D0D0D0"/>
<rect x="18" y="192" width="6" height="6" fill="#D0D0D0"/>
<rect x="18" y="204" width="6" height="6" fill="#D0D0D0"/>
<rect x="24" y="204" width="6" height="6" fill="#D0D0D0"/>
<rect x="42" y="162" width="6" height="6" fill="#D0D0D0"/>
<rect x="42" y="168" width="6" height="6" fill="#D0D0D0"/>
<rect x="42" y="174" width="6" height="6" fill="#D0D0D0"/>
<rect x="30" y="204" width="6" height="6" fill="#D0D0D0"/>
<rect x="42" y="204" width="6" height="6" fill="#D0D0D0"/>
<rect x="48" y="204" width="6" height="6" fill="#D0D0D0"/>
<rect x="30" y="216" width="6" height="6" fill="#9B9B9B"/>
<rect x="42" y="216" width="6" height="6" fill="#9B9B9B"/>
<rect x="48" y="216" width="6" height="6" fill="#9B9B9B"/>
<rect x="30" y="222" width="6" height="6" fill="#9B9B9B"/>
<rect x="36" y="222" width="6" height="6" fill="#9B9B9B"/>
<rect x="48" y="222" width="6" height="6" fill="#9B9B9B"/>
<rect x="54" y="222" width="6" height="6" fill="#9B9B9B"/>
<rect x="36" y="126" width="6" height="6" fill="#60D9FF"/>
<rect x="42" y="126" width="6" height="6" fill="#60D9FF"/>
<rect x="36" y="120" width="6" height="6" fill="#60D9FF"/>
<rect x="42" y="120" width="6" height="6" fill="#60D9FF"/>
<rect x="12" y="102" width="6" height="6" fill="#858585"/>
<rect x="18" y="102" width="6" height="6" fill="white"/>
<rect x="6" y="108" width="6" height="6" fill="#858585"/>
<rect x="12" y="108" width="6" height="6" fill="#858585"/>
<rect x="18" y="108" width="6" height="6" fill="white"/>
<rect x="24" y="108" width="6" height="6" fill="#EBEBEB"/>
<rect x="24" y="114" width="6" height="6" fill="white"/>
<rect x="24" y="120" width="6" height="6" fill="white"/>
<rect x="30" y="108" width="6" height="6" fill="#EBEBEB"/>
<rect x="36" y="108" width="6" height="6" fill="#EBEBEB"/>
<rect x="42" y="108" width="6" height="6" fill="#EBEBEB"/>
<rect x="48" y="108" width="6" height="6" fill="#EBEBEB"/>
<rect x="30" y="114" width="6" height="6" fill="white"/>
<rect x="36" y="114" width="6" height="6" fill="white"/>
<rect x="42" y="114" width="6" height="6" fill="#EBEBEB"/>
<rect x="48" y="114" width="6" height="6" fill="#EBEBEB"/>
<rect x="54" y="102" width="6" height="6" fill="#474747"/>
<rect x="54" y="108" width="6" height="6" fill="#474747"/>
<rect x="54" y="114" width="6" height="6" fill="#474747"/>
<rect x="30" y="120" width="6" height="6" fill="white"/>
<rect x="36" y="132" width="6" height="6" fill="white"/>
<rect x="42" y="132" width="6" height="6" fill="white"/>
<rect x="48" y="120" width="6" height="6" fill="#EBEBEB"/>
<rect x="30" y="126" width="6" height="6" fill="white"/>
<rect x="48" y="126" width="6" height="6" fill="#EBEBEB"/>
<rect x="30" y="132" width="6" height="6" fill="white"/>
<rect x="48" y="132" width="6" height="6" fill="#EBEBEB"/>
<rect x="30" y="138" width="6" height="6" fill="white"/>
<rect x="36" y="138" width="6" height="6" fill="white"/>
<rect x="42" y="138" width="6" height="6" fill="white"/>
<rect x="48" y="138" width="6" height="6" fill="#EBEBEB"/>
<rect x="30" y="144" width="6" height="6" fill="white"/>
<rect x="36" y="144" width="6" height="6" fill="white"/>
<rect x="42" y="144" width="6" height="6" fill="white"/>
<rect x="48" y="144" width="6" height="6" fill="white"/>
<rect x="24" y="126" width="6" height="6" fill="#D0D0D0"/>
<rect x="24" y="132" width="6" height="6" fill="#D0D0D0"/>
<rect x="24" y="138" width="6" height="6" fill="#D0D0D0"/>
<rect x="24" y="144" width="6" height="6" fill="#D0D0D0"/>
<rect x="24" y="150" width="6" height="6" fill="#D0D0D0"/>
<rect x="30" y="150" width="6" height="6" fill="#D0D0D0"/>
<rect x="36" y="150" width="6" height="6" fill="#D0D0D0"/>
<rect x="42" y="150" width="6" height="6" fill="#D0D0D0"/>
<rect x="48" y="150" width="6" height="6" fill="#D0D0D0"/>
<rect x="24" y="156" width="6" height="6" fill="#474747"/>
<rect x="12" y="180" width="6" height="6" fill="#474747"/>
<rect x="12" y="186" width="6" height="6" fill="#474747"/>
<rect x="12" y="192" width="6" height="6" fill="#474747"/>
<rect x="12" y="198" width="6" height="6" fill="#474747"/>
<rect x="12" y="204" width="6" height="6" fill="#474747"/>
<rect x="12" y="210" width="6" height="6" fill="#474747"/>
<rect x="18" y="210" width="6" height="6" fill="#474747"/>
<rect x="24" y="210" width="6" height="6" fill="#474747"/>
<rect x="12" y="216" width="6" height="6" fill="#474747"/>
<rect x="12" y="222" width="6" height="6" fill="#474747"/>
<rect x="12" y="228" width="6" height="6" fill="#474747"/>
<rect x="18" y="228" width="6" height="6" fill="#474747"/>
<rect x="24" y="228" width="6" height="6" fill="#474747"/>
<rect x="30" y="156" width="6" height="6" fill="#474747"/>
<rect x="36" y="156" width="6" height="6" fill="#474747"/>
<rect x="42" y="156" width="6" height="6" fill="#474747"/>
<rect x="48" y="156" width="6" height="6" fill="#474747"/>
<rect x="36" y="162" width="6" height="6" fill="#474747"/>
<rect x="36" y="168" width="6" height="6" fill="#474747"/>
<rect x="36" y="174" width="6" height="6" fill="#474747"/>
<rect x="36" y="180" width="6" height="6" fill="#474747"/>
<rect x="36" y="186" width="6" height="6" fill="#474747"/>
<rect x="54" y="156" width="6" height="6" fill="#474747"/>
<rect x="54" y="162" width="6" height="6" fill="#474747"/>
<rect x="54" y="168" width="6" height="6" fill="#474747"/>
<rect x="54" y="174" width="6" height="6" fill="#474747"/>
<rect x="54" y="180" width="6" height="6" fill="#474747"/>
<rect x="54" y="186" width="6" height="6" fill="#474747"/>
<rect x="36" y="192" width="6" height="6" fill="#474747"/>
<rect x="36" y="198" width="6" height="6" fill="#474747"/>
<rect x="36" y="204" width="6" height="6" fill="#474747"/>
<rect x="30" y="210" width="6" height="6" fill="#474747"/>
<rect x="36" y="210" width="6" height="6" fill="#474747"/>
<rect x="36" y="216" width="6" height="6" fill="#474747"/>
<rect x="42" y="222" width="6" height="6" fill="#474747"/>
<rect x="54" y="192" width="6" height="6" fill="#474747"/>
<rect x="54" y="198" width="6" height="6" fill="#474747"/>
<rect x="54" y="204" width="6" height="6" fill="#474747"/>
<rect x="54" y="210" width="6" height="6" fill="#474747"/>
<rect x="54" y="216" width="6" height="6" fill="#474747"/>
<rect x="60" y="222" width="6" height="6" fill="#474747"/>
<rect x="30" y="228" width="6" height="6" fill="#474747"/>
<rect x="36" y="228" width="6" height="6" fill="#474747"/>
<rect x="42" y="228" width="6" height="6" fill="#474747"/>
<rect x="48" y="228" width="6" height="6" fill="#474747"/>
<rect x="54" y="228" width="6" height="6" fill="#474747"/>
<rect x="60" y="228" width="6" height="6" fill="#474747"/>
<rect y="108" width="6" height="6" fill="#474747"/>
<rect x="6" y="102" width="6" height="6" fill="#474747"/>
<rect x="54" y="120" width="6" height="6" fill="#474747"/>
<rect x="54" y="126" width="6" height="6" fill="#474747"/>
<rect x="54" y="132" width="6" height="6" fill="#474747"/>
<rect x="54" y="138" width="6" height="6" fill="#474747"/>
<rect x="54" y="144" width="6" height="6" fill="#474747"/>
<rect x="54" y="150" width="6" height="6" fill="#474747"/>
<rect x="6" y="168" width="6" height="6" fill="#9B9B9B"/>
<rect x="6" y="126" width="6" height="6" fill="#858585"/>
<rect x="12" y="132" width="6" height="6" fill="#858585"/>
<rect x="6" y="138" width="6" height="6" fill="#858585"/>
<rect x="12" y="114" width="6" height="6" fill="white"/>
<rect x="18" y="114" width="6" height="6" fill="white"/>
<rect x="12" y="120" width="6" height="6" fill="white"/>
<rect x="12" y="126" width="6" height="6" fill="white"/>
<rect x="6" y="132" width="6" height="6" fill="#858585"/>
<rect x="12" y="138" width="6" height="6" fill="white"/>
<rect x="12" y="144" width="6" height="6" fill="white"/>
<rect x="12" y="150" width="6" height="6" fill="white"/>
<rect x="6" y="156" width="6" height="6" fill="#D0D0D0"/>
<rect x="12" y="156" width="6" height="6" fill="#D0D0D0"/>
<rect x="6" y="114" width="6" height="6" fill="#D0D0D0"/>
<rect x="6" y="120" width="6" height="6" fill="#D0D0D0"/>
<rect x="6" y="144" width="6" height="6" fill="#D0D0D0"/>
<rect x="6" y="150" width="6" height="6" fill="#D0D0D0"/>
<rect y="156" width="6" height="6" fill="#474747"/>
<rect y="162" width="6" height="6" fill="#474747"/>
<rect y="168" width="6" height="6" fill="#474747"/>
<rect x="18" y="156" width="6" height="6" fill="#474747"/>
<rect x="6" y="162" width="6" height="6" fill="#474747"/>
<rect x="12" y="162" width="6" height="6" fill="#474747"/>
<rect x="18" y="162" width="6" height="6" fill="#474747"/>
<rect x="18" y="168" width="6" height="6" fill="#474747"/>
<rect x="6" y="174" width="6" height="6" fill="#474747"/>
<rect x="12" y="174" width="6" height="6" fill="#474747"/>
<rect y="114" width="6" height="6" fill="#474747"/>
<rect y="120" width="6" height="6" fill="#474747"/>
<rect y="126" width="6" height="6" fill="#474747"/>
<rect y="132" width="6" height="6" fill="#474747"/>
<rect y="138" width="6" height="6" fill="#474747"/>
<rect y="144" width="6" height="6" fill="#474747"/>
<rect y="150" width="6" height="6" fill="#474747"/>
<rect x="18" y="120" width="6" height="6" fill="#474747"/>
<rect x="18" y="126" width="6" height="6" fill="#474747"/>
<rect x="18" y="132" width="6" height="6" fill="#474747"/>
<rect x="18" y="138" width="6" height="6" fill="#474747"/>
<rect x="18" y="144" width="6" height="6" fill="#474747"/>
<rect x="18" y="150" width="6" height="6" fill="#474747"/>
<rect x="12" y="168" width="6" height="6" fill="#9B9B9B"/>
<rect x="96" y="120" width="6" height="6" transform="rotate(-90 96 120)" fill="#9B9B9B"/>
<rect x="66" y="120" width="6" height="6" transform="rotate(-90 66 120)" fill="#858585"/>
<rect x="72" y="114" width="6" height="6" transform="rotate(-90 72 114)" fill="#858585"/>
<rect x="78" y="120" width="6" height="6" transform="rotate(-90 78 120)" fill="#858585"/>
<rect x="60" y="114" width="6" height="6" transform="rotate(-90 60 114)" fill="white"/>
<rect x="66" y="114" width="6" height="6" transform="rotate(-90 66 114)" fill="white"/>
<rect x="72" y="120" width="6" height="6" transform="rotate(-90 72 120)" fill="#858585"/>
<rect x="78" y="114" width="6" height="6" transform="rotate(-90 78 114)" fill="white"/>
<rect x="84" y="114" width="6" height="6" transform="rotate(-90 84 114)" fill="white"/>
<rect x="90" y="114" width="6" height="6" transform="rotate(-90 90 114)" fill="#9B9B9B"/>
<rect x="96" y="120" width="6" height="6" transform="rotate(-90 96 120)" fill="#9DDCFF"/>
<rect x="96" y="114" width="6" height="6" transform="rotate(-90 96 114)" fill="#D0D0D0"/>
<rect x="60" y="120" width="6" height="6" transform="rotate(-90 60 120)" fill="#D0D0D0"/>
<rect x="84" y="120" width="6" height="6" transform="rotate(-90 84 120)" fill="#D0D0D0"/>
<rect x="90" y="120" width="6" height="6" transform="rotate(-90 90 120)" fill="#D0D0D0"/>
<rect x="96" y="126" width="6" height="6" transform="rotate(-90 96 126)" fill="#474747"/>
<rect x="90" y="126" width="6" height="6" transform="rotate(-90 90 126)" fill="#474747"/>
<rect x="96" y="126" width="6" height="6" transform="rotate(-90 96 126)" fill="#27B1FF"/>
<rect x="96" y="108" width="6" height="6" transform="rotate(-90 96 108)" fill="#474747"/>
<rect x="84" y="120" width="6" height="6" transform="rotate(-90 84 120)" fill="#474747"/>
<rect x="84" y="114" width="6" height="6" transform="rotate(-90 84 114)" fill="#474747"/>
<rect x="90" y="108" width="6" height="6" transform="rotate(-90 90 108)" fill="#474747"/>
<rect x="96" y="108" width="6" height="6" transform="rotate(-90 96 108)" fill="#27B1FF"/>
<rect x="102" y="120" width="6" height="6" transform="rotate(-90 102 120)" fill="#69C9FF"/>
<rect x="102" y="114" width="6" height="6" transform="rotate(-90 102 114)" fill="#69C9FF"/>
<rect x="60" y="126" width="6" height="6" transform="rotate(-90 60 126)" fill="#474747"/>
<rect x="66" y="126" width="6" height="6" transform="rotate(-90 66 126)" fill="#474747"/>
<rect x="72" y="126" width="6" height="6" transform="rotate(-90 72 126)" fill="#474747"/>
<rect x="78" y="126" width="6" height="6" transform="rotate(-90 78 126)" fill="#474747"/>
<rect x="84" y="126" width="6" height="6" transform="rotate(-90 84 126)" fill="#474747"/>
<rect x="90" y="126" width="6" height="6" transform="rotate(-90 90 126)" fill="#27B1FF"/>
<rect x="60" y="108" width="6" height="6" transform="rotate(-90 60 108)" fill="#474747"/>
<rect x="66" y="108" width="6" height="6" transform="rotate(-90 66 108)" fill="#474747"/>
<rect x="72" y="108" width="6" height="6" transform="rotate(-90 72 108)" fill="#474747"/>
<rect x="78" y="108" width="6" height="6" transform="rotate(-90 78 108)" fill="#474747"/>
<rect x="84" y="108" width="6" height="6" transform="rotate(-90 84 108)" fill="#474747"/>
<rect x="90" y="108" width="6" height="6" transform="rotate(-90 90 108)" fill="#27B1FF"/>
<rect x="96" y="114" width="6" height="6" transform="rotate(-90 96 114)" fill="#5297AC"/>
<rect x="78" y="204" width="6" height="6" fill="#27B1FF"/>
<rect x="90" y="180" width="6" height="6" fill="#27B1FF"/>
<rect x="84" y="186" width="6" height="6" fill="#69C9FF"/>
<rect x="84" y="192" width="6" height="6" fill="#27B1FF"/>
<rect x="78" y="198" width="6" height="6" fill="#27B1FF"/>
<path d="M66 210H72V216H66V210Z" fill="#27B1FF"/>
<rect x="72" y="204" width="6" height="6" fill="#69C9FF"/>
<rect x="114" y="132" width="6" height="6" fill="#27B1FF"/>
<rect x="114" y="138" width="6" height="6" fill="#27B1FF"/>
<rect x="108" y="144" width="6" height="6" fill="#27B1FF"/>
<rect x="108" y="150" width="6" height="6" fill="#69C9FF"/>
<rect x="102" y="156" width="6" height="6" fill="#27B1FF"/>
<rect x="102" y="162" width="6" height="6" fill="#27B1FF"/>
<rect x="96" y="168" width="6" height="6" fill="#69C9FF"/>
<rect x="96" y="174" width="6" height="6" fill="#27B1FF"/>
<path d="M60 6H66V12H60V6Z" fill="#27B1FF"/>
<rect x="66" y="6" width="6" height="6" fill="#27B1FF"/>
<rect x="72" y="12" width="6" height="6" fill="#27B1FF"/>
<rect x="78" y="18" width="6" height="6" fill="#27B1FF"/>
<rect x="84" y="24" width="6" height="6" fill="#69C9FF"/>
<rect x="84" y="30" width="6" height="6" fill="#27B1FF"/>
<rect x="90" y="36" width="6" height="6" fill="#27B1FF"/>
<rect x="90" y="42" width="6" height="6" fill="#69C9FF"/>
<rect x="90" y="48" width="6" height="6" fill="#27B1FF"/>
<rect x="96" y="54" width="6" height="6" fill="#27B1FF"/>
<rect x="96" y="60" width="6" height="6" fill="#27B1FF"/>
<rect x="102" y="66" width="6" height="6" fill="#69C9FF"/>
<rect x="102" y="72" width="6" height="6" fill="#27B1FF"/>
<rect x="108" y="78" width="6" height="6" fill="#27B1FF"/>
<rect x="108" y="84" width="6" height="6" fill="#27B1FF"/>
<rect x="114" y="90" width="6" height="6" fill="#27B1FF"/>
<rect x="114" y="96" width="6" height="6" fill="#27B1FF"/>
<rect x="114" y="102" width="6" height="6" fill="#69C9FF"/>
<rect x="114" y="108" width="6" height="6" fill="#27B1FF"/>
<rect x="108" y="114" width="6" height="6" fill="#27B1FF"/>
<rect x="108" y="108" width="6" height="6" fill="#27B1FF"/>
<rect x="114" y="114" width="6" height="6" fill="#27B1FF"/>
<rect x="114" y="120" width="6" height="6" fill="#69C9FF"/>
<rect x="114" y="126" width="6" height="6" fill="#27B1FF"/>
<rect x="90" y="186" width="6" height="6" fill="#3683DE"/>
<rect x="90" y="192" width="6" height="6" fill="#3683DE"/>
<rect x="84" y="198" width="6" height="6" fill="#3683DE"/>
<rect x="78" y="210" width="6" height="6" fill="#3683DE"/>
<rect x="84" y="204" width="6" height="6" fill="#3683DE"/>
<path d="M66 216H72V222H66V216Z" fill="#3683DE"/>
<rect x="72" y="210" width="6" height="6" fill="#3683DE"/>
<rect x="114" y="144" width="6" height="6" fill="#3683DE"/>
<rect x="114" y="150" width="6" height="6" fill="#3683DE"/>
<rect x="108" y="156" width="6" height="6" fill="#3683DE"/>
<rect x="108" y="162" width="6" height="6" fill="#3683DE"/>
<rect x="120" y="132" width="6" height="6" fill="#3683DE"/>
<rect x="120" y="138" width="6" height="6" fill="#3683DE"/>
<rect x="102" y="168" width="6" height="6" fill="#3683DE"/>
<rect x="102" y="174" width="6" height="6" fill="#3683DE"/>
<rect x="96" y="180" width="6" height="6" fill="#3683DE"/>
<rect x="60" width="6" height="6" fill="#3683DE"/>
<rect x="66" width="6" height="6" fill="#3683DE"/>
<rect x="72" y="6" width="6" height="6" fill="#3683DE"/>
<rect x="78" y="12" width="6" height="6" fill="#3683DE"/>
<rect x="84" y="18" width="6" height="6" fill="#3683DE"/>
<rect x="90" y="24" width="6" height="6" fill="#3683DE"/>
<rect x="90" y="30" width="6" height="6" fill="#3683DE"/>
<rect x="96" y="36" width="6" height="6" fill="#3683DE"/>
<rect x="96" y="42" width="6" height="6" fill="#3683DE"/>
<rect x="96" y="48" width="6" height="6" fill="#3683DE"/>
<rect x="102" y="48" width="6" height="6" fill="#3683DE"/>
<rect x="102" y="54" width="6" height="6" fill="#3683DE"/>
<rect x="102" y="60" width="6" height="6" fill="#3683DE"/>
<rect x="108" y="60" width="6" height="6" fill="#3683DE"/>
<rect x="108" y="66" width="6" height="6" fill="#3683DE"/>
<rect x="108" y="72" width="6" height="6" fill="#3683DE"/>
<rect x="114" y="72" width="6" height="6" fill="#3683DE"/>
<rect x="114" y="78" width="6" height="6" fill="#3683DE"/>
<rect x="114" y="84" width="6" height="6" fill="#3683DE"/>
<rect x="120" y="84" width="6" height="6" fill="#3683DE"/>
<rect x="120" y="90" width="6" height="6" fill="#3683DE"/>
<rect x="120" y="96" width="6" height="6" fill="#3683DE"/>
<rect x="120" y="102" width="6" height="6" fill="#3683DE"/>
<rect x="120" y="108" width="6" height="6" fill="#3683DE"/>
<rect x="120" y="114" width="6" height="6" fill="#3683DE"/>
<rect x="120" y="120" width="6" height="6" fill="#3683DE"/>
<rect x="120" y="126" width="6" height="6" fill="#3683DE"/>
</svg>
