<svg width="132" height="192" viewBox="0 0 132 192" fill="none" xmlns="http://www.w3.org/2000/svg">
<rect x="66.0001" y="24" width="6" height="6" fill="#505050"/>
<rect x="66.0001" y="42" width="6" height="6" fill="#505050"/>
<rect x="78.0001" y="30" width="6" height="6" fill="#505050"/>
<rect x="60.0001" y="30" width="6" height="6" fill="#777777"/>
<rect x="72.0001" y="18" width="6" height="6" fill="#777777"/>
<rect x="84.0001" y="24" width="6" height="6" fill="#777777"/>
<rect x="72.0001" y="36" width="6" height="6" fill="#777777"/>
<rect x="54.0001" y="18" width="6" height="6" fill="#2B2B2B"/>
<rect x="60.0001" y="18" width="6" height="6" fill="#2B2B2B"/>
<rect x="66.0001" y="18" width="6" height="6" fill="#2B2B2B"/>
<rect x="48.0001" y="24" width="6" height="6" fill="#2B2B2B"/>
<rect x="54.0001" y="24" width="6" height="6" fill="#2B2B2B"/>
<rect x="60.0001" y="24" width="6" height="6" fill="#2B2B2B"/>
<rect x="48.0001" y="30" width="6" height="6" fill="#2B2B2B"/>
<rect x="54.0001" y="30" width="6" height="6" fill="#2B2B2B"/>
<rect x="66.0001" y="30" width="6" height="6" fill="#2B2B2B"/>
<rect x="54.0001" y="36" width="6" height="6" fill="#2B2B2B"/>
<rect x="60.0001" y="36" width="6" height="6" fill="#2B2B2B"/>
<rect x="66.0001" y="36" width="6" height="6" fill="#2B2B2B"/>
<rect x="60.0001" y="42" width="6" height="6" fill="#2B2B2B"/>
<rect x="66.0001" y="48" width="6" height="6" fill="#2B2B2B"/>
<rect x="78.0001" y="18" width="6" height="6" fill="#2B2B2B"/>
<rect x="84.0001" y="18" width="6" height="6" fill="#2B2B2B"/>
<rect x="72.0001" y="24" width="6" height="6" fill="#2B2B2B"/>
<rect x="78.0001" y="24" width="6" height="6" fill="#2B2B2B"/>
<rect x="72.0001" y="30" width="6" height="6" fill="#2B2B2B"/>
<rect x="84.0001" y="30" width="6" height="6" fill="#2B2B2B"/>
<rect x="78.0001" y="36" width="6" height="6" fill="#2B2B2B"/>
<rect x="84.0001" y="36" width="6" height="6" fill="#2B2B2B"/>
<rect x="72.0001" y="42" width="6" height="6" fill="#2B2B2B"/>
<rect x="78.0001" y="42" width="6" height="6" fill="#2B2B2B"/>
<rect x="84.0001" y="42" width="6" height="6" fill="#2B2B2B"/>
<rect x="72.0001" y="48" width="6" height="6" fill="#2B2B2B"/>
<rect x="78.0001" y="48" width="6" height="6" fill="#2B2B2B"/>
<rect x="54.0001" y="6" width="6" height="6" fill="white"/>
<rect x="60.0001" y="6" width="6" height="6" fill="white"/>
<rect x="66.0001" y="6" width="6" height="6" fill="white"/>
<rect x="48.0001" y="12" width="6" height="6" fill="white"/>
<rect x="54.0001" y="12" width="6" height="6" fill="white"/>
<rect x="60.0001" y="12" width="6" height="6" fill="white"/>
<rect x="66.0001" y="12" width="6" height="6" fill="white"/>
<rect x="48.0001" y="18" width="6" height="6" fill="white"/>
<rect x="48.0001" y="36" width="6" height="6" fill="white"/>
<rect x="48.0001" y="42" width="6" height="6" fill="white"/>
<rect x="54.0001" y="42" width="6" height="6" fill="white"/>
<rect x="54.0001" y="48" width="6" height="6" fill="white"/>
<rect x="60.0001" y="48" width="6" height="6" fill="white"/>
<rect x="42.0001" y="12" width="6" height="6" fill="#D0D0D0"/>
<rect x="42.0001" y="18" width="6" height="6" fill="#D0D0D0"/>
<rect x="48.0001" y="6" width="6" height="6" fill="#D0D0D0"/>
<rect x="42.0001" y="24" width="6" height="6" fill="#D0D0D0"/>
<rect x="42.0001" y="30" width="6" height="6" fill="#D0D0D0"/>
<rect x="42.0001" y="36" width="6" height="6" fill="#D0D0D0"/>
<rect x="42.0001" y="42" width="6" height="6" fill="#D0D0D0"/>
<rect x="48.0001" y="48" width="6" height="6" fill="#D0D0D0"/>
<rect x="54.0001" y="54" width="6" height="6" fill="#D0D0D0"/>
<rect x="60.0001" y="54" width="6" height="6" fill="white"/>
<rect x="66.0001" y="54" width="6" height="6" fill="white"/>
<rect x="72.0001" y="6" width="6" height="6" fill="white"/>
<rect x="72.0001" y="12" width="6" height="6" fill="white"/>
<rect x="78.0001" y="12" width="6" height="6" fill="white"/>
<rect x="72.0001" y="54" width="6" height="6" fill="white"/>
<rect x="78.0001" y="54" width="6" height="6" fill="white"/>
<rect x="42.0001" y="6" width="6" height="6" fill="#474747"/>
<rect x="36.0001" y="12" width="6" height="6" fill="#474747"/>
<rect x="36.0001" y="18" width="6" height="6" fill="#474747"/>
<rect x="48.0001" width="6" height="6" fill="#474747"/>
<rect x="54.0001" width="6" height="6" fill="#474747"/>
<rect x="60.0001" width="6" height="6" fill="#474747"/>
<rect x="66.0001" width="6" height="6" fill="#474747"/>
<rect x="36.0001" y="24" width="6" height="6" fill="#474747"/>
<rect x="36.0001" y="30" width="6" height="6" fill="#474747"/>
<rect x="36.0001" y="36" width="6" height="6" fill="#474747"/>
<rect x="36.0001" y="42" width="6" height="6" fill="#474747"/>
<rect x="42.0001" y="48" width="6" height="6" fill="#474747"/>
<rect x="48.0001" y="54" width="6" height="6" fill="#474747"/>
<rect x="54.0001" y="60" width="6" height="6" fill="#474747"/>
<rect x="60.0001" y="60" width="6" height="6" fill="#474747"/>
<rect x="66.0001" y="60" width="6" height="6" fill="#474747"/>
<rect x="72.0001" width="6" height="6" fill="#474747"/>
<rect x="78.0001" y="6" width="6" height="6" fill="#474747"/>
<rect x="84.0001" y="12" width="6" height="6" fill="#474747"/>
<rect x="84.0001" y="48" width="6" height="6" fill="#474747"/>
<rect x="84.0001" y="54" width="6" height="6" fill="#474747"/>
<rect x="72.0001" y="60" width="6" height="6" fill="#474747"/>
<rect x="78.0001" y="60" width="6" height="6" fill="#474747"/>
<rect x="48.0001" y="138" width="6" height="6" fill="#858585"/>
<rect x="54.0001" y="138" width="6" height="6" fill="#858585"/>
<rect x="54.0001" y="144" width="6" height="6" fill="#858585"/>
<rect x="54.0001" y="150" width="6" height="6" fill="#858585"/>
<rect x="48.0001" y="156" width="6" height="6" fill="#858585"/>
<rect x="54.0001" y="156" width="6" height="6" fill="#858585"/>
<rect x="60.0001" y="138" width="6" height="6" fill="#858585"/>
<rect x="72.0001" y="138" width="6" height="6" fill="#858585"/>
<rect x="78.0001" y="138" width="6" height="6" fill="#858585"/>
<rect x="72.0001" y="144" width="6" height="6" fill="#858585"/>
<rect x="72.0001" y="150" width="6" height="6" fill="#858585"/>
<rect x="60.0001" y="156" width="6" height="6" fill="#858585"/>
<rect x="72.0001" y="156" width="6" height="6" fill="#858585"/>
<rect x="78.0001" y="156" width="6" height="6" fill="#858585"/>
<rect x="72.0001" y="168" width="6" height="6" fill="#474747"/>
<rect x="78.0001" y="168" width="6" height="6" fill="#474747"/>
<rect x="54.0001" y="120" width="6" height="6" fill="white"/>
<rect x="54.0001" y="126" width="6" height="6" fill="white"/>
<rect x="54.0001" y="132" width="6" height="6" fill="white"/>
<rect x="48.0001" y="174" width="6" height="6" fill="#9B9B9B"/>
<rect x="54.0001" y="174" width="6" height="6" fill="#9B9B9B"/>
<rect x="48.0001" y="180" width="6" height="6" fill="#9B9B9B"/>
<rect x="54.0001" y="180" width="6" height="6" fill="#9B9B9B"/>
<rect x="60.0001" y="120" width="6" height="6" fill="white"/>
<rect x="78.0001" y="120" width="6" height="6" fill="white"/>
<rect x="60.0001" y="126" width="6" height="6" fill="white"/>
<rect x="78.0001" y="126" width="6" height="6" fill="white"/>
<rect x="60.0001" y="132" width="6" height="6" fill="white"/>
<rect x="78.0001" y="132" width="6" height="6" fill="white"/>
<rect x="60.0001" y="144" width="6" height="6" fill="white"/>
<rect x="78.0001" y="144" width="6" height="6" fill="white"/>
<rect x="60.0001" y="150" width="6" height="6" fill="white"/>
<rect x="78.0001" y="150" width="6" height="6" fill="white"/>
<rect x="48.0001" y="132" width="6" height="6" fill="#D0D0D0"/>
<rect x="48.0001" y="126" width="6" height="6" fill="#D0D0D0"/>
<rect x="48.0001" y="120" width="6" height="6" fill="#D0D0D0"/>
<rect x="48.0001" y="144" width="6" height="6" fill="#D0D0D0"/>
<rect x="48.0001" y="150" width="6" height="6" fill="#D0D0D0"/>
<rect x="48.0001" y="162" width="6" height="6" fill="#D0D0D0"/>
<rect x="54.0001" y="162" width="6" height="6" fill="#D0D0D0"/>
<rect x="72.0001" y="120" width="6" height="6" fill="#D0D0D0"/>
<rect x="72.0001" y="126" width="6" height="6" fill="#D0D0D0"/>
<rect x="72.0001" y="132" width="6" height="6" fill="#D0D0D0"/>
<rect x="60.0001" y="162" width="6" height="6" fill="#D0D0D0"/>
<rect x="72.0001" y="162" width="6" height="6" fill="#D0D0D0"/>
<rect x="78.0001" y="162" width="6" height="6" fill="#D0D0D0"/>
<rect x="60.0001" y="174" width="6" height="6" fill="#9B9B9B"/>
<rect x="72.0001" y="174" width="6" height="6" fill="#9B9B9B"/>
<rect x="78.0001" y="174" width="6" height="6" fill="#9B9B9B"/>
<rect x="60.0001" y="180" width="6" height="6" fill="#9B9B9B"/>
<rect x="66.0001" y="180" width="6" height="6" fill="#9B9B9B"/>
<rect x="78.0001" y="180" width="6" height="6" fill="#9B9B9B"/>
<rect x="84.0001" y="180" width="6" height="6" fill="#9B9B9B"/>
<rect x="66.0001" y="84" width="6" height="6" fill="#60D9FF"/>
<rect x="72.0001" y="84" width="6" height="6" fill="#60D9FF"/>
<rect x="66" y="78" width="6" height="6" fill="#60D9FF"/>
<rect x="72" y="78" width="6" height="6" fill="#60D9FF"/>
<rect x="66.0001" y="90" width="6" height="6" fill="#60D9FF"/>
<rect x="72.0001" y="90" width="6" height="6" fill="#60D9FF"/>
<rect x="42.0001" y="60" width="6" height="6" fill="#858585"/>
<rect x="48.0001" y="60" width="6" height="6" fill="white"/>
<rect x="42.0001" y="66" width="6" height="6" fill="#858585"/>
<rect x="48.0001" y="66" width="6" height="6" fill="white"/>
<rect x="54.0001" y="66" width="6" height="6" fill="#EBEBEB"/>
<rect x="48.0001" y="72" width="6" height="6" fill="white"/>
<rect x="54.0001" y="72" width="6" height="6" fill="white"/>
<rect x="54.0001" y="78" width="6" height="6" fill="white"/>
<rect x="60.0001" y="66" width="6" height="6" fill="#EBEBEB"/>
<rect x="66.0001" y="66" width="6" height="6" fill="#EBEBEB"/>
<rect x="72.0001" y="66" width="6" height="6" fill="#EBEBEB"/>
<rect x="78.0001" y="66" width="6" height="6" fill="#EBEBEB"/>
<rect x="60.0001" y="72" width="6" height="6" fill="white"/>
<rect x="66.0001" y="72" width="6" height="6" fill="white"/>
<rect x="72.0001" y="72" width="6" height="6" fill="#EBEBEB"/>
<rect x="78.0001" y="72" width="6" height="6" fill="#EBEBEB"/>
<rect x="84.0001" y="60" width="6" height="6" fill="#474747"/>
<rect x="84.0001" y="66" width="6" height="6" fill="white"/>
<rect x="84.0001" y="72" width="6" height="6" fill="white"/>
<rect x="60.0001" y="78" width="6" height="6" fill="white"/>
<rect x="66" y="90" width="6" height="6" fill="white"/>
<rect x="72" y="90" width="6" height="6" fill="white"/>
<rect x="78.0001" y="78" width="6" height="6" fill="#EBEBEB"/>
<rect x="60.0001" y="84" width="6" height="6" fill="white"/>
<rect x="78.0001" y="84" width="6" height="6" fill="#EBEBEB"/>
<rect x="60.0001" y="90" width="6" height="6" fill="white"/>
<rect x="78.0001" y="90" width="6" height="6" fill="#EBEBEB"/>
<rect x="60.0001" y="96" width="6" height="6" fill="white"/>
<rect x="66.0001" y="96" width="6" height="6" fill="white"/>
<rect x="72.0001" y="96" width="6" height="6" fill="white"/>
<rect x="78.0001" y="96" width="6" height="6" fill="#EBEBEB"/>
<rect x="60.0001" y="102" width="6" height="6" fill="white"/>
<rect x="66.0001" y="102" width="6" height="6" fill="white"/>
<rect x="72.0001" y="102" width="6" height="6" fill="white"/>
<rect x="78.0001" y="102" width="6" height="6" fill="white"/>
<rect x="48" y="78" width="6" height="6" fill="#D0D0D0"/>
<rect x="54.0001" y="90" width="6" height="6" fill="white"/>
<rect x="54" y="84" width="6" height="6" fill="white"/>
<rect x="54.0001" y="96" width="6" height="6" fill="white"/>
<rect x="54.0001" y="102" width="6" height="6" fill="#D0D0D0"/>
<rect x="54.0001" y="108" width="6" height="6" fill="#D0D0D0"/>
<rect x="48" y="84" width="6" height="6" fill="#D0D0D0"/>
<rect x="48" y="90" width="6" height="6" fill="#D0D0D0"/>
<rect x="48" y="96" width="6" height="6" fill="#D0D0D0"/>
<rect x="48" y="102" width="6" height="6" fill="#D0D0D0"/>
<rect x="48" y="108" width="6" height="6" fill="#D0D0D0"/>
<rect x="60.0001" y="108" width="6" height="6" fill="#D0D0D0"/>
<rect x="66.0001" y="108" width="6" height="6" fill="#D0D0D0"/>
<rect x="72.0001" y="108" width="6" height="6" fill="#D0D0D0"/>
<rect x="78.0001" y="108" width="6" height="6" fill="#D0D0D0"/>
<rect x="54.0001" y="114" width="6" height="6" fill="#474747"/>
<rect x="42" y="132" width="6" height="6" fill="#474747"/>
<rect x="42" y="126" width="6" height="6" fill="#474747"/>
<rect x="42" y="120" width="6" height="6" fill="#474747"/>
<rect x="42" y="114" width="6" height="6" fill="#474747"/>
<rect x="48" y="114" width="6" height="6" fill="#474747"/>
<rect x="42" y="108" width="6" height="6" fill="#474747"/>
<rect x="42" y="102" width="6" height="6" fill="#474747"/>
<rect x="42" y="96" width="6" height="6" fill="#474747"/>
<rect x="42" y="90" width="6" height="6" fill="#474747"/>
<rect x="42" y="84" width="6" height="6" fill="#474747"/>
<rect x="42" y="78" width="6" height="6" fill="#474747"/>
<rect x="42" y="72" width="6" height="6" fill="white"/>
<rect x="42" y="66" width="6" height="6" fill="white"/>
<rect x="42" y="60" width="6" height="6" fill="#474747"/>
<rect x="42.0001" y="138" width="6" height="6" fill="#474747"/>
<rect x="42.0001" y="144" width="6" height="6" fill="#474747"/>
<rect x="42.0001" y="150" width="6" height="6" fill="#474747"/>
<rect x="42.0001" y="156" width="6" height="6" fill="#474747"/>
<rect x="42.0001" y="162" width="6" height="6" fill="#474747"/>
<rect x="42.0001" y="168" width="6" height="6" fill="#474747"/>
<rect x="48.0001" y="168" width="6" height="6" fill="#474747"/>
<rect x="54.0001" y="168" width="6" height="6" fill="#474747"/>
<rect x="42.0001" y="174" width="6" height="6" fill="#474747"/>
<rect x="42.0001" y="180" width="6" height="6" fill="#474747"/>
<rect x="42.0001" y="186" width="6" height="6" fill="#474747"/>
<rect x="48.0001" y="186" width="6" height="6" fill="#474747"/>
<rect x="54.0001" y="186" width="6" height="6" fill="#474747"/>
<rect x="60.0001" y="114" width="6" height="6" fill="#474747"/>
<rect x="66.0001" y="114" width="6" height="6" fill="#474747"/>
<rect x="72.0001" y="114" width="6" height="6" fill="#474747"/>
<rect x="78.0001" y="114" width="6" height="6" fill="#474747"/>
<rect x="66.0001" y="120" width="6" height="6" fill="#474747"/>
<rect x="66.0001" y="126" width="6" height="6" fill="#474747"/>
<rect x="66.0001" y="132" width="6" height="6" fill="#474747"/>
<rect x="66.0001" y="138" width="6" height="6" fill="#474747"/>
<rect x="66.0001" y="144" width="6" height="6" fill="#474747"/>
<rect x="84.0001" y="114" width="6" height="6" fill="#474747"/>
<rect x="84.0001" y="120" width="6" height="6" fill="#474747"/>
<rect x="84.0001" y="126" width="6" height="6" fill="#474747"/>
<rect x="84.0001" y="132" width="6" height="6" fill="#474747"/>
<rect x="84.0001" y="138" width="6" height="6" fill="#474747"/>
<rect x="84.0001" y="144" width="6" height="6" fill="#474747"/>
<rect x="66.0001" y="150" width="6" height="6" fill="#474747"/>
<rect x="66.0001" y="156" width="6" height="6" fill="#474747"/>
<rect x="66.0001" y="162" width="6" height="6" fill="#474747"/>
<rect x="60.0001" y="168" width="6" height="6" fill="#474747"/>
<rect x="66.0001" y="168" width="6" height="6" fill="#474747"/>
<rect x="66.0001" y="174" width="6" height="6" fill="#474747"/>
<rect x="72.0001" y="180" width="6" height="6" fill="#474747"/>
<rect x="84.0001" y="150" width="6" height="6" fill="#474747"/>
<rect x="84.0001" y="156" width="6" height="6" fill="#474747"/>
<rect x="84.0001" y="162" width="6" height="6" fill="#474747"/>
<rect x="84.0001" y="168" width="6" height="6" fill="#474747"/>
<rect x="84.0001" y="174" width="6" height="6" fill="#474747"/>
<rect x="90.0001" y="180" width="6" height="6" fill="#474747"/>
<rect x="60.0001" y="186" width="6" height="6" fill="#474747"/>
<rect x="66.0001" y="186" width="6" height="6" fill="#474747"/>
<rect x="72.0001" y="186" width="6" height="6" fill="#474747"/>
<rect x="78.0001" y="186" width="6" height="6" fill="#474747"/>
<rect x="84.0001" y="186" width="6" height="6" fill="#474747"/>
<rect x="90.0001" y="186" width="6" height="6" fill="#474747"/>
<rect x="84.0001" y="78" width="6" height="6" fill="#474747"/>
<rect x="84.0001" y="84" width="6" height="6" fill="#474747"/>
<rect x="84.0001" y="90" width="6" height="6" fill="#474747"/>
<rect x="84.0001" y="96" width="6" height="6" fill="#474747"/>
<rect x="84.0001" y="102" width="6" height="6" fill="#474747"/>
<rect x="84.0001" y="108" width="6" height="6" fill="#474747"/>
<rect width="6" height="6" transform="matrix(1 0 0 -1 6 42)" fill="#9B9B9B"/>
<rect width="6" height="6" transform="matrix(1 0 0 -1 36 72)" fill="white"/>
<rect width="6" height="6" transform="matrix(1 0 0 -1 36 66)" fill="white"/>
<rect width="6" height="6" transform="matrix(1 0 0 -1 30 66)" fill="white"/>
<rect width="6" height="6" transform="matrix(1 0 0 -1 30 60)" fill="white"/>
<rect width="6" height="6" transform="matrix(1 0 0 -1 24 60)" fill="white"/>
<rect width="6" height="6" transform="matrix(1 0 0 -1 24 54)" fill="white"/>
<rect width="6" height="6" transform="matrix(1 0 0 -1 18 54)" fill="white"/>
<rect width="6" height="6" transform="matrix(1 0 0 -1 18 48)" fill="white"/>
<rect width="6" height="6" transform="matrix(1 0 0 -1 12 48)" fill="white"/>
<rect width="6" height="6" transform="matrix(1 0 0 -1 12 42)" fill="white"/>
<rect width="6" height="6" transform="matrix(1 0 0 -1 36 78)" fill="#D0D0D0"/>
<rect width="6" height="6" transform="matrix(1 0 0 -1 30 72)" fill="#D0D0D0"/>
<rect width="6" height="6" transform="matrix(1 0 0 -1 24 66)" fill="#D0D0D0"/>
<rect width="6" height="6" transform="matrix(1 0 0 -1 18 60)" fill="#D0D0D0"/>
<rect width="6" height="6" transform="matrix(1 0 0 -1 12 54)" fill="#D0D0D0"/>
<rect width="6" height="6" transform="matrix(1 0 0 -1 6 48)" fill="#D0D0D0"/>
<rect width="6" height="6" transform="matrix(1 0 0 -1 36 84)" fill="#474747"/>
<rect width="6" height="6" transform="matrix(1 0 0 -1 30 78)" fill="#474747"/>
<rect width="6" height="6" transform="matrix(1 0 0 -1 24 72)" fill="#474747"/>
<rect width="6" height="6" transform="matrix(1 0 0 -1 12 60)" fill="#474747"/>
<rect width="6" height="6" transform="matrix(1 0 0 -1 18 42)" fill="#474747"/>
<rect width="6" height="6" transform="matrix(1 0 0 -1 12 42)" fill="#474747"/>
<rect width="6" height="6" transform="matrix(1 0 0 -1 6 48)" fill="#474747"/>
<rect width="6" height="6" transform="matrix(1 0 0 -1 0 48)" fill="#474747"/>
<rect width="6" height="6" transform="matrix(1 0 0 -1 0 36)" fill="#474747"/>
<rect width="6" height="6" transform="matrix(1 0 0 -1 36 60)" fill="#474747"/>
<path d="M30 54H36V48H30V54Z" fill="#474747"/>
<rect width="6" height="6" transform="matrix(1 0 0 -1 24 48)" fill="#474747"/>
<rect width="6" height="6" transform="matrix(1 0 0 -1 18 66)" fill="#474747"/>
<rect width="6" height="6" transform="matrix(1 0 0 -1 6 54)" fill="#474747"/>
<rect width="6" height="6" transform="matrix(1 0 0 -1 12 36)" fill="#474747"/>
<rect width="6" height="6" transform="matrix(1 0 0 -1 6 36)" fill="#9B9B9B"/>
<rect width="6" height="6" transform="matrix(1 0 0 -1 0 42)" fill="#9B9B9B"/>
<rect x="125.238" y="42.746" width="5.87302" height="5.87302" transform="rotate(-180 125.238 42.746)" fill="#9B9B9B"/>
<rect x="95.873" y="72.1111" width="5.87302" height="5.87302" transform="rotate(-180 95.873 72.1111)" fill="#D0D0D0"/>
<rect x="95.873" y="66.2381" width="5.87302" height="5.87302" transform="rotate(-180 95.873 66.2381)" fill="#D0D0D0"/>
<rect x="101.746" y="66.2381" width="5.87302" height="5.87302" transform="rotate(-180 101.746 66.2381)" fill="#D0D0D0"/>
<rect x="101.746" y="60.3651" width="5.87302" height="5.87302" transform="rotate(-180 101.746 60.3651)" fill="#D0D0D0"/>
<rect x="107.619" y="60.3651" width="5.87302" height="5.87302" transform="rotate(-180 107.619 60.3651)" fill="#D0D0D0"/>
<rect x="107.619" y="54.4921" width="5.87302" height="5.87302" transform="rotate(-180 107.619 54.4921)" fill="#D0D0D0"/>
<rect x="113.492" y="54.4921" width="5.87302" height="5.87302" transform="rotate(-180 113.492 54.4921)" fill="#D0D0D0"/>
<rect x="113.492" y="48.619" width="5.87302" height="5.87302" transform="rotate(-180 113.492 48.619)" fill="#D0D0D0"/>
<rect x="119.365" y="48.619" width="5.87302" height="5.87302" transform="rotate(-180 119.365 48.619)" fill="#D0D0D0"/>
<rect x="119.365" y="42.746" width="5.87302" height="5.87302" transform="rotate(-180 119.365 42.746)" fill="white"/>
<rect x="95.873" y="77.9841" width="5.87302" height="5.87302" transform="rotate(-180 95.873 77.9841)" fill="#A5A5A5"/>
<rect x="101.746" y="72.1111" width="5.87302" height="5.87302" transform="rotate(-180 101.746 72.1111)" fill="#A5A5A5"/>
<rect x="107.619" y="66.2381" width="5.87302" height="5.87302" transform="rotate(-180 107.619 66.2381)" fill="#A5A5A5"/>
<rect x="113.492" y="60.3651" width="5.87302" height="5.87302" transform="rotate(-180 113.492 60.3651)" fill="#A5A5A5"/>
<rect x="119.365" y="54.4921" width="5.87302" height="5.87302" transform="rotate(-180 119.365 54.4921)" fill="#A5A5A5"/>
<rect x="125.238" y="48.619" width="5.87302" height="5.87302" transform="rotate(-180 125.238 48.619)" fill="#D0D0D0"/>
<rect x="95.873" y="83.8571" width="5.87302" height="5.87302" transform="rotate(-180 95.873 83.8571)" fill="#474747"/>
<rect x="101.746" y="77.9841" width="5.87302" height="5.87302" transform="rotate(-180 101.746 77.9841)" fill="#474747"/>
<rect x="107.619" y="72.1111" width="5.87302" height="5.87302" transform="rotate(-180 107.619 72.1111)" fill="#474747"/>
<rect x="119.365" y="60.3651" width="5.87302" height="5.87302" transform="rotate(-180 119.365 60.3651)" fill="#474747"/>
<rect x="113.492" y="42.746" width="5.87302" height="5.87302" transform="rotate(-180 113.492 42.746)" fill="#474747"/>
<rect x="119.365" y="42.746" width="5.87302" height="5.87302" transform="rotate(-180 119.365 42.746)" fill="#474747"/>
<rect x="125.238" y="48.619" width="5.87302" height="5.87302" transform="rotate(-180 125.238 48.619)" fill="#474747"/>
<rect x="131.111" y="48.619" width="5.87302" height="5.87302" transform="rotate(-180 131.111 48.619)" fill="#474747"/>
<rect x="131.111" y="36.873" width="5.87302" height="5.87302" transform="rotate(-180 131.111 36.873)" fill="#474747"/>
<rect x="95.873" y="60.3651" width="5.87302" height="5.87302" transform="rotate(-180 95.873 60.3651)" fill="#474747"/>
<path d="M101.746 54.4921H95.873V48.619H101.746V54.4921Z" fill="#474747"/>
<rect x="107.619" y="48.619" width="5.87302" height="5.87302" transform="rotate(-180 107.619 48.619)" fill="#474747"/>
<rect x="113.492" y="66.2381" width="5.87302" height="5.87302" transform="rotate(-180 113.492 66.2381)" fill="#474747"/>
<rect x="125.238" y="54.4921" width="5.87302" height="5.87302" transform="rotate(-180 125.238 54.4921)" fill="#474747"/>
<rect x="119.365" y="36.873" width="5.87302" height="5.87302" transform="rotate(-180 119.365 36.873)" fill="#474747"/>
<rect x="125.238" y="36.873" width="5.87302" height="5.87302" transform="rotate(-180 125.238 36.873)" fill="#9B9B9B"/>
<rect x="131.111" y="42.746" width="5.87302" height="5.87302" transform="rotate(-180 131.111 42.746)" fill="#9B9B9B"/>
</svg>
