<svg width="132" height="192" viewBox="0 0 132 192" fill="none" xmlns="http://www.w3.org/2000/svg">
<rect x="65.0001" y="24" width="6" height="6" fill="#505050"/>
<rect x="65.0001" y="42" width="6" height="6" fill="#505050"/>
<rect x="77.0001" y="30" width="6" height="6" fill="#505050"/>
<rect x="59.0001" y="30" width="6" height="6" fill="#777777"/>
<rect x="71.0001" y="18" width="6" height="6" fill="#777777"/>
<rect x="83.0001" y="24" width="6" height="6" fill="#777777"/>
<rect x="71.0001" y="36" width="6" height="6" fill="#777777"/>
<rect x="53.0001" y="18" width="6" height="6" fill="#2B2B2B"/>
<rect x="59.0001" y="18" width="6" height="6" fill="#2B2B2B"/>
<rect x="65.0001" y="18" width="6" height="6" fill="#2B2B2B"/>
<rect x="47.0001" y="24" width="6" height="6" fill="#2B2B2B"/>
<rect x="53.0001" y="24" width="6" height="6" fill="#2B2B2B"/>
<rect x="59.0001" y="24" width="6" height="6" fill="#2B2B2B"/>
<rect x="47.0001" y="30" width="6" height="6" fill="#2B2B2B"/>
<rect x="53.0001" y="30" width="6" height="6" fill="#2B2B2B"/>
<rect x="65.0001" y="30" width="6" height="6" fill="#2B2B2B"/>
<rect x="53.0001" y="36" width="6" height="6" fill="#2B2B2B"/>
<rect x="59.0001" y="36" width="6" height="6" fill="#2B2B2B"/>
<rect x="65.0001" y="36" width="6" height="6" fill="#2B2B2B"/>
<rect x="59.0001" y="42" width="6" height="6" fill="#2B2B2B"/>
<rect x="65.0001" y="48" width="6" height="6" fill="#2B2B2B"/>
<rect x="77.0001" y="18" width="6" height="6" fill="#2B2B2B"/>
<rect x="83.0001" y="18" width="6" height="6" fill="#2B2B2B"/>
<rect x="71.0001" y="24" width="6" height="6" fill="#2B2B2B"/>
<rect x="77.0001" y="24" width="6" height="6" fill="#2B2B2B"/>
<rect x="71.0001" y="30" width="6" height="6" fill="#2B2B2B"/>
<rect x="83.0001" y="30" width="6" height="6" fill="#2B2B2B"/>
<rect x="77.0001" y="36" width="6" height="6" fill="#2B2B2B"/>
<rect x="83.0001" y="36" width="6" height="6" fill="#2B2B2B"/>
<rect x="71.0001" y="42" width="6" height="6" fill="#2B2B2B"/>
<rect x="77.0001" y="42" width="6" height="6" fill="#2B2B2B"/>
<rect x="83.0001" y="42" width="6" height="6" fill="#2B2B2B"/>
<rect x="71.0001" y="48" width="6" height="6" fill="#2B2B2B"/>
<rect x="77.0001" y="48" width="6" height="6" fill="#2B2B2B"/>
<rect x="53.0001" y="6" width="6" height="6" fill="white"/>
<rect x="59.0001" y="6" width="6" height="6" fill="white"/>
<rect x="65.0001" y="6" width="6" height="6" fill="white"/>
<rect x="47.0001" y="12" width="6" height="6" fill="white"/>
<rect x="53.0001" y="12" width="6" height="6" fill="white"/>
<rect x="59.0001" y="12" width="6" height="6" fill="white"/>
<rect x="65.0001" y="12" width="6" height="6" fill="white"/>
<rect x="47.0001" y="18" width="6" height="6" fill="white"/>
<rect x="47.0001" y="36" width="6" height="6" fill="white"/>
<rect x="47.0001" y="42" width="6" height="6" fill="white"/>
<rect x="53.0001" y="42" width="6" height="6" fill="white"/>
<rect x="53.0001" y="48" width="6" height="6" fill="white"/>
<rect x="59.0001" y="48" width="6" height="6" fill="white"/>
<rect x="41.0001" y="12" width="6" height="6" fill="#D0D0D0"/>
<rect x="41.0001" y="18" width="6" height="6" fill="#D0D0D0"/>
<rect x="47.0001" y="6" width="6" height="6" fill="#D0D0D0"/>
<rect x="41.0001" y="24" width="6" height="6" fill="#D0D0D0"/>
<rect x="41.0001" y="30" width="6" height="6" fill="#D0D0D0"/>
<rect x="41.0001" y="36" width="6" height="6" fill="#D0D0D0"/>
<rect x="41.0001" y="42" width="6" height="6" fill="#D0D0D0"/>
<rect x="47.0001" y="48" width="6" height="6" fill="#D0D0D0"/>
<rect x="53.0001" y="54" width="6" height="6" fill="#D0D0D0"/>
<rect x="59.0001" y="54" width="6" height="6" fill="white"/>
<rect x="65.0001" y="54" width="6" height="6" fill="white"/>
<rect x="71.0001" y="6" width="6" height="6" fill="white"/>
<rect x="71.0001" y="12" width="6" height="6" fill="white"/>
<rect x="77.0001" y="12" width="6" height="6" fill="white"/>
<rect x="71.0001" y="54" width="6" height="6" fill="white"/>
<rect x="77.0001" y="54" width="6" height="6" fill="white"/>
<rect x="41.0001" y="6" width="6" height="6" fill="#474747"/>
<rect x="35.0001" y="12" width="6" height="6" fill="#474747"/>
<rect x="35.0001" y="18" width="6" height="6" fill="#474747"/>
<rect x="47.0001" width="6" height="6" fill="#474747"/>
<rect x="53.0001" width="6" height="6" fill="#474747"/>
<rect x="59.0001" width="6" height="6" fill="#474747"/>
<rect x="65.0001" width="6" height="6" fill="#474747"/>
<rect x="35.0001" y="24" width="6" height="6" fill="#474747"/>
<rect x="35.0001" y="30" width="6" height="6" fill="#474747"/>
<rect x="35.0001" y="36" width="6" height="6" fill="#474747"/>
<rect x="35.0001" y="42" width="6" height="6" fill="#474747"/>
<rect x="41.0001" y="48" width="6" height="6" fill="#474747"/>
<rect x="47.0001" y="54" width="6" height="6" fill="#474747"/>
<rect x="53.0001" y="60" width="6" height="6" fill="#474747"/>
<rect x="59.0001" y="60" width="6" height="6" fill="#474747"/>
<rect x="65.0001" y="60" width="6" height="6" fill="#474747"/>
<rect x="71.0001" width="6" height="6" fill="#474747"/>
<rect x="77.0001" y="6" width="6" height="6" fill="#474747"/>
<rect x="83.0001" y="12" width="6" height="6" fill="#474747"/>
<rect x="83.0001" y="48" width="6" height="6" fill="#474747"/>
<rect x="83.0001" y="54" width="6" height="6" fill="#474747"/>
<rect x="71.0001" y="60" width="6" height="6" fill="#474747"/>
<rect x="77.0001" y="60" width="6" height="6" fill="#474747"/>
<rect x="47.0001" y="138" width="6" height="6" fill="#858585"/>
<rect x="53.0001" y="138" width="6" height="6" fill="#858585"/>
<rect x="53.0001" y="144" width="6" height="6" fill="#858585"/>
<rect x="53.0001" y="150" width="6" height="6" fill="#858585"/>
<rect x="47.0001" y="156" width="6" height="6" fill="#858585"/>
<rect x="53.0001" y="156" width="6" height="6" fill="#858585"/>
<rect x="59.0001" y="138" width="6" height="6" fill="#858585"/>
<rect x="71.0001" y="138" width="6" height="6" fill="#858585"/>
<rect x="77.0001" y="138" width="6" height="6" fill="#858585"/>
<rect x="71.0001" y="144" width="6" height="6" fill="#858585"/>
<rect x="71.0001" y="150" width="6" height="6" fill="#858585"/>
<rect x="59.0001" y="156" width="6" height="6" fill="#858585"/>
<rect x="71.0001" y="156" width="6" height="6" fill="#858585"/>
<rect x="77.0001" y="156" width="6" height="6" fill="#858585"/>
<rect x="71.0001" y="168" width="6" height="6" fill="#474747"/>
<rect x="77.0001" y="168" width="6" height="6" fill="#474747"/>
<rect x="53.0001" y="120" width="6" height="6" fill="white"/>
<rect x="53.0001" y="126" width="6" height="6" fill="white"/>
<rect x="53.0001" y="132" width="6" height="6" fill="white"/>
<rect x="47.0001" y="174" width="6" height="6" fill="#9B9B9B"/>
<rect x="53.0001" y="174" width="6" height="6" fill="#9B9B9B"/>
<rect x="47.0001" y="180" width="6" height="6" fill="#9B9B9B"/>
<rect x="53.0001" y="180" width="6" height="6" fill="#9B9B9B"/>
<rect x="59.0001" y="120" width="6" height="6" fill="white"/>
<rect x="77.0001" y="120" width="6" height="6" fill="white"/>
<rect x="59.0001" y="126" width="6" height="6" fill="white"/>
<rect x="77.0001" y="126" width="6" height="6" fill="white"/>
<rect x="59.0001" y="132" width="6" height="6" fill="white"/>
<rect x="77.0001" y="132" width="6" height="6" fill="white"/>
<rect x="59.0001" y="144" width="6" height="6" fill="white"/>
<rect x="77.0001" y="144" width="6" height="6" fill="white"/>
<rect x="59.0001" y="150" width="6" height="6" fill="white"/>
<rect x="77.0001" y="150" width="6" height="6" fill="white"/>
<rect x="47.0001" y="132" width="6" height="6" fill="#D0D0D0"/>
<rect x="47.0001" y="126" width="6" height="6" fill="#D0D0D0"/>
<rect x="47.0001" y="120" width="6" height="6" fill="#D0D0D0"/>
<rect x="47.0001" y="144" width="6" height="6" fill="#D0D0D0"/>
<rect x="47.0001" y="150" width="6" height="6" fill="#D0D0D0"/>
<rect x="47.0001" y="162" width="6" height="6" fill="#D0D0D0"/>
<rect x="53.0001" y="162" width="6" height="6" fill="#D0D0D0"/>
<rect x="71.0001" y="120" width="6" height="6" fill="#D0D0D0"/>
<rect x="71.0001" y="126" width="6" height="6" fill="#D0D0D0"/>
<rect x="71.0001" y="132" width="6" height="6" fill="#D0D0D0"/>
<rect x="59.0001" y="162" width="6" height="6" fill="#D0D0D0"/>
<rect x="71.0001" y="162" width="6" height="6" fill="#D0D0D0"/>
<rect x="77.0001" y="162" width="6" height="6" fill="#D0D0D0"/>
<rect x="59.0001" y="174" width="6" height="6" fill="#9B9B9B"/>
<rect x="71.0001" y="174" width="6" height="6" fill="#9B9B9B"/>
<rect x="77.0001" y="174" width="6" height="6" fill="#9B9B9B"/>
<rect x="59.0001" y="180" width="6" height="6" fill="#9B9B9B"/>
<rect x="65.0001" y="180" width="6" height="6" fill="#9B9B9B"/>
<rect x="77.0001" y="180" width="6" height="6" fill="#9B9B9B"/>
<rect x="83.0001" y="180" width="6" height="6" fill="#9B9B9B"/>
<rect x="65.0001" y="84" width="6" height="6" fill="#FF6060"/>
<rect x="71.0001" y="84" width="6" height="6" fill="#FF6060"/>
<rect x="65" y="78" width="6" height="6" fill="#FF6060"/>
<rect x="71" y="78" width="6" height="6" fill="#FF6060"/>
<rect x="65.0001" y="90" width="6" height="6" fill="#60D9FF"/>
<rect x="71.0001" y="90" width="6" height="6" fill="#60D9FF"/>
<rect x="41.0001" y="60" width="6" height="6" fill="#858585"/>
<rect x="47.0001" y="60" width="6" height="6" fill="white"/>
<rect x="41.0001" y="66" width="6" height="6" fill="#858585"/>
<rect x="47.0001" y="66" width="6" height="6" fill="white"/>
<rect x="53.0001" y="66" width="6" height="6" fill="#EBEBEB"/>
<rect x="47.0001" y="72" width="6" height="6" fill="white"/>
<rect x="53.0001" y="72" width="6" height="6" fill="white"/>
<rect x="53.0001" y="78" width="6" height="6" fill="white"/>
<rect x="59.0001" y="66" width="6" height="6" fill="#EBEBEB"/>
<rect x="65.0001" y="66" width="6" height="6" fill="#EBEBEB"/>
<rect x="71.0001" y="66" width="6" height="6" fill="#EBEBEB"/>
<rect x="77.0001" y="66" width="6" height="6" fill="#EBEBEB"/>
<rect x="59.0001" y="72" width="6" height="6" fill="white"/>
<rect x="65.0001" y="72" width="6" height="6" fill="white"/>
<rect x="71.0001" y="72" width="6" height="6" fill="#EBEBEB"/>
<rect x="77.0001" y="72" width="6" height="6" fill="#EBEBEB"/>
<rect x="83.0001" y="60" width="6" height="6" fill="#474747"/>
<rect x="83.0001" y="66" width="6" height="6" fill="#EBEBEB"/>
<rect x="83.0001" y="72" width="6" height="6" fill="#EBEBEB"/>
<rect x="59.0001" y="78" width="6" height="6" fill="white"/>
<rect x="65" y="90" width="6" height="6" fill="white"/>
<rect x="71" y="90" width="6" height="6" fill="white"/>
<rect x="77.0001" y="78" width="6" height="6" fill="#EBEBEB"/>
<rect x="59.0001" y="84" width="6" height="6" fill="white"/>
<rect x="77.0001" y="84" width="6" height="6" fill="#EBEBEB"/>
<rect x="59.0001" y="90" width="6" height="6" fill="white"/>
<rect x="77.0001" y="90" width="6" height="6" fill="#EBEBEB"/>
<rect x="59.0001" y="96" width="6" height="6" fill="white"/>
<rect x="65.0001" y="96" width="6" height="6" fill="white"/>
<rect x="71.0001" y="96" width="6" height="6" fill="white"/>
<rect x="77.0001" y="96" width="6" height="6" fill="#EBEBEB"/>
<rect x="59.0001" y="102" width="6" height="6" fill="white"/>
<rect x="65.0001" y="102" width="6" height="6" fill="white"/>
<rect x="71.0001" y="102" width="6" height="6" fill="white"/>
<rect x="77.0001" y="102" width="6" height="6" fill="white"/>
<rect x="47" y="78" width="6" height="6" fill="#D0D0D0"/>
<rect x="53.0001" y="90" width="6" height="6" fill="#8F1515"/>
<rect x="53.0001" y="84" width="6" height="6" fill="#A61414"/>
<rect x="53.0001" y="96" width="6" height="6" fill="#8F1515"/>
<rect x="53.0001" y="102" width="6" height="6" fill="#8F1515"/>
<rect x="53.0001" y="108" width="6" height="6" fill="#D0D0D0"/>
<rect x="47" y="84" width="6" height="6" fill="#D0D0D0"/>
<rect x="47" y="90" width="6" height="6" fill="#D0D0D0"/>
<rect x="47" y="96" width="6" height="6" fill="#D0D0D0"/>
<rect x="47" y="102" width="6" height="6" fill="#D0D0D0"/>
<rect x="47" y="108" width="6" height="6" fill="#D0D0D0"/>
<rect x="59.0001" y="108" width="6" height="6" fill="#D0D0D0"/>
<rect x="65.0001" y="108" width="6" height="6" fill="#D0D0D0"/>
<rect x="71.0001" y="108" width="6" height="6" fill="#D0D0D0"/>
<rect x="77.0001" y="108" width="6" height="6" fill="#D0D0D0"/>
<rect x="53.0001" y="114" width="6" height="6" fill="#474747"/>
<rect x="41.0001" y="132" width="6" height="6" fill="#474747"/>
<rect x="41.0001" y="126" width="6" height="6" fill="#474747"/>
<rect x="41.0001" y="120" width="6" height="6" fill="#474747"/>
<rect x="41.0001" y="114" width="6" height="6" fill="#474747"/>
<rect x="47" y="114" width="6" height="6" fill="#474747"/>
<rect x="41.0001" y="108" width="6" height="6" fill="#474747"/>
<rect x="41.0001" y="102" width="6" height="6" fill="#474747"/>
<rect x="41.0001" y="96" width="6" height="6" fill="#474747"/>
<rect x="41.0001" y="90" width="6" height="6" fill="#474747"/>
<rect x="41.0001" y="84" width="6" height="6" fill="#474747"/>
<rect x="41.0001" y="78" width="6" height="6" fill="#474747"/>
<rect x="41.0001" y="72" width="6" height="6" fill="white"/>
<rect x="41.0001" y="66" width="6" height="6" fill="white"/>
<rect x="41.0001" y="60" width="6" height="6" fill="#474747"/>
<rect x="41.0001" y="138" width="6" height="6" fill="#474747"/>
<rect x="41.0001" y="144" width="6" height="6" fill="#474747"/>
<rect x="41.0001" y="150" width="6" height="6" fill="#474747"/>
<rect x="41.0001" y="156" width="6" height="6" fill="#474747"/>
<rect x="41.0001" y="162" width="6" height="6" fill="#474747"/>
<rect x="41.0001" y="168" width="6" height="6" fill="#474747"/>
<rect x="47.0001" y="168" width="6" height="6" fill="#474747"/>
<rect x="53.0001" y="168" width="6" height="6" fill="#474747"/>
<rect x="41.0001" y="174" width="6" height="6" fill="#474747"/>
<rect x="41.0001" y="180" width="6" height="6" fill="#474747"/>
<rect x="41.0001" y="186" width="6" height="6" fill="#474747"/>
<rect x="47.0001" y="186" width="6" height="6" fill="#474747"/>
<rect x="53.0001" y="186" width="6" height="6" fill="#474747"/>
<rect x="59.0001" y="114" width="6" height="6" fill="#474747"/>
<rect x="65.0001" y="114" width="6" height="6" fill="#474747"/>
<rect x="71.0001" y="114" width="6" height="6" fill="#474747"/>
<rect x="77.0001" y="114" width="6" height="6" fill="#474747"/>
<rect x="65.0001" y="120" width="6" height="6" fill="#474747"/>
<rect x="65.0001" y="126" width="6" height="6" fill="#474747"/>
<rect x="65.0001" y="132" width="6" height="6" fill="#474747"/>
<rect x="65.0001" y="138" width="6" height="6" fill="#474747"/>
<rect x="65.0001" y="144" width="6" height="6" fill="#474747"/>
<rect x="83.0001" y="114" width="6" height="6" fill="#474747"/>
<rect x="83.0001" y="120" width="6" height="6" fill="#474747"/>
<rect x="83.0001" y="126" width="6" height="6" fill="#474747"/>
<rect x="83.0001" y="132" width="6" height="6" fill="#474747"/>
<rect x="83.0001" y="138" width="6" height="6" fill="#474747"/>
<rect x="83.0001" y="144" width="6" height="6" fill="#474747"/>
<rect x="65.0001" y="150" width="6" height="6" fill="#474747"/>
<rect x="65.0001" y="156" width="6" height="6" fill="#474747"/>
<rect x="65.0001" y="162" width="6" height="6" fill="#474747"/>
<rect x="59.0001" y="168" width="6" height="6" fill="#474747"/>
<rect x="65.0001" y="168" width="6" height="6" fill="#474747"/>
<rect x="65.0001" y="174" width="6" height="6" fill="#474747"/>
<rect x="71.0001" y="180" width="6" height="6" fill="#474747"/>
<rect x="83.0001" y="150" width="6" height="6" fill="#474747"/>
<rect x="83.0001" y="156" width="6" height="6" fill="#474747"/>
<rect x="83.0001" y="162" width="6" height="6" fill="#474747"/>
<rect x="83.0001" y="168" width="6" height="6" fill="#474747"/>
<rect x="83.0001" y="174" width="6" height="6" fill="#474747"/>
<rect x="89.0001" y="180" width="6" height="6" fill="#474747"/>
<rect x="59.0001" y="186" width="6" height="6" fill="#474747"/>
<rect x="65.0001" y="186" width="6" height="6" fill="#474747"/>
<rect x="71.0001" y="186" width="6" height="6" fill="#474747"/>
<rect x="77.0001" y="186" width="6" height="6" fill="#474747"/>
<rect x="83.0001" y="186" width="6" height="6" fill="#474747"/>
<rect x="89.0001" y="186" width="6" height="6" fill="#474747"/>
<rect x="83.0001" y="78" width="6" height="6" fill="#474747"/>
<rect x="83.0001" y="84" width="6" height="6" fill="#474747"/>
<rect x="83.0001" y="90" width="6" height="6" fill="#474747"/>
<rect x="83.0001" y="96" width="6" height="6" fill="#474747"/>
<rect x="83.0001" y="102" width="6" height="6" fill="#474747"/>
<rect x="83.0001" y="108" width="6" height="6" fill="#474747"/>
<rect x="5.88892" y="101.222" width="5.88889" height="5.88889" fill="#9B9B9B"/>
<rect x="35.3333" y="71.7778" width="5.88889" height="5.88889" fill="white"/>
<rect x="35.3333" y="77.6667" width="5.88889" height="5.88889" fill="#D0D0D0"/>
<rect x="29.4445" y="77.6667" width="5.88889" height="5.88889" fill="white"/>
<rect x="29.4445" y="83.5556" width="5.88889" height="5.88889" fill="#D0D0D0"/>
<rect x="23.5555" y="83.5556" width="5.88889" height="5.88889" fill="white"/>
<rect x="23.5555" y="89.4444" width="5.88889" height="5.88889" fill="#D0D0D0"/>
<rect x="17.6667" y="89.4444" width="5.88889" height="5.88889" fill="white"/>
<rect x="17.6667" y="95.3333" width="5.88889" height="5.88889" fill="#D0D0D0"/>
<rect x="11.7778" y="95.3333" width="5.88889" height="5.88889" fill="#D0D0D0"/>
<rect x="11.7778" y="101.222" width="5.88889" height="5.88889" fill="white"/>
<rect x="35.3333" y="65.8889" width="5.88889" height="5.88889" fill="white"/>
<rect x="29.4445" y="71.7778" width="5.88889" height="5.88889" fill="white"/>
<rect x="23.5555" y="77.6667" width="5.88889" height="5.88889" fill="white"/>
<rect x="17.6667" y="83.5556" width="5.88889" height="5.88889" fill="white"/>
<rect x="11.7778" y="89.4444" width="5.88889" height="5.88889" fill="white"/>
<rect x="5.88892" y="95.3333" width="5.88889" height="5.88889" fill="#D0D0D0"/>
<rect x="35.3333" y="60" width="5.88889" height="5.88889" fill="#474747"/>
<rect x="29.4445" y="65.8889" width="5.88889" height="5.88889" fill="#474747"/>
<rect x="23.5555" y="71.7778" width="5.88889" height="5.88889" fill="#474747"/>
<rect x="11.7778" y="83.5556" width="5.88889" height="5.88889" fill="#474747"/>
<rect x="17.6667" y="101.222" width="5.88889" height="5.88889" fill="#474747"/>
<rect x="11.7778" y="101.222" width="5.88889" height="5.88889" fill="#474747"/>
<rect x="5.88892" y="95.3333" width="5.88889" height="5.88889" fill="#474747"/>
<rect y="95.3333" width="5.88889" height="5.88889" fill="#474747"/>
<rect y="107.111" width="5.88889" height="5.88889" fill="#474747"/>
<rect x="35.3333" y="83.5556" width="5.88889" height="5.88889" fill="#474747"/>
<path d="M29.4445 89.4444H35.3333V95.3333H29.4445V89.4444Z" fill="#474747"/>
<rect x="23.5555" y="95.3333" width="5.88889" height="5.88889" fill="#474747"/>
<rect x="17.6667" y="77.6667" width="5.88889" height="5.88889" fill="#474747"/>
<rect x="5.88892" y="89.4444" width="5.88889" height="5.88889" fill="#474747"/>
<rect x="11.7778" y="107.111" width="5.88889" height="5.88889" fill="#474747"/>
<rect x="5.88892" y="107.111" width="5.88889" height="5.88889" fill="#9B9B9B"/>
<rect y="101.222" width="5.88889" height="5.88889" fill="#9B9B9B"/>
<rect width="6.01587" height="6.01587" transform="matrix(-1 0 0 1 125.095 102.111)" fill="#9B9B9B"/>
<rect width="6.01587" height="6.01587" transform="matrix(-1 0 0 1 95.0159 72.0317)" fill="#D0D0D0"/>
<rect width="6.01587" height="6.01587" transform="matrix(-1 0 0 1 95.0159 78.0476)" fill="#A5A5A5"/>
<rect width="6.01587" height="6.01587" transform="matrix(-1 0 0 1 101.032 78.0476)" fill="#D0D0D0"/>
<rect width="6.01587" height="6.01587" transform="matrix(-1 0 0 1 101.032 84.0635)" fill="#A5A5A5"/>
<rect width="6.01587" height="6.01587" transform="matrix(-1 0 0 1 107.048 84.0635)" fill="#D0D0D0"/>
<rect width="6.01587" height="6.01587" transform="matrix(-1 0 0 1 107.048 90.0794)" fill="#A5A5A5"/>
<rect width="6.01587" height="6.01587" transform="matrix(-1 0 0 1 113.063 90.0794)" fill="#D0D0D0"/>
<rect width="6.01587" height="6.01587" transform="matrix(-1 0 0 1 113.063 96.0952)" fill="#A5A5A5"/>
<rect width="6.01587" height="6.01587" transform="matrix(-1 0 0 1 119.079 96.0952)" fill="#D0D0D0"/>
<rect width="6.01587" height="6.01587" transform="matrix(-1 0 0 1 119.079 102.111)" fill="white"/>
<rect width="6.01587" height="6.01587" transform="matrix(-1 0 0 1 95.0159 66.0159)" fill="#D0D0D0"/>
<rect width="6.01587" height="6.01587" transform="matrix(-1 0 0 1 101.032 72.0317)" fill="#D0D0D0"/>
<rect width="6.01587" height="6.01587" transform="matrix(-1 0 0 1 107.048 78.0476)" fill="#D0D0D0"/>
<rect width="6.01587" height="6.01587" transform="matrix(-1 0 0 1 113.063 84.0635)" fill="#D0D0D0"/>
<rect width="6.01587" height="6.01587" transform="matrix(-1 0 0 1 119.079 90.0794)" fill="#D0D0D0"/>
<rect width="6.01587" height="6.01587" transform="matrix(-1 0 0 1 125.095 96.0952)" fill="#D0D0D0"/>
<rect width="6.01587" height="6.01587" transform="matrix(-1 0 0 1 95.0159 60)" fill="#474747"/>
<rect width="6.01587" height="6.01587" transform="matrix(-1 0 0 1 101.032 66.0159)" fill="#474747"/>
<rect width="6.01587" height="6.01587" transform="matrix(-1 0 0 1 107.048 72.0317)" fill="#474747"/>
<rect width="6.01587" height="6.01587" transform="matrix(-1 0 0 1 119.079 84.0635)" fill="#474747"/>
<rect width="6.01587" height="6.01587" transform="matrix(-1 0 0 1 113.063 102.111)" fill="#474747"/>
<rect width="6.01587" height="6.01587" transform="matrix(-1 0 0 1 119.079 102.111)" fill="#474747"/>
<rect width="6.01587" height="6.01587" transform="matrix(-1 0 0 1 125.095 96.0952)" fill="#474747"/>
<rect width="6.01587" height="6.01587" transform="matrix(-1 0 0 1 131.111 96.0952)" fill="#474747"/>
<rect width="6.01587" height="6.01587" transform="matrix(-1 0 0 1 131.111 108.127)" fill="#474747"/>
<rect width="6.01587" height="6.01587" transform="matrix(-1 0 0 1 95.0159 84.0635)" fill="#474747"/>
<path d="M101.032 90.0794H95.0158V96.0952H101.032V90.0794Z" fill="#474747"/>
<rect width="6.01587" height="6.01587" transform="matrix(-1 0 0 1 107.048 96.0952)" fill="#474747"/>
<rect width="6.01587" height="6.01587" transform="matrix(-1 0 0 1 113.063 78.0476)" fill="#474747"/>
<rect width="6.01587" height="6.01587" transform="matrix(-1 0 0 1 125.095 90.0794)" fill="#474747"/>
<rect width="6.01587" height="6.01587" transform="matrix(-1 0 0 1 119.079 108.127)" fill="#474747"/>
<rect width="6.01587" height="6.01587" transform="matrix(-1 0 0 1 125.095 108.127)" fill="#9B9B9B"/>
<rect width="6.01587" height="6.01587" transform="matrix(-1 0 0 1 131.111 102.111)" fill="#9B9B9B"/>
</svg>
